<?xml version="1.0" encoding="utf-8"?>
<!-- Generator: Adobe Illustrator 28.1.0, SVG Export Plug-In . SVG Version: 6.00 Build 0)  -->
<svg version="1.1" id="Capa_1" xmlns="http://www.w3.org/2000/svg" xmlns:xlink="http://www.w3.org/1999/xlink" x="0px" y="0px"
	 viewBox="0 0 375.18 616.39" style="enable-background:new 0 0 375.18 616.39;" xml:space="preserve">
<path d="M229.5,51.69c7.37,0,13.35,6.09,13.11,13.45c-0.21,6.51-1.26,12.86-5.07,19.08c-6.32,10.32-11,21.65-16.61,32.95
	c5.99,3.03,11.37,6.06,17.01,8.49c3.75,1.62,5.03,3.91,4.81,7.87c-0.16,2.92-0.17,5.86-0.14,8.92c0.04,4.28-3.43,7.79-7.71,7.79
	h-14.88c0.63,14.34,0.5,28.13,1.82,41.67c1.42,14.61,8.42,28.1,18.83,38.45c17.31,17.23,34.52,34.55,51.82,51.79
	c21.04,20.97,29.86,46.79,26.24,78.24c-6.44,55.84-2.98,112.11,0.6,168.21c2.17,34.03-23.62,56.32-59.58,48.66
	c-46.91-9.99-95.25-12.35-141.75-0.59c-37.54,9.49-65.4-14.28-62.06-49.78c5.18-55.12,8.41-110.53,0.83-165.37
	c-4.28-30.94,4.1-57.07,24.64-77.92c17.16-17.42,34.41-34.75,51.88-51.85c14.62-14.31,21.53-31.57,21.43-51.85
	c-0.05-9.61-0.01-19.23-0.01-29.53h-12.47c-5.25,0-9.52-4.28-9.54-9.54c-0.02-3.48,0.02-6.86,0.24-10.22
	c0.1-1.56,2.12-3.46,3.73-4.35c5.59-3.1,11.39-5.83,17.76-9.02c-5.11-10.25-9.38-20.56-15.15-29.94c-4.49-7.3-6.25-14.85-6.59-22.77
	c-0.3-7.03,5.5-12.83,12.53-12.83H229.5z"/>
</svg>
