<?xml version="1.0" encoding="UTF-8"?>
<svg id="Capa_1" data-name="Capa 1" xmlns="http://www.w3.org/2000/svg" viewBox="0 0 375.18 616.39">
  <defs>
    <style>
      .cls-1 {
        stroke-width: 0px;
      }
    </style>
  </defs>
  <path class="cls-1" d="M265.86,263.23c-2.67-19.29-7.32-38-12.71-56.5-1.66-5.69-4.24-10.02-9.26-12.05h-113.11c-5.15,2.08-7.87,6.52-9.29,12.43-.37,1.54-1.78,6.62-3.43,12.69h0s0,0,0,0c-2.78,10.24-6.24,23.33-6.51,27.08h0c-.03.14-.07.28-.1.42l-.04.15h0c-.11.54-.2,1.09-.29,1.63-3.38,19.41-5.79,38.87-4.67,58.81,1.26,22.61,8.17,42.35,21.24,59.12,11.03,14.15,24.71,23.83,39.9,30.85,1.17.54,2.74,1.81,2.93,3,1.62,10.09,4.02,20.22,4.19,30.39.55,32.61.22,65.24.31,97.87,0,2.18-.69,3.05-2.34,3.83-10.98,5.23-21.92,10.57-32.86,15.93-3.92,1.92-5.42,4.93-4.64,8.93.68,3.48,3.11,5.33,7.13,5.33,30.04,0,60.07,0,90.11,0,4.01,0,6.44-1.87,7.09-5.37.74-3.94-.65-6.93-4.38-8.76-11.03-5.42-22.06-10.83-33.16-16.03-2.15-1.01-2.91-2.14-2.9-4.88.1-29.38.07-58.77.06-88.16,0-12.52,1.46-24.81,3.92-36.99.56-2.75,1.74-4.1,3.9-5.3,7.62-4.23,15.5-8.09,22.55-13.4,19.16-14.45,31.83-34.59,36.89-60.66,3.91-20.13,2.25-40.28-.53-60.35ZM258.61,304.05c-4.82,0-34.92.03-39.38.02-33.14,0-66.29,0-99.43,0h-3.81c-.58-12.73.38-24.97,2.06-37.15.76-5.47,1.73-10.9,2.5-16.36l6.2-26.57h0c.11-.3.22-.61.31-.94,1.27-4.3,2.67-8.56,3.69-12.94.78-3.31,2.16-4.52,5.23-4.51,34.28.14,68.57.14,102.85.04,2.92,0,4.12,1.22,5.04,4.31,7.36,24.63,12.98,49.71,14.67,75.79.39,6.02.06,12.09.06,18.32Z"/>
</svg>