<?xml version="1.0" encoding="utf-8"?>
<!-- Generator: Adobe Illustrator 28.0.0, SVG Export Plug-In . SVG Version: 6.00 Build 0)  -->
<svg version="1.1" id="Capa_1" xmlns="http://www.w3.org/2000/svg" xmlns:xlink="http://www.w3.org/1999/xlink" x="0px" y="0px"
	 viewBox="0 0 566.93 566.93" style="enable-background:new 0 0 566.93 566.93;" xml:space="preserve">
<style type="text/css">
	.st0{display:none;fill:#141414;}
	.st1{display:none;fill:#EA911B;}
	.st2{display:none;}
	.st3{display:inline;}
	.st4{fill:#010202;}
	.st5{display:none;fill:#FFFFFF;}
	.st6{fill:#FFFFFF;}
	.st7{fill:none;stroke:#010202;stroke-width:3;}
	.st8{display:none;fill:#010202;}
</style>
<circle class="st0" cx="284.53" cy="283.46" r="275.33"/>
<circle class="st1" cx="284.53" cy="283.46" r="275.33"/>
<g id="Botanas" class="st2">
	<path class="st3" d="M70.84,302.32c3-8.76,8.17-15.47,17.62-17.71c2.79-0.66,5.78-0.69,8.68-0.7
		c60.98-0.04,121.97-0.05,182.95,0.04c3.14,0,5.55-0.82,7.87-2.88c4.45-3.97,9.08-7.73,13.78-11.69
		c-9.17-14.9-18.19-29.57-27.23-44.24c-14.15-22.96-28.6-45.75-42.33-68.96c-5.39-9.11-15.8-7.96-20.57-0.02
		c-21.25,35.4-43.15,70.41-64.78,105.59c-2.25,3.66-4.88,6.63-9.58,6c-6.21-0.84-9.04-7.41-5.61-13.12
		c6.24-10.36,12.66-20.61,19.01-30.91c15.91-25.8,31.75-51.63,47.75-77.38c9.43-15.17,28.57-18.47,41.22-7.02
		c2.93,2.65,5.11,6.2,7.32,9.54c3.43,5.19,6.58,10.56,9.61,15.46c6.44-2.54,12.28-5.64,18.51-7.17c23.88-5.9,47.9,4.66,60.13,26.09
		c1.36,2.38,2.71,3.13,5.44,3.21c13.87,0.39,26,5.32,36.23,14.78c0.82,0.75,1.62,1.52,2.44,2.27c0.1,0.09,0.24,0.12,0.71,0.33
		c9.89-8.27,19.84-16.74,29.94-25.01c8.19-6.7,18.27-7.07,26.08-0.89c2.33,1.85,4.37,4.35,5.86,6.94
		c17.45,30.37,19.56,61.95,7.1,94.59c-0.48,1.26-0.97,2.52-1.72,4.45c9.91,0,19.31-0.09,28.7,0.02c10.29,0.13,19.5,6.87,21.63,16.89
		c1.02,4.82,0.67,10.27-0.4,15.15c-6.25,28.52-22.1,51.25-43.52,70.46c-13.55,12.15-28.68,21.99-45,29.96
		c-2.89,1.41-4.09,2.96-3.99,6.29c0.18,5.96,0.22,12-0.51,17.91c-1.27,10.32-9.96,17.92-20.33,17.93
		c-65.99,0.07-131.99,0.08-197.98,0c-10.93-0.01-19.66-8.04-20.69-18.99c-0.53-5.66-0.45-11.4-0.3-17.1
		c0.08-2.93-0.93-4.45-3.56-5.72c-20.7-10.04-39.45-22.87-55.34-39.61c-17.3-18.22-29.62-39.14-34.42-64.1c-0.1-0.52-0.46-1-0.7-1.5
		C70.84,308.45,70.84,305.39,70.84,302.32z M387.97,421.71c-2.02,0-3.66,0-5.29,0c-58.75,0-117.5,0-176.25,0
		c-1.53,0-3.09,0.1-4.58-0.14c-3.91-0.63-6.89-3.85-7.24-7.59c-0.33-3.53,2.05-7.38,5.56-8.42c1.68-0.5,3.56-0.45,5.36-0.45
		c61.81-0.02,123.62-0.01,185.43-0.06c1.89,0,3.95-0.2,5.63-0.97c15.98-7.4,30.89-16.52,44.18-28.13
		c20.07-17.54,34.98-38.32,40.5-64.95c1.64-7.88-0.48-10.47-8.61-10.47c-24.64-0.01-49.28,0-73.92,0c-100.79,0-201.58,0-302.37,0.01
		c-7.49,0-9.82,2.94-8.34,10.12c4.51,21.95,15.64,40.24,31.05,56.12c16,16.48,35.03,28.63,55.82,38.11c4.65,2.12,6.8,5.34,6.7,10.39
		c-0.12,6.26-0.04,12.53-0.02,18.79c0.02,7.03,0.88,7.88,7.97,7.88c63.48,0,126.96,0,190.44,0c0.97,0,1.95-0.02,2.92-0.01
		c3.04,0.03,4.87-1.63,5-4.48C388.14,432.35,387.97,427.23,387.97,421.71z M265.92,179.55c16.16,26.21,32.36,52.48,48.73,79.03
		c17.63-14.75,34.78-29.11,52.2-43.68c-1.15-1.09-2.1-2.08-3.13-2.96c-14.51-12.29-35.5-11.72-49.84,1.35
		c-4.72,4.3-9.68,4.51-13.18,0.56c-3.34-3.76-2.88-8.9,1.92-12.71c5.28-4.2,11.06-7.76,16.66-11.63
		C308.74,171.58,282.49,166.27,265.92,179.55z M439.82,238.81c1.22-12.3-3.88-31.24-11.88-44.76c-2.74-4.63-4.21-4.94-8.38-1.47
		c-11.42,9.51-22.8,19.07-34.2,28.62c-4.4,3.69-8.79,7.38-13.75,11.55C394.89,234.82,417.25,236.81,439.82,238.81z M370.95,249.44
		c0.25,0.92,0.25,1.22,0.4,1.4c8.79,10.57,17.56,21.16,26.43,31.66c0.67,0.8,2.11,1.32,3.2,1.34c8.33,0.11,16.67,0.11,25-0.01
		c1.03-0.01,2.52-0.66,2.98-1.48c4.69-8.22,7.98-16.98,9.7-26.88C416.03,253.46,393.68,251.47,370.95,249.44z M340.64,258.6
		c-10.26,8.61-19.77,16.59-29.91,25.1c9.85,0,18.55,0,27.6,0C339.07,275.56,339.81,267.59,340.64,258.6z M377.03,283.74
		c-6.74-8.05-12.9-15.41-19.78-23.63c-0.73,8.63-1.36,16.03-2.01,23.63C362.52,283.74,369.28,283.74,377.03,283.74z"/>
	<path class="st3" d="M253.77,255.03c-0.17,4.48-4,8.09-8.49,7.98c-4.46-0.1-8.17-3.94-8.11-8.39c0.06-4.6,4.16-8.46,8.72-8.21
		C250.35,246.65,253.94,250.58,253.77,255.03z"/>
	<path class="st3" d="M213.71,205.18c-0.02-4.71,3.36-8.16,8.05-8.22c4.75-0.06,8.63,3.74,8.51,8.34c-0.11,4.34-4.11,8.23-8.42,8.2
		C217.44,213.47,213.74,209.69,213.71,205.18z"/>
	<path class="st3" d="M190.14,254.74c-0.01-4.61,3.53-8.27,8.07-8.34c4.44-0.07,8.3,3.64,8.43,8.09c0.14,4.6-3.77,8.56-8.4,8.52
		C193.69,262.98,190.15,259.35,190.14,254.74z"/>
	<path class="st3" d="M389.98,389.1c-4.5-0.05-8.07-2.76-8.88-6.32c-0.9-3.97,0.45-7.2,3.98-9.24c5.05-2.93,10.3-5.51,15.27-8.54
		c11.95-7.3,22.69-16.09,31.82-26.77c2.29-2.68,4.97-4.53,8.7-3.71c6.76,1.49,8.79,8.72,4.07,14.34
		c-8.57,10.2-18.49,18.92-29.61,26.19c-6.74,4.4-13.83,8.26-20.83,12.24C392.86,388.23,390.95,388.73,389.98,389.1z"/>
</g>
<g class="st2">
	<path class="st3" d="M451.01,262.62c8.94,0.13,16.96,6.88,18.81,16.92c0.89,4.83,0.58,10.29-0.34,15.17
		c-5.43,28.56-19.22,51.33-37.85,70.57c-11.78,12.17-24.94,22.02-39.13,30.01c-2.52,1.42-3.56,2.97-3.47,6.3
		c0.16,5.97,0.19,12.02-0.44,17.94c-1.11,10.34-8.66,17.95-17.68,17.96c-57.39,0.07-114.77,0.08-172.16,0
		c-9.5-0.01-17.1-8.05-18-19.02c-0.47-5.67-0.39-11.42-0.26-17.13c0.07-2.94-0.81-4.46-3.1-5.73c-18-10.05-34.3-22.9-48.12-39.67
		c-15.04-18.25-25.76-39.21-29.93-64.2c-0.09-0.53-0.4-1-0.61-1.5c0-3.07,0-6.14,0-9.21c2.61-8.78,7.1-15.49,15.32-17.73
		c2.43-0.66,5.03-0.7,7.55-0.7c53.03-0.04,106.06-0.05,159.09,0.04L451.01,262.62z M374.48,400.6c-1.76,0-3.18,0-4.6,0
		c-51.09,0-102.17,0-153.26,0c-1.33,0-2.68,0.1-3.99-0.15c-3.4-0.63-5.99-3.85-6.29-7.6c-0.28-3.54,1.78-7.39,4.83-8.43
		c1.46-0.5,3.1-0.45,4.66-0.45c53.75-0.02,107.5-0.01,161.25-0.06c1.64,0,3.44-0.2,4.89-0.97c13.89-7.41,26.86-16.55,38.42-28.18
		c17.45-17.56,30.41-38.38,35.22-65.05c1.42-7.9-0.41-10.49-7.49-10.49c-21.43-0.01-42.85,0-64.28,0c-87.65,0-175.29,0-262.94,0.01
		c-6.51,0-8.54,2.94-7.25,10.13c3.92,21.98,13.6,40.31,27,56.2c13.91,16.51,30.46,28.67,48.54,38.17c4.05,2.13,5.91,5.35,5.83,10.41
		c-0.1,6.27-0.03,12.55-0.02,18.82c0.02,7.04,0.76,7.89,6.93,7.89c55.2,0,110.4,0,165.61,0c0.85,0,1.69-0.02,2.54-0.01
		c2.64,0.03,4.23-1.63,4.35-4.49C374.62,411.27,374.48,406.14,374.48,400.6z"/>
	<path class="st3" d="M376.23,367.95c-3.91-0.05-7.01-2.76-7.72-6.33c-0.79-3.97,0.39-7.21,3.46-9.26
		c4.39-2.93,8.96-5.52,13.28-8.56c10.39-7.31,19.73-16.11,27.67-26.81c1.99-2.68,4.32-4.54,7.57-3.72
		c5.88,1.49,7.65,8.74,3.54,14.36c-7.45,10.21-16.08,18.95-25.75,26.23c-5.86,4.41-12.03,8.27-18.11,12.26
		C378.73,367.07,377.07,367.57,376.23,367.95z"/>
	<path class="st3" d="M242.91,143.92c2.89,0.17,5.1,1.57,6.29,4.5c1.31,3.22,0.74,6.2-1.43,8.76c-3.49,4.12-4.59,8.94-2.99,14.2
		c0.66,2.18,2.01,4.26,3.45,5.97c9.59,11.4,9.98,28.25,0.83,39.95c-2.2,2.81-4.78,4.46-8.22,3.37c-5.25-1.66-6.82-8.3-3.01-12.93
		c3.44-4.18,4.57-8.95,2.97-14.21c-0.66-2.18-2.01-4.26-3.45-5.98c-9.54-11.33-10-28-0.99-39.75
		C238.08,145.56,240.03,143.82,242.91,143.92z"/>
	<path class="st3" d="M305.8,208.21c0.16,7.91-2.8,18.41-9.3,27.02c-3.24,4.3-8.4,4.21-11.6,0.14c-3.12-3.97-3.6-10.76-0.39-14.91
		c6.16-7.98,5.84-21.16-0.57-29.87c-11.52-15.65-10.99-41.56,0.49-56.63c4.76-6.25,12.07-4.23,14.08,3.94
		c0.99,3.99,0.22,7.53-1.8,10.69c-6.31,9.87-6.14,19.51,0.42,28.87C302.38,184.96,305.32,193.77,305.8,208.21z"/>
	<path class="st3" d="M339.83,143.95c1.7,0.08,3.93,1.44,5.16,4.35c1.35,3.2,0.85,6.21-1.31,8.77c-3.56,4.2-4.71,9.08-3.02,14.42
		c0.71,2.24,2.17,4.34,3.66,6.13c9.42,11.36,9.62,28.58,0.35,39.96c-2.55,3.12-5.34,4.12-8.32,2.96c-4.78-1.86-6.61-8.3-3.01-12.28
		c5.21-5.75,5.02-15.19-0.57-21.52c-9.54-10.81-9.3-28.27-0.18-39.44C334.22,145.32,336.07,143.88,339.83,143.95z"/>
</g>
<g class="st2">
	<path class="st3" d="M498.61,344.07c-1.65,4.64-2.78,9.54-5.04,13.86c-8.87,16.98-23.16,26.38-42.25,26.43
		c-99.42,0.26-198.84,0.12-298.25,0.09c-1.45,0-3.43,0.12-4.23-0.72c-1.63-1.68-3.46-3.9-3.66-6.04c-0.26-2.82,1.87-4.97,4.98-5.37
		c1.73-0.22,3.5-0.2,5.25-0.2c82.56-0.01,165.11-0.01,247.67-0.01c1.6,0,3.19,0,5.62,0c-1.15-1.4-1.8-2.28-2.54-3.08
		c-8.98-9.74-13.48-21.2-13.58-34.47c-0.5-70.97-50.61-131.39-120.16-144.96c-80.91-15.79-160.48,39.26-173.66,120.46
		c-1.62,10.01-2.48,20.45-1.55,30.48c1.36,14.67,10.44,24.39,24.25,29.48c5.97,2.2,8.04,4.71,6.68,8.62
		c-1.45,4.16-4.91,5.14-10.84,3.09c-19.88-6.88-33.09-25.46-33.14-46.58C84,259.6,137.58,193.43,211.23,178.07
		c1.59-0.33,3.48-1.96,4.17-3.47c10.87-23.6,39.29-30.6,59.81-14.71c1.06,0.82,3.21,1.15,4.46,0.69
		c24.61-9.14,46.5-5.39,65.42,13.33c0.87,0.86,2.21,1.61,3.4,1.75c36.89,4.32,68.54,19.56,95.13,45.43
		c0.87,0.84,1.78,1.68,2.46,2.67c1.96,2.86,1.66,5.7-0.83,8.01c-2.37,2.19-5.18,2.16-7.79,0.37c-1.32-0.9-2.37-2.19-3.53-3.31
		c-20.39-19.61-44.4-32.42-73.04-38.75c1.06,0.83,1.33,1.07,1.64,1.26c0.34,0.21,0.71,0.38,1.07,0.56
		c9.74,4.75,13.46,13.3,15.09,23.37c1.55,9.59,4.92,11.79,14.24,8.81c15.92-5.1,33.59,6.63,33.33,24.76
		c-0.06,4.16,0.97,6.35,4.03,8.87c9.67,7.98,14.91,18.56,16.5,30.25c8.76,1.67,17.25,3.29,25.97,4.96
		c-0.79-2.44-1.45-5.72-2.86-8.64c-4.98-10.27-10.36-20.35-15.25-30.66c-0.96-2.02-1.25-5.21-0.27-7.02c0.85-1.58,3.92-2.66,6-2.64
		c1.56,0.01,3.57,1.81,4.59,3.34c11.35,17.13,18.96,35.83,23.15,55.96c0.56,2.68,1.98,5.18,3.02,7.75
		c2.49,6.17,4.99,12.34,7.49,18.51C498.61,334.36,498.61,339.22,498.61,344.07z M386.83,261.07c12.02,23.46,17.72,48.16,18.21,74.34
		c0.34,18.43,11.97,32.39,29.28,35.69c7.15,1.36,14.8,1.09,22.11,0.41c17.61-1.62,32.19-20.58,29.83-38.01
		c-3-22.17-21.42-35.42-43.44-31.23c-4.96,0.94-7.94-1.56-8.15-6.67c-0.13-3.08-0.24-6.2-0.81-9.22
		C429.88,265.59,405.92,252.54,386.83,261.07z M345.39,210.37c1.16-15.29-6.15-28.79-19.55-36.17c-13.9-7.65-28.27-8.05-42.69-1.49
		c-5.41,2.46-10.12,2.14-14.47-2.02c-0.87-0.84-1.84-1.59-2.83-2.28c-14.18-9.92-31.23-2.7-35.99,6.86
		C272.81,172.05,311.2,183.52,345.39,210.37z M413.57,248.12c-0.11-6.76-4.74-12.16-10.8-12.53c-3-0.18-6.15,0.39-9.09,1.17
		c-13.07,3.43-24.55-3.78-26.92-17.09c-0.52-2.91-0.91-5.86-1.74-8.68c-1.04-3.56-3.14-6.35-6.75-7.63
		c-0.48,4.62-0.64,9.05-1.49,13.35c-0.48,2.41-0.01,3.78,1.58,5.6c6.11,6.98,12.12,14.06,17.8,21.39c4.36,5.62,4.13,5.87,10.82,4.02
		C395.77,245.3,404.52,245.75,413.57,248.12z"/>
	<path class="st3" d="M229.67,209.95c0.02,3.32-2.58,5.9-5.84,5.8c-3.12-0.09-5.48-2.56-5.49-5.73c-0.01-3.24,2.7-5.97,5.82-5.86
		C227.15,204.26,229.66,206.9,229.67,209.95z"/>
	<path class="st3" d="M359.1,337.41c0.08,2.96-2.46,5.66-5.47,5.83c-3.33,0.18-5.96-2.24-6.05-5.56c-0.08-3.22,2.17-5.63,5.38-5.78
		C356.24,331.75,359.02,334.25,359.1,337.41z"/>
	<path class="st3" d="M146.27,343.13c0.06,3.07-2.36,5.64-5.42,5.79c-3.38,0.16-5.9-2.19-5.96-5.56c-0.05-3.26,2.14-5.62,5.34-5.76
		C143.55,337.44,146.21,339.88,146.27,343.13z"/>
	<path class="st3" d="M302.51,349.41c0.05,3.17-2.7,5.96-5.83,5.9c-3.01-0.05-5.5-2.61-5.55-5.7c-0.05-3.25,2.18-5.67,5.36-5.81
		C299.78,343.65,302.46,346.14,302.51,349.41z"/>
	<path class="st3" d="M450.85,355.85c-1.47-1.18-3.87-2.22-4.61-3.97c-0.75-1.75-0.65-4.9,0.48-6.23
		c3.98-4.69,8.43-9.02,12.98-13.17c2.34-2.13,5.24-1.86,7.68,0.32c2.46,2.2,3.03,5.3,1.05,7.58c-4.29,4.95-9.12,9.43-13.84,14
		C453.9,355.04,452.66,355.16,450.85,355.85z"/>
	<path class="st3" d="M433.06,322.19c4.45,0.09,7.71,4.76,5.27,8.4c-2.24,3.36-5.32,6.43-8.66,8.7c-3.68,2.5-8.8-1.08-8.66-5.54
		C421.14,329.88,429.24,322.11,433.06,322.19z"/>
	<g class="st3">
		<path d="M167.36,315.01c-0.67-1.5-0.66-3.28,0.18-4.83l33.57-61.85c1.44-2.65,4.75-3.63,7.39-2.19c2.64,1.44,3.63,4.75,2.19,7.39
			l-33.57,61.85c-1.44,2.65-4.75,3.63-7.39,2.19C168.64,316.98,167.83,316.07,167.36,315.01z"/>
	</g>
	<g class="st3">
		<path d="M215.51,318.29c-0.67-1.5-0.66-3.28,0.18-4.83l33.57-61.85c1.44-2.65,4.75-3.63,7.39-2.19c2.64,1.44,3.63,4.75,2.19,7.39
			l-33.57,61.85c-1.44,2.65-4.75,3.63-7.39,2.19C216.79,320.26,215.98,319.34,215.51,318.29z"/>
	</g>
	<g class="st3">
		<path d="M263.44,318.29c-0.67-1.5-0.66-3.28,0.18-4.83l33.57-61.85c1.44-2.65,4.75-3.63,7.39-2.19c2.64,1.44,3.63,4.75,2.19,7.39
			l-33.57,61.85c-1.44,2.65-4.75,3.63-7.39,2.19C264.72,320.26,263.91,319.34,263.44,318.29z"/>
	</g>
</g>
<g class="st2">
	<path class="st3" d="M476.04,319.57c-0.62,2.41-1.22,4.84-1.88,7.24c-4.2,15.24-13.76,26.42-26.7,34.95
		c-14.9,9.81-31.57,14.95-48.94,18.08c-14.85,2.68-29.88,4.48-44.58,7.77c-16.81,3.76-32.3,11.33-47.72,18.86
		c-15.95,7.79-31.72,16.17-49.18,20.1c-50.91,11.46-94.81-0.49-129.23-40.76c-16.25-19.01-23.95-41.72-23.88-66.9
		c0.04-14.17,0.06-28.34,0-42.51c-0.18-40.54,18.66-69.33,54.29-87.6c19.25-9.87,39.99-14.79,61.34-17.53
		c20.99-2.69,42.03-2.75,63.07-1.3c21.25,1.47,42.26,4.73,63.02,9.52c4.81,1.11,7.48,4.89,6.51,8.88c-1.06,4.37-4.51,6.36-9.45,5.52
		c-14.88-2.53-29.68-5.76-44.66-7.35c-16.21-1.72-32.59-2.55-48.89-2.56c-20.35-0.02-40.53,2.53-60.14,8.37
		c-19.16,5.7-36.79,14.14-50.62,29.09c-11.59,12.53-17.51,27.52-19.32,44.4c-5.43,50.57,31.65,93.26,79.95,103.92
		c28.76,6.35,55.91,1.25,82.1-11.17c12.66-6,25.28-12.1,38.02-17.92c21.41-9.77,44.03-14.9,67.36-17.53
		c16.89-1.9,33.23-6.2,48.28-14.47c6.84-3.76,13.1-8.36,17.8-14.68c10.85-14.62,13.02-32.42-1.09-47.96
		c-10.1-11.12-22.48-19.03-35.58-25.98c-3.62-1.92-7.39-3.57-11.07-5.4c-4.69-2.34-6.36-6.36-4.36-10.35
		c1.94-3.87,6.05-5.08,10.59-2.98c16.64,7.72,32.55,16.62,45.92,29.42c8.98,8.59,16.14,18.32,18.55,30.89
		c0.04,0.2,0.31,0.35,0.47,0.52C476.04,281.29,476.04,300.43,476.04,319.57z M461.37,306.74c-2.88,2.57-5.26,4.94-7.88,7
		c-18.7,14.68-40.7,21.03-63.7,23.79c-23.82,2.86-46.85,8.02-68.61,18.28c-11.58,5.46-23.1,11.06-34.69,16.5
		c-25.97,12.19-53.03,17.94-81.73,13.41c-34.55-5.45-62.28-22.07-82.54-50.79c-0.62-0.88-1.23-1.77-1.85-2.66
		c-0.49,1.43-0.51,2.53-0.29,3.58c4.64,22.98,16.16,41.95,34.6,56.24c32.19,24.95,68.26,30.32,106.51,17.76
		c16.31-5.36,31.71-13.57,47.35-20.85c20.24-9.42,41.03-16.93,63.23-20.22c12.41-1.84,24.87-3.65,37.07-6.46
		c13.75-3.17,26.68-8.64,37.53-18.09C457.6,334.43,462.28,321.98,461.37,306.74z"/>
	<path class="st3" d="M265.67,212.76c-31.92,0.49-55.74,2.16-78.51,10.8c-8.19,3.11-15.83,7.19-22.56,12.87
		c-13.81,11.66-18.01,26.99-16.74,44.29c0.98,13.32,6.13,24.98,14.63,35.24c3.04,3.68,2.77,7.93-0.39,10.69
		c-3.12,2.73-7.62,2.28-10.67-1.06c-18.51-20.28-24.01-54.45-12.63-79.2c7.65-16.64,21.24-26.98,37.46-34.23
		c16.5-7.37,34.01-10.71,51.89-12.55c17.77-1.83,35.56-1.98,53.32-0.56c48.19,3.85,94.38,15.01,137.07,38.51
		c7.58,4.17,14.52,9.23,19.85,16.17c8.38,10.91,7.65,22.55-2.05,32.35c-7.22,7.29-16.27,11.64-25.66,15.32
		c-12.33,4.83-25.15,7.59-38.27,9.26c-24.45,3.1-47.36,11.15-69.59,21.56c-15.62,7.31-31.34,14.5-47.38,20.84
		c-12.15,4.81-25.19,5.59-38.24,4.91c-0.84-0.04-1.69-0.15-2.51-0.34c-4.21-0.95-6.47-3.99-6.09-8.11c0.36-3.78,3.7-6.84,7.87-6.42
		c20.55,2.03,39.02-4.58,57.22-13c17.74-8.21,35.53-16.41,53.68-23.62c16.56-6.58,34.16-9.37,51.82-11.69
		c14.61-1.92,28.5-6.55,41.04-14.47c11.82-7.48,12.19-13.29,1.71-22.56c-8.56-7.56-19.02-11.96-29.21-16.65
		c-26.85-12.35-55.13-20.06-84.34-24.02C291.61,214.81,274.71,213.65,265.67,212.76z"/>
	<path class="st3" d="M209.2,330.08c-9.54-0.14-18.36-2.23-25.89-8.18c-10.65-8.41-10.6-21.94,0.01-30.4
		c13.55-10.79,38.02-10.83,51.61-0.09c10.79,8.53,10.79,22.18-0.05,30.62C227.29,327.95,218.47,329.95,209.2,330.08z M209.19,298
		c-5.66,0.23-11.1,1.15-15.86,4.36c-4.3,2.9-4.28,5.7-0.11,8.7c7.87,5.67,24.16,5.65,31.99-0.05c4.12-3,4.08-5.83-0.23-8.7
		C220.19,299.13,214.75,298.24,209.19,298z"/>
	<g class="st3">
		<path d="M289.98,314.66c-1.85,0-3.69-0.83-4.91-2.41l-61.73-80.17c-2.09-2.71-1.58-6.6,1.13-8.68c2.71-2.08,6.6-1.58,8.68,1.13
			l61.73,80.17c2.09,2.71,1.58,6.6-1.13,8.68C292.63,314.24,291.3,314.66,289.98,314.66z"/>
	</g>
	<g class="st3">
		<path d="M326.16,298.14c-1.86,0-3.7-0.84-4.92-2.43l-48.57-63.44c-2.08-2.71-1.56-6.6,1.15-8.68c2.71-2.08,6.6-1.56,8.68,1.15
			l48.57,63.44c2.08,2.71,1.56,6.6-1.15,8.68C328.79,297.73,327.47,298.14,326.16,298.14z"/>
	</g>
	<g class="st3">
		<path d="M365.1,289.58c-1.9,0-3.77-0.87-4.99-2.51l-38.94-52.77c-2.03-2.75-1.45-6.63,1.31-8.66c2.75-2.03,6.63-1.45,8.66,1.31
			l38.94,52.77c2.03,2.75,1.45,6.63-1.31,8.66C367.66,289.18,366.37,289.58,365.1,289.58z"/>
	</g>
	<g class="st3">
		<path d="M395.66,279.4c-1.84,0-3.66-0.82-4.88-2.38l-20.25-25.91c-2.1-2.69-1.63-6.58,1.07-8.69c2.7-2.1,6.58-1.63,8.69,1.07
			l20.25,25.91c2.1,2.69,1.63,6.58-1.07,8.69C398.34,278.97,396.99,279.4,395.66,279.4z"/>
	</g>
</g>
<g class="st2">
	<g class="st3">
		<path d="M341.29,174.54h11.57l10.46,1.39l7.18,2.89c0,0,2.35,1.46,3.8,0.97c1.45-0.49,6.51-1.07,6.51-1.07l2.88,1.07l4.7-0.18
			c0,0,12.66-7.29,26.14,12.05c1.37,1.97,32.16,48.39,35.19,58.27c0.3,0.98,0.53,2.62,0.53,3.64c0.02,50.04,0.02,100.08,0.01,150.13
			c0,4.25-1.48,5.59-6.22,5.59c-101.85,0.01-203.71,0-305.56,0.04c-2.77,0-4.79-0.75-6.26-2.75c0-50.43,0-100.85,0-151.28
			c0-3.38,2-6.53,5.18-7.68c0.02-0.01,0.04-0.01,0.06-0.02c62.15-21.88,140.16-50.12,202.33-71.94 M141.7,311.79
			c7.69,0.98,13.01,5.67,18.91,9.62c6.44,4.31,14.79,4.15,21.34-0.07c2.16-1.4,4.15-3.01,6.25-4.48c9.6-6.74,22.07-7.31,32.3-1.36
			c2.75,1.6,5.19,3.6,7.8,5.37c7.38,5.01,16.15,4.9,23.35-0.27c1.52-1.09,3.01-2.23,4.52-3.32c10.73-7.75,24.4-7.88,35.34-0.33
			c1.71,1.18,3.34,2.44,5.03,3.64c7.47,5.3,16.02,5.34,23.57,0.1c1.7-1.18,3.34-2.44,5.03-3.63c10-7.05,22.37-7.57,33.06-1.28
			c2.39,1.41,4.54,3.15,6.79,4.75c7.59,5.42,16.55,5.39,24.09-0.07c1.52-1.1,3-2.23,4.52-3.32c9.76-7.02,22.31-7.67,32.79-1.57
			c2.92,1.7,5.49,3.85,8.35,5.64c1.77,1.11,3.78,1.93,6,3.04c0-22.98,0-45.29,0-67.82c-1.63,0-3.07,0-4.51,0
			c-66.15,0-132.3,0-198.46-0.01c-1.44,0-2.9-0.06-4.33-0.21c-2.57-0.28-3.84-1.76-3.91-3.89c-0.07-2.02,1.15-3.5,3.44-3.99
			c1.28-0.28,2.66-0.29,3.99-0.29c66.05-0.01,132.1-0.01,198.15-0.01c1.28,0,2.56,0,4.11,0c-4.88-13.05-17.61-31.79-26.95-42.25
			c0.66-3.65-0.69-11.73,0.19-16.05c0.66-3.24-9.17-11.43-24.07-12.59c-6.25-0.49-19.19,1.71-31.72-2.59
			c-7.03-2.41-10.9-1.27-17.28,0c-7.89,1.57-14.37,14.03-15.85,15.85c-54.65,19.18-105.33,37.79-160.27,57.07
			c15.63,0.56,31.05,0.55,46.47,0.58c1.33,0,2.71,0.06,3.97,0.4c2.27,0.61,3.26,2.12,3.05,4.19c-0.19,1.96-1.41,3.19-3.62,3.52
			c-1.32,0.2-2.67,0.26-4.01,0.26c-21.22,0.02-42.44,0.01-63.67,0.01c-1.2,0-2.41,0-3.76,0C141.7,275.01,141.7,293.24,141.7,311.79z
			 M440.82,360.85c-6.71-0.91-11.77-4.32-16.67-8.02c-8.25-6.25-16.98-6.28-25.5-0.18c-1.52,1.09-3,2.24-4.55,3.29
			c-10.42,7.05-23.37,7.16-33.84,0.27c-2.07-1.36-3.97-2.91-6-4.32c-7.08-4.91-15.69-5-22.87-0.21c-1.81,1.21-3.5,2.55-5.26,3.82
			c-9.87,7.12-22.43,7.75-33.03,1.54c-2.48-1.45-4.73-3.23-7.04-4.9c-7.36-5.3-16.48-5.32-23.84-0.04
			c-1.68,1.21-3.31,2.48-5.02,3.65c-10.45,7.16-23.21,7.42-33.84,0.65c-2.34-1.49-4.44-3.27-6.74-4.81
			c-6.83-4.56-15.24-4.59-22.11-0.08c-2.07,1.36-3.98,2.89-6.01,4.31c-9.79,6.82-22.16,7.35-32.53,1.25c-3-1.76-5.65-3.97-8.59-5.82
			c-1.66-1.05-3.59-1.77-5.65-2.77c0,17.85,0,35.07,0,52.39c99.78,0,199.38,0,299.09,0C440.82,387.53,440.82,374.38,440.82,360.85z
			 M440.86,332.51c-7.39-1.02-12.67-5.23-18.23-9.17c-7.04-4.99-15.67-4.82-22.84,0.1c-1.71,1.17-3.34,2.44-5.04,3.63
			c-10.42,7.34-22.9,7.79-33.82,1.12c-2.54-1.55-4.79-3.47-7.26-5.1c-6.73-4.44-14.79-4.52-21.61-0.22
			c-2.01,1.27-3.86,2.73-5.77,4.13c-9.84,7.17-22.38,7.87-33.03,1.7c-2.66-1.54-5.04-3.47-7.55-5.22
			c-7.14-4.99-15.96-5.02-23.12-0.05c-1.87,1.3-3.63,2.7-5.51,3.98c-10.42,7.12-23.25,7.32-33.86,0.49
			c-2.42-1.56-4.58-3.42-6.99-4.97c-6.63-4.28-14.72-4.3-21.36-0.07c-2.17,1.38-4.16,2.99-6.25,4.47c-9.64,6.8-22.01,7.43-32.28,1.5
			c-2.93-1.69-5.49-3.85-8.35-5.64c-1.86-1.16-3.95-2.04-6.41-3.29c0,6.73-0.04,12.72,0.06,18.71c0.01,0.61,0.73,1.66,1.29,1.76
			c6.72,1.18,11.53,5.06,16.58,8.68c7.11,5.11,15.78,5.17,23.08,0.26c1.89-1.27,3.65-2.68,5.5-3.99c9.58-6.79,22.03-7.43,32.3-1.52
			c2.67,1.53,5.06,3.44,7.56,5.2c7.53,5.29,16.37,5.26,23.83-0.1c1.6-1.15,3.16-2.35,4.78-3.48c10.82-7.55,24.26-7.55,35.09,0
			c1.78,1.24,3.49,2.57,5.28,3.8c7.1,4.91,15.65,4.95,22.84,0.1c1.89-1.27,3.68-2.65,5.51-3.98c7.44-5.39,16.11-7.02,25.02-4.45
			c5.1,1.47,9.9,4.51,14.04,7.65c7.26,5.5,18.31,5.7,25.12,0.03c1.27-1.06,2.68-2,4.04-2.98c9.91-7.13,22.39-7.79,33.05-1.59
			c2.92,1.7,5.48,3.87,8.33,5.66c1.73,1.08,3.71,1.84,6,2.95C440.86,345.47,440.86,339.12,440.86,332.51z M389.65,189.72"/>
		<path d="M138.47,412.03c-3.77,0-6.53-1.26-8.43-3.86l-0.52-0.71V255.29c0-4.61,2.8-8.72,6.97-10.22l0.2-0.07
			c29.55-10.41,63.48-22.53,96.29-34.26c33.48-11.97,68.03-24.31,98.78-35.14c2.14-1.8,4.52-3.21,7.11-3.72l1.51-0.31
			c5.6-1.15,10.02-2.05,17.17,0.4c0.87,0.3,1.75,0.57,2.63,0.8l4.16,0.64l1.12,0.45c5.97,0.89,11.72,0.71,16.29,0.57
			c2.67-0.08,4.98-0.16,6.86-0.01c2.85,0.22,5.55,0.69,8.05,1.33c3.05,0.36,6.64,1.51,10.46,4.23c2.93,1.72,5.16,3.63,6.51,5.42
			c0.54,0.72,0.95,1.43,1.21,2.12c0.64,0.81,1.28,1.67,1.92,2.59c0.31,0.45,32.32,48.46,35.56,59.02c0.37,1.21,0.65,3.12,0.65,4.44
			c0.02,50.04,0.02,100.08,0.01,150.12c0,7.35-4.77,8.29-8.93,8.29l-62.68,0c-80.96,0-161.92,0-242.88,0.04
			C138.48,412.03,138.47,412.03,138.47,412.03z M134.92,405.57c0.69,0.65,1.69,1.05,3.54,1.05c0,0,0.01,0,0.01,0
			c80.96-0.04,161.92-0.04,242.88-0.04l62.68,0c3.52,0,3.52-0.38,3.52-2.88c0-50.04,0.01-100.08-0.01-150.12
			c0-0.77-0.2-2.16-0.41-2.85c-2.38-7.77-24.38-41.73-32.18-53.55c0.02,0.43,0.04,0.86,0.06,1.28c0.11,2.36,0.23,4.61,0.09,6.44
			c9.5,10.89,21.82,29.27,26.65,42.18l1.36,3.65H413.1c-58.71,0-117.42,0-176.13,0.01c-1.23,0-2.42,0.02-3.42,0.23
			c-1.34,0.29-1.32,0.86-1.3,1.25c0.02,0.56,0.04,1.14,1.5,1.3c1.24,0.13,2.56,0.2,4.04,0.2c66.15,0.01,132.3,0.01,198.46,0.01h7.21
			v74.9l-3.91-1.96c-0.69-0.35-1.36-0.66-2.01-0.97c-1.48-0.7-2.88-1.36-4.22-2.2c-1.35-0.84-2.62-1.75-3.85-2.64
			c-1.5-1.07-2.92-2.08-4.42-2.96c-9.5-5.53-20.94-4.98-29.85,1.43c-0.8,0.58-1.6,1.16-2.39,1.75c-0.71,0.52-1.42,1.05-2.13,1.56
			c-8.5,6.16-18.68,6.19-27.24,0.08c-0.67-0.48-1.34-0.97-2-1.46c-1.55-1.15-3.02-2.24-4.59-3.16c-9.72-5.72-20.98-5.29-30.13,1.16
			c-0.77,0.54-1.52,1.09-2.27,1.65c-0.92,0.67-1.84,1.35-2.78,2c-8.52,5.91-18.24,5.86-26.68-0.12c-0.74-0.53-1.48-1.07-2.21-1.6
			c-0.92-0.68-1.85-1.36-2.79-2.01c-10.03-6.92-22.38-6.81-32.22,0.3c-0.7,0.51-1.4,1.03-2.1,1.54c-0.81,0.6-1.61,1.2-2.43,1.79
			c-8.2,5.87-18.08,5.98-26.45,0.3c-0.97-0.66-1.92-1.35-2.86-2.03c-1.62-1.18-3.15-2.29-4.78-3.24
			c-9.31-5.43-20.57-4.95-29.38,1.24c-0.8,0.56-1.58,1.14-2.36,1.72c-1.27,0.94-2.58,1.92-3.97,2.82
			c-7.55,4.86-17.09,4.88-24.31,0.05c-1.05-0.7-2.09-1.43-3.12-2.16c-4.6-3.24-8.95-6.3-14.63-7.02l-2.36-0.3v-60.45h16.26
			c17.97,0,35.92,0,53.87-0.01c1.4,0,2.58-0.08,3.61-0.23c1.23-0.18,1.28-0.64,1.33-1.11c0.06-0.64,0.05-1.02-1.06-1.32
			c-1-0.27-2.21-0.31-3.27-0.31l-2.82-0.01c-14.27-0.02-29.02-0.04-43.74-0.57l-14.31-0.51l13.51-4.74
			c27.52-9.66,54.4-19.3,80.39-28.63c25.6-9.18,52.06-18.68,79.06-28.15c0.2-0.31,0.45-0.7,0.68-1.05c0.58-0.9,1.29-2.01,2.11-3.21
			c-28.42,10.03-59.55,21.16-89.83,31.98c-32.82,11.73-66.75,23.86-96.43,34.31c-2.07,0.74-3.43,2.81-3.43,5.15V405.57z
			 M274.04,308.62c6.55,0,13.11,2.03,19.01,6.1c0.99,0.68,1.96,1.39,2.93,2.1c0.71,0.52,1.42,1.04,2.13,1.55
			c6.56,4.65,13.83,4.68,20.47,0.08c0.9-0.63,1.78-1.27,2.66-1.92c0.78-0.57,1.56-1.15,2.36-1.71c10.93-7.71,24.39-8.23,35.99-1.4
			c1.82,1.07,3.46,2.29,5.06,3.47c0.64,0.47,1.28,0.94,1.92,1.4c6.68,4.76,14.31,4.74,20.93-0.06c0.7-0.51,1.39-1.02,2.08-1.53
			c0.81-0.6,1.63-1.2,2.45-1.8c10.67-7.67,24.36-8.33,35.73-1.71c1.73,1.01,3.31,2.14,4.85,3.24c1.22,0.87,2.37,1.7,3.58,2.45
			c0.58,0.36,1.19,0.69,1.86,1.03v-60.81h-1.8c-66.15,0-132.3,0-198.46-0.01c-1.67,0-3.18-0.08-4.62-0.23
			c-3.77-0.4-6.2-2.89-6.33-6.48c-0.12-3.39,2.01-5.96,5.57-6.73c1.52-0.33,3.02-0.35,4.56-0.35c58.71-0.01,117.42-0.01,176.13-0.01
			h22.09c-5.51-12.36-16.52-28.32-24.93-37.74l-0.88-0.99l0.24-1.3c0.25-1.4,0.12-4.03,0-6.58c-0.15-3.14-0.31-6.37,0.09-8.92
			c-1.84-2.19-3.63-3.86-5.33-5.13c-2.37-1.38-5.46-2.73-9.15-3.67c-3.27-0.2-5.32,0.88-5.51,0.99l-0.56,0.31l-0.66,0.04l-5.23,0.2
			l-2.78-1.03c-2.17,0.26-4.65,0.64-5.31,0.86c-2.27,0.78-4.86-0.5-5.88-1.1l-5.26-2.12c-1.62-0.26-3.27-0.6-4.92-1.03l-6.42-0.85
			h-11.39v-0.33l-0.98,0.2l0.38,1.09c-2.04,0.71-4.09,1.44-6.16,2.17c-3.24,3.01-6,7.32-7.47,9.62c-0.64,1.01-1.07,1.67-1.43,2.12
			l-0.48,0.59l-0.72,0.25c-27.26,9.57-53.99,19.16-79.84,28.43c-21.62,7.76-43.86,15.73-66.57,23.76c9.74,0.16,19.43,0.18,28.9,0.19
			l2.82,0.01c1.41,0,3.06,0.06,4.67,0.49c3.45,0.93,5.38,3.64,5.04,7.07c-0.32,3.21-2.53,5.42-5.91,5.93
			c-1.3,0.19-2.74,0.29-4.41,0.29c-17.95,0.01-35.92,0.01-53.87,0.01H144.4v50.39c5.83,1.31,10.32,4.48,14.69,7.55
			c1,0.7,2,1.41,3.02,2.09c5.43,3.63,12.64,3.59,18.37-0.1c1.24-0.8,2.43-1.68,3.68-2.61c0.82-0.61,1.64-1.22,2.48-1.81
			c10.56-7.41,24.05-7.98,35.21-1.48c1.87,1.09,3.58,2.33,5.24,3.54c0.9,0.65,1.8,1.31,2.72,1.93c6.42,4.35,13.99,4.27,20.26-0.22
			c0.79-0.57,1.58-1.15,2.36-1.73c0.71-0.53,1.43-1.06,2.15-1.58C260.55,310.78,267.29,308.62,274.04,308.62z M443.52,403.57h-304.5
			v-59.4l3.88,1.87c0.63,0.31,1.26,0.59,1.86,0.86c1.42,0.64,2.76,1.24,4.05,2.06c1.39,0.87,2.71,1.82,3.99,2.73
			c1.54,1.1,2.98,2.13,4.53,3.04c9.36,5.51,20.71,5.07,29.61-1.13c0.82-0.57,1.62-1.16,2.42-1.76c1.17-0.86,2.38-1.76,3.65-2.59
			c7.76-5.1,17.38-5.07,25.09,0.09c1.09,0.73,2.13,1.51,3.18,2.28c1.2,0.89,2.33,1.73,3.52,2.49c9.72,6.19,21.26,5.97,30.86-0.6
			c1.02-0.7,2.01-1.43,2.99-2.16c0.65-0.49,1.31-0.97,1.98-1.45c8.32-5.97,18.67-5.96,27,0.04c0.58,0.42,1.15,0.84,1.73,1.27
			c1.72,1.27,3.35,2.47,5.1,3.49c9.58,5.61,21.11,5.08,30.08-1.4c0.61-0.44,1.22-0.9,1.83-1.35c1.15-0.86,2.31-1.72,3.51-2.52
			c8.04-5.36,17.97-5.28,25.91,0.23c0.9,0.62,1.77,1.27,2.65,1.93c1.08,0.8,2.16,1.61,3.29,2.35c9.53,6.26,21.34,6.17,30.84-0.25
			c0.95-0.64,1.87-1.32,2.79-2c0.57-0.42,1.13-0.84,1.7-1.24c9.55-6.84,19.47-6.76,28.71,0.22c4.59,3.47,9.22,6.66,15.4,7.5
			l2.34,0.32V403.57z M144.43,398.16h293.68v-35.05c-6.3-1.4-11.15-4.76-15.59-8.13c-7.25-5.49-14.75-5.54-22.29-0.14
			c-0.55,0.39-1.1,0.8-1.64,1.2c-0.98,0.72-1.96,1.45-2.97,2.13c-11.34,7.67-25.46,7.78-36.84,0.29c-1.24-0.82-2.41-1.69-3.55-2.53
			c-0.83-0.62-1.66-1.23-2.51-1.82c-6.17-4.28-13.58-4.35-19.82-0.18c-1.12,0.75-2.2,1.56-3.28,2.36c-0.63,0.47-1.26,0.94-1.9,1.4
			c-10.74,7.74-24.52,8.39-35.98,1.68c-1.99-1.17-3.82-2.51-5.58-3.81c-0.56-0.41-1.12-0.82-1.68-1.23
			c-6.39-4.6-14.32-4.61-20.69-0.04c-0.64,0.46-1.28,0.93-1.91,1.4c-1.04,0.77-2.08,1.54-3.16,2.28
			c-11.44,7.83-25.21,8.1-36.83,0.69c-1.36-0.86-2.62-1.8-3.84-2.71c-0.97-0.72-1.94-1.45-2.95-2.12
			c-5.97-3.99-13.12-4.01-19.12-0.07c-1.15,0.75-2.25,1.56-3.41,2.42c-0.84,0.62-1.68,1.24-2.54,1.84
			c-10.66,7.43-24.24,7.95-35.45,1.36c-1.75-1.03-3.36-2.18-4.93-3.3c-1.27-0.91-2.47-1.77-3.73-2.55
			c-0.47-0.29-0.97-0.56-1.51-0.83V398.16z M443.56,356.94l-3.88-1.88c-0.72-0.35-1.41-0.66-2.07-0.96
			c-1.48-0.67-2.87-1.3-4.19-2.13c-1.36-0.85-2.64-1.77-3.88-2.67c-1.48-1.07-2.89-2.08-4.38-2.95c-9.74-5.65-20.99-5.12-30.11,1.45
			l-1.03,0.73c-1.02,0.72-1.98,1.4-2.86,2.13c-7.62,6.35-20.13,6.38-28.49,0.05c-4.89-3.71-9.19-6.06-13.15-7.21
			c-8-2.31-15.84-0.91-22.68,4.04l-1.67,1.23c-1.29,0.95-2.58,1.9-3.91,2.8c-8.15,5.49-17.82,5.45-25.89-0.12
			c-0.95-0.65-1.87-1.33-2.8-2.01c-0.82-0.61-1.65-1.21-2.49-1.8c-9.87-6.88-22.13-6.89-32-0.01c-0.93,0.65-1.83,1.32-2.74,1.98
			c-0.67,0.49-1.34,0.99-2.01,1.47c-8.4,6.03-18.48,6.08-26.96,0.12c-0.73-0.51-1.45-1.03-2.16-1.55c-1.76-1.28-3.41-2.49-5.2-3.51
			c-9.34-5.37-20.6-4.84-29.39,1.39c-0.74,0.52-1.46,1.07-2.19,1.61c-1.11,0.82-2.21,1.65-3.37,2.42
			c-8.33,5.6-18.11,5.49-26.17-0.31l-1.43-1.04c-4.4-3.2-8.56-6.22-14.03-7.18c-1.99-0.35-3.5-2.6-3.53-4.38
			c-0.08-4.66-0.07-9.36-0.06-14.32l0-8.82l3.92,1.98c0.78,0.39,1.51,0.75,2.22,1.09c1.55,0.75,3.02,1.46,4.41,2.32
			c1.34,0.84,2.61,1.75,3.84,2.63c1.5,1.08,2.92,2.09,4.43,2.96c9.31,5.37,20.56,4.84,29.37-1.37c0.76-0.54,1.5-1.09,2.24-1.64
			c1.31-0.97,2.67-1.98,4.12-2.91c7.5-4.77,16.81-4.75,24.28,0.08c1.28,0.83,2.48,1.72,3.64,2.59c1.14,0.85,2.22,1.65,3.35,2.38
			c9.75,6.27,21.29,6.11,30.87-0.45c0.96-0.66,1.89-1.35,2.83-2.04c0.88-0.65,1.76-1.31,2.67-1.93c8.09-5.62,18.13-5.6,26.21,0.05
			c0.8,0.56,1.58,1.13,2.37,1.71c1.68,1.23,3.28,2.4,4.98,3.39c9.75,5.65,21,5.07,30.09-1.54c0.51-0.37,1.01-0.74,1.51-1.12
			c1.4-1.04,2.85-2.13,4.41-3.11c7.74-4.88,16.91-4.79,24.54,0.24c1.13,0.74,2.22,1.55,3.3,2.35c1.32,0.98,2.57,1.9,3.89,2.7
			c10,6.11,21.25,5.74,30.85-1.02c0.73-0.51,1.44-1.04,2.16-1.56c0.96-0.7,1.92-1.41,2.91-2.08c8.15-5.61,18.1-5.64,25.94-0.08
			l1.51,1.08c4.86,3.48,9.46,6.77,15.52,7.61l2.33,0.32V356.94z M205.37,337.05c5.59,0,11.21,1.46,16.34,4.41
			c2.03,1.17,3.89,2.52,5.68,3.83c0.69,0.5,1.39,1.01,2.09,1.5c6.61,4.64,14.16,4.61,20.7-0.09c0.66-0.47,1.31-0.95,1.95-1.43
			c0.95-0.7,1.89-1.39,2.86-2.07c11.77-8.21,26.4-8.21,38.18,0.01c0.88,0.61,1.74,1.24,2.6,1.87c0.88,0.65,1.77,1.3,2.67,1.92
			c6.16,4.26,13.56,4.29,19.79,0.08c1.27-0.86,2.5-1.77,3.73-2.67l1.71-1.26c8.24-5.97,17.7-7.64,27.36-4.86
			c4.61,1.33,9.49,3.98,14.92,8.09c6.43,4.87,15.99,4.92,21.75,0.11c1.04-0.87,2.14-1.65,3.2-2.4l0.99-0.7
			c10.74-7.73,24.53-8.39,35.99-1.73c1.72,1,3.3,2.14,4.82,3.24c1.22,0.88,2.38,1.71,3.59,2.47c0.57,0.36,1.19,0.68,1.86,1.01
			v-13.63c-6.21-1.42-10.97-4.83-15.59-8.14l-1.49-1.07c-6.03-4.27-13.41-4.22-19.75,0.12c-0.94,0.64-1.85,1.32-2.77,1.99
			c-0.74,0.55-1.49,1.09-2.24,1.63c-11.28,7.94-25.03,8.4-36.79,1.22c-1.52-0.93-2.93-1.97-4.28-2.97
			c-1.01-0.74-2.01-1.49-3.06-2.18c-5.81-3.83-12.79-3.9-18.68-0.19c-1.38,0.87-2.68,1.84-4.07,2.87c-0.52,0.39-1.04,0.77-1.56,1.15
			c-10.71,7.8-24.49,8.51-35.98,1.85c-1.96-1.13-3.74-2.44-5.47-3.7c-0.75-0.55-1.51-1.1-2.27-1.64
			c-6.18-4.32-13.85-4.33-20.03-0.04c-0.86,0.6-1.69,1.21-2.53,1.84c-0.99,0.73-1.98,1.46-2.99,2.16
			c-11.27,7.71-25.39,7.91-36.85,0.53c-1.29-0.83-2.49-1.73-3.65-2.6c-1.14-0.85-2.21-1.65-3.34-2.38
			c-5.77-3.72-12.67-3.74-18.45-0.06c-1.29,0.82-2.51,1.72-3.8,2.68c-0.78,0.58-1.56,1.16-2.35,1.72
			c-10.56,7.45-24.04,8.07-35.2,1.64c-1.74-1-3.33-2.14-4.87-3.25c-1.21-0.87-2.36-1.69-3.56-2.44c-0.7-0.44-1.46-0.84-2.28-1.25
			v0.1c-0.01,4.7-0.01,9.15,0.05,13.55c6.22,1.33,10.86,4.69,15.34,7.95l1.41,1.02c6.15,4.42,13.62,4.5,19.99,0.21
			c1.08-0.73,2.12-1.5,3.16-2.27c0.76-0.56,1.52-1.13,2.29-1.68C192.2,339.09,198.77,337.05,205.37,337.05z M144.32,338.58
			C144.32,338.58,144.32,338.58,144.32,338.58C144.32,338.58,144.32,338.58,144.32,338.58z"/>
	</g>
	<g class="st3">
		<path d="M315.19,274.13c2.42,0.04,4.27,1.93,4.26,4.34c-0.01,2.39-1.9,4.32-4.28,4.35c-2.48,0.03-4.48-2.02-4.41-4.51
			C310.83,275.91,312.77,274.09,315.19,274.13z"/>
		<path d="M315.1,285.52c-1.9,0-3.68-0.75-5.02-2.11c-1.35-1.37-2.09-3.26-2.03-5.19c0.12-3.88,3.22-6.83,7.18-6.8
			c3.89,0.06,6.93,3.16,6.92,7.05c-0.01,3.9-3.06,7-6.95,7.05C315.17,285.52,315.13,285.52,315.1,285.52z M315.11,276.83
			c-0.93,0-1.62,0.65-1.65,1.56c-0.01,0.46,0.16,0.9,0.48,1.23c0.32,0.32,0.78,0.52,1.19,0.49c0.9-0.01,1.61-0.74,1.61-1.65
			c0-0.93-0.67-1.61-1.6-1.63h0C315.13,276.83,315.12,276.83,315.11,276.83z"/>
	</g>
	<g class="st3">
		<path d="M389.48,274.09c-2.27,0.06-4.41-1.93-4.52-4.2c-0.12-2.29,1.82-4.37,4.17-4.49c2.55-0.13,4.55,1.75,4.57,4.27
			C393.71,272.08,391.84,274.04,389.48,274.09z"/>
		<path d="M389.38,276.8c-3.7,0-6.94-3.07-7.13-6.77c-0.09-1.8,0.55-3.57,1.81-4.96c1.27-1.41,3.07-2.27,4.93-2.36
			c2-0.11,3.84,0.57,5.24,1.89c1.38,1.31,2.15,3.11,2.17,5.06c0.03,3.91-2.98,7.04-6.85,7.14h0
			C389.49,276.8,389.43,276.8,389.38,276.8z M389.37,268.1c-0.04,0-0.07,0-0.11,0c-0.43,0.02-0.86,0.24-1.18,0.59
			c-0.29,0.32-0.44,0.7-0.42,1.06c0.04,0.79,0.94,1.64,1.73,1.64c0.01,0,0.02,0,0.03,0c0.89-0.02,1.58-0.77,1.58-1.69
			c0-0.48-0.17-0.88-0.47-1.17C390.22,268.25,389.83,268.1,389.37,268.1z"/>
	</g>
	<g class="st3">
		<path d="M275.81,295.94c2.36,0.01,4.33,1.95,4.37,4.29c0.03,2.47-2.03,4.47-4.53,4.4c-2.41-0.07-4.2-1.97-4.16-4.42
			C271.53,297.78,273.39,295.94,275.81,295.94z"/>
		<path d="M275.77,307.34c-0.07,0-0.14,0-0.2,0c-3.86-0.11-6.85-3.26-6.79-7.17c0.06-3.89,3.14-6.93,7.01-6.93c0.01,0,0.01,0,0.02,0
			h0c3.84,0.01,7.01,3.13,7.06,6.96c0.03,1.93-0.72,3.74-2.1,5.1C279.45,306.6,277.64,307.34,275.77,307.34z M275.79,298.65
			c-0.93,0-1.59,0.66-1.6,1.61c-0.02,0.98,0.6,1.65,1.54,1.68c0.54-0.01,0.92-0.16,1.26-0.49c0.18-0.18,0.49-0.58,0.49-1.17
			C277.46,299.4,276.69,298.65,275.79,298.65C275.8,298.65,275.8,298.65,275.79,298.65z"/>
	</g>
	<g class="st3">
		<path d="M354.39,300.23c0.04-2.33,2.04-4.28,4.39-4.29c2.54-0.01,4.41,1.96,4.31,4.55c-0.09,2.43-1.99,4.21-4.44,4.14
			C356.3,304.57,354.36,302.57,354.39,300.23z"/>
		<path d="M358.79,307.34c-0.07,0-0.14,0-0.2,0c-3.86-0.11-6.95-3.31-6.89-7.14l0,0c0.06-3.82,3.24-6.94,7.09-6.95
			c0.01,0,0.01,0,0.02,0c1.95,0,3.74,0.74,5.04,2.1c1.33,1.38,2.03,3.24,1.96,5.25C365.66,304.41,362.6,307.34,358.79,307.34z
			 M357.1,300.28c-0.01,0.86,0.75,1.63,1.64,1.65c0.99-0.03,1.63-0.59,1.66-1.54c0.02-0.53-0.13-0.98-0.44-1.3
			c-0.28-0.29-0.68-0.45-1.16-0.45c0,0-0.01,0-0.01,0C357.92,298.65,357.11,299.43,357.1,300.28L357.1,300.28z"/>
	</g>
	<g class="st3">
		<path d="M254.07,274.09c-2.39,0.07-4.34-1.77-4.42-4.18c-0.09-2.48,1.63-4.39,4.05-4.5c2.52-0.12,4.62,1.81,4.66,4.26
			C258.39,271.92,256.36,274.02,254.07,274.09z"/>
		<path d="M253.94,276.79c-3.8,0-6.85-2.94-6.99-6.79c-0.14-3.98,2.7-7.12,6.62-7.3c1.9-0.1,3.87,0.61,5.28,1.94
			c1.4,1.31,2.18,3.08,2.21,4.99c0.05,3.71-3.17,7.06-6.91,7.17C254.08,276.79,254.01,276.79,253.94,276.79z M253.92,268.1
			c-0.03,0-0.06,0-0.09,0c-0.94,0.05-1.51,0.7-1.47,1.71c0.03,0.93,0.67,1.55,1.64,1.58l0,0c0.8-0.02,1.67-0.9,1.66-1.68
			c-0.01-0.43-0.18-0.83-0.51-1.13C254.82,268.27,254.38,268.1,253.92,268.1z"/>
	</g>
	<g class="st3">
		<path d="M214.69,287.1c0.06,2.24-1.97,4.36-4.27,4.44c-2.39,0.08-4.38-1.75-4.48-4.13c-0.11-2.53,1.8-4.55,4.31-4.56
			C212.58,282.85,214.62,284.8,214.69,287.1z"/>
		<path d="M210.27,294.25c-3.73,0-6.86-2.96-7.03-6.72c-0.09-1.97,0.6-3.83,1.93-5.23c1.32-1.39,3.13-2.15,5.08-2.16
			c0,0,0.01,0,0.01,0c3.77,0,7.04,3.15,7.14,6.88l0,0c0.1,3.71-3.11,7.08-6.87,7.21C210.43,294.25,210.35,294.25,210.27,294.25z
			 M210.26,285.56C210.25,285.56,210.25,285.56,210.26,285.56c-0.59,0-0.97,0.26-1.18,0.48c-0.31,0.32-0.46,0.77-0.44,1.25
			c0.04,0.88,0.75,1.55,1.63,1.55c0.02,0,0.04,0,0.06,0c0.81-0.03,1.68-0.9,1.66-1.66l0,0
			C211.96,286.34,211.12,285.56,210.26,285.56z"/>
	</g>
	<g class="st3">
		<path d="M411.17,300.08c0.15-2.42,2.39-4.34,4.82-4.13c2.35,0.2,4.06,2.26,3.88,4.68c-0.17,2.41-2.15,4.13-4.57,3.99
			C413,304.5,411.03,302.33,411.17,300.08z"/>
		<path d="M415.58,307.34c-0.14,0-0.29-0.01-0.43-0.01c-1.83-0.1-3.61-0.99-4.88-2.42c-1.25-1.4-1.9-3.22-1.79-4.98l0,0
			c0.11-1.87,1.02-3.66,2.47-4.92c1.47-1.27,3.39-1.91,5.28-1.74c3.84,0.33,6.63,3.66,6.35,7.57
			C422.31,304.56,419.27,307.34,415.58,307.34z M413.87,300.25c-0.02,0.33,0.14,0.73,0.44,1.06c0.32,0.36,0.75,0.6,1.15,0.62
			c0.9,0.04,1.65-0.56,1.72-1.48c0.07-0.95-0.54-1.72-1.42-1.8c-0.44-0.03-0.91,0.12-1.28,0.45
			C414.12,299.41,413.9,299.83,413.87,300.25L413.87,300.25z"/>
	</g>
	<g class="st3">
		<path d="M192.83,370.28c-0.06,2.35-2.05,4.24-4.44,4.23c-2.51-0.01-4.45-2.06-4.31-4.56c0.13-2.34,2.24-4.29,4.5-4.19
			C190.84,365.88,192.89,368.06,192.83,370.28z"/>
		<path d="M188.41,377.22c-0.01,0-0.02,0-0.03,0c-1.97-0.01-3.78-0.79-5.11-2.2c-1.33-1.41-1.99-3.26-1.88-5.21
			c0.22-3.82,3.56-6.91,7.33-6.73c3.73,0.17,6.93,3.58,6.83,7.28l0,0C195.44,374.15,192.24,377.22,188.41,377.22z M188.4,368.48
			c-0.77,0-1.57,0.81-1.62,1.64c-0.03,0.46,0.12,0.88,0.42,1.2c0.3,0.32,0.73,0.5,1.19,0.5c0,0,0.01,0,0.01,0
			c0.93,0,1.7-0.72,1.73-1.6c0.02-0.76-0.89-1.7-1.68-1.74C188.44,368.48,188.42,368.48,188.4,368.48z"/>
	</g>
	<g class="st3">
		<path d="M332.53,383.22c0.04,2.44-1.76,4.32-4.18,4.39c-2.42,0.06-4.39-1.73-4.5-4.1c-0.11-2.39,1.99-4.63,4.36-4.63
			C330.51,378.87,332.5,380.87,332.53,383.22z"/>
		<path d="M328.23,390.31c-3.81,0-6.9-2.9-7.07-6.68c-0.09-1.88,0.65-3.79,2.01-5.22c1.35-1.42,3.19-2.23,5.04-2.24
			c0,0,0.01,0,0.01,0c3.75,0,6.96,3.21,7.03,7.01v0c0.06,3.9-2.93,7.03-6.81,7.13C328.36,390.31,328.29,390.31,328.23,390.31z
			 M328.21,381.57C328.21,381.57,328.21,381.57,328.21,381.57c-0.38,0-0.8,0.21-1.13,0.56c-0.35,0.37-0.54,0.83-0.53,1.24
			c0.04,0.88,0.76,1.52,1.68,1.52c0.02,0,0.03,0,0.05,0c0.94-0.02,1.56-0.68,1.54-1.64l0,0
			C329.82,382.39,329.03,381.57,328.21,381.57z"/>
	</g>
	<g class="st3">
		<path d="M297.63,370.17c0.01,2.4-1.86,4.28-4.28,4.33c-2.46,0.04-4.34-1.73-4.4-4.16c-0.07-2.49,1.95-4.6,4.37-4.57
			C295.59,365.81,297.62,367.87,297.63,370.17z"/>
		<path d="M293.26,377.2c-3.9,0-6.9-2.89-7.01-6.79c-0.05-1.95,0.7-3.86,2.07-5.25c1.33-1.35,3.08-2.09,4.94-2.09
			c0.03,0,0.07,0,0.1,0c3.77,0.05,6.96,3.3,6.98,7.09l0,0c0.02,3.88-3.03,6.98-6.94,7.04C293.35,377.2,293.3,377.2,293.26,377.2z
			 M293.26,368.48c-0.53,0-0.91,0.3-1.09,0.48c-0.35,0.35-0.53,0.82-0.52,1.3c0.03,0.93,0.66,1.53,1.61,1.53c0.01,0,0.03,0,0.04,0
			c0.95-0.02,1.63-0.69,1.63-1.61l0,0c0-0.82-0.85-1.69-1.65-1.7C293.27,368.48,293.27,368.48,293.26,368.48z"/>
	</g>
	<g class="st3">
		<path d="M424.3,370.1c0.05,2.41-1.78,4.33-4.19,4.4c-2.52,0.07-4.61-1.92-4.58-4.36c0.03-2.24,2.17-4.36,4.4-4.37
			C422.22,365.75,424.25,367.77,424.3,370.1z"/>
		<path d="M419.99,377.21c-1.9,0-3.74-0.75-5.09-2.08c-1.37-1.35-2.1-3.14-2.07-5.03c0.06-3.73,3.37-7.01,7.09-7.04
			c0.01,0,0.03,0,0.04,0c3.74,0,6.96,3.19,7.05,6.98c0.08,3.91-2.91,7.05-6.82,7.16C420.12,377.21,420.05,377.21,419.99,377.21z
			 M419.96,368.47C419.96,368.47,419.95,368.47,419.96,368.47c-0.77,0.01-1.71,0.95-1.72,1.71c-0.01,0.55,0.29,0.92,0.47,1.1
			c0.35,0.35,0.83,0.52,1.33,0.52c0.92-0.03,1.58-0.71,1.56-1.64l0,0C421.58,369.31,420.77,368.47,419.96,368.47z"/>
	</g>
	<g class="st3">
		<path d="M384.96,383.24c2.33-0.03,4.29,1.91,4.35,4.31c0.06,2.44-1.72,4.36-4.13,4.44c-2.49,0.09-4.62-1.93-4.6-4.35
			C380.6,385.41,382.73,383.27,384.96,383.24z"/>
		<path d="M385.04,394.7c-1.86,0-3.69-0.74-5.03-2.05c-1.39-1.35-2.14-3.14-2.12-5.03c0.03-3.72,3.32-7.03,7.04-7.08
			c0.03,0,0.07,0,0.1,0c3.77,0,6.9,3.1,6.99,6.95c0.1,3.91-2.86,7.07-6.74,7.21C385.2,394.7,385.11,394.7,385.04,394.7z
			 M385.02,385.95c-0.01,0-0.01,0-0.02,0h0c-0.76,0.01-1.7,0.96-1.71,1.72c-0.01,0.55,0.3,0.93,0.49,1.11
			c0.35,0.34,0.81,0.51,1.31,0.51c0.92-0.03,1.54-0.72,1.52-1.67C386.58,386.71,385.86,385.95,385.02,385.95z"/>
	</g>
	<g class="st3">
		<path d="M240.86,387.6c2.21,0.01,4.36,2.14,4.4,4.37c0.05,2.41-2.08,4.45-4.56,4.39c-2.39-0.06-4.2-1.98-4.15-4.41
			C236.59,389.56,238.54,387.59,240.86,387.6z"/>
		<path d="M240.81,399.07c-0.06,0-0.13,0-0.19,0c-3.88-0.1-6.86-3.25-6.79-7.16c0.07-3.87,3.2-7,6.99-7c0.01,0,0.03,0,0.04,0h0
			c3.7,0.02,7.02,3.3,7.09,7.02c0.03,1.86-0.73,3.7-2.08,5.05C244.52,398.31,242.69,399.07,240.81,399.07z M240.83,390.31
			c-0.83,0-1.57,0.79-1.58,1.69c-0.02,0.95,0.61,1.63,1.52,1.66c0.46,0.04,0.95-0.18,1.3-0.53c0.18-0.18,0.49-0.57,0.48-1.11
			C242.54,391.26,241.59,390.31,240.83,390.31C240.84,390.31,240.83,390.31,240.83,390.31z"/>
	</g>
	<g class="st3">
		<path d="M324.34,189.65c0.45-1.5,0.83-3.03,1.37-4.5c1.75-4.71,4.52-8.73,8.58-11.71c3.82-2.81,8.2-3.49,12.8-2.71
			c1.69,0.29,3.34,0.82,4.91,1.21c1.68-3.27,3.36-6.54,5.04-9.8c-1.14-0.25-2.41-0.48-3.65-0.8c-5.16-1.33-9.39-4.15-12.75-8.26
			c-3.07-3.76-4.95-8.08-5.33-12.91c-0.19-2.49,0.1-5.02,0.2-7.53c0.04-1,0.16-2,0.29-2.99c0.17-1.32,1.32-2.43,2.62-2.31
			c4.13,0.38,8.33,0.4,12.24,2.05c9.37,3.97,14.63,11.02,15.71,21.16c0.03,0.27,0.07,0.54,0.12,0.93c1.07-0.82,2.05-1.61,3.07-2.35
			c3.27-2.37,6.93-3.94,10.75-5.22c9.19-3.09,18.33-6.3,27.51-9.41c0.73-0.25,1.62-0.31,2.37-0.14c1.11,0.25,1.8,1.38,1.8,2.47
			c0,1.27-0.65,2.24-1.92,2.69c-2.51,0.89-5.04,1.74-7.56,2.61c-1.83,0.63-3.67,1.24-5.49,1.91c-0.39,0.14-0.77,0.46-1.01,0.8
			c-2.94,4.24-4.53,8.99-5.4,14.04c-0.93,5.38-0.89,10.73-0.05,16.11c0.12,0.75,0.42,1.08,1.14,1.04c1.3-0.06,2.61-0.08,3.9-0.23
			c4.33-0.48,8.38,0.29,12.1,2.62c2.3,1.43,3.99,3.44,5.37,5.72c3.75,6.22,4.99,12.92,3.4,20.01c-1.9,8.5-6.84,14.73-14.56,18.74
			c-3.8,1.97-7.87,2.91-12.16,2.96c-0.21,0-0.41,0.06-0.62,0.1c-1.51-0.15-3.02-0.29-4.53-0.44c-0.26-0.08-0.51-0.19-0.77-0.25
			c-3.79-0.79-7.29-2.25-10.36-4.62c-1.74-1.35-3.33-2.89-5.05-4.39c-0.15,0.11-0.42,0.3-0.69,0.5c-3.69,2.75-7.82,4.48-12.37,5.13
			c-1.37,0.2-2.76,0.28-4.14,0.41c-1.63-0.16-3.27-0.32-4.9-0.47c-0.84-0.23-1.69-0.43-2.52-0.68c-4.48-1.35-8.45-3.59-11.76-6.92
			c-4.16-4.17-6.83-9.13-7.72-14.99c-0.22-1.48-0.32-2.99-0.47-4.48C324.01,193.03,324.18,191.34,324.34,189.65z M350.44,177.21
			c-1.53-0.37-3.21-0.93-4.92-1.15c-3.32-0.44-6.43,0.22-8.95,2.58c-5.31,4.97-7.66,11.16-6.98,18.35
			c1.39,14.69,16.75,23.69,30.34,17.89c11.65-4.97,16.59-18.16,11.23-29.63c-1.12-2.4-2.54-4.64-4.9-6.07
			c-2.93-1.78-6.1-1.96-9.4-1.47c-0.57,0.08-0.79,0.29-0.87,0.82c-0.14,0.96-0.31,1.92-0.46,2.88c-0.24,1.54-1.49,2.52-3.03,2.35
			c-1.51-0.16-2.53-1.42-2.4-2.99C350.19,179.66,350.31,178.55,350.44,177.21z M375.62,181.67c5.2,10.87,4.11,21.02-3.03,30.58
			c0.06,0.09,0.13,0.19,0.21,0.28c5.69,6.5,12.86,9,21.26,7.27c14.91-3.07,22.11-19.59,14.39-32.69c-1.07-1.82-2.41-3.4-4.31-4.46
			c-3.72-2.06-7.64-1.51-11.62-1c0.33,0.72,0.66,1.37,0.93,2.04c0.56,1.41-0.04,2.91-1.38,3.52c-1.35,0.61-2.91,0.12-3.58-1.22
			c-0.58-1.16-1.11-2.36-1.56-3.58c-0.85-2.3-0.81-2.37-3.26-2.69C380.76,179.35,378.05,179.89,375.62,181.67z M384.81,174.19
			c-1.09-9.34-0.16-18.38,3.58-27.19c-6.6,2.22-13.14,4-18.34,8.73c-5.06,4.6-9.04,9.93-11.89,16.27
			c5.63-0.34,10.42,1.18,14.26,5.13C377.11,174.38,377.96,174.18,384.81,174.19z M341.03,133.1c-2.49,13.76,7.6,23.89,19.56,23.68
			C362.92,144.09,354.22,133.29,341.03,133.1z"/>
		<path d="M389.22,228.65l-5.98-0.77c-4.36-0.91-8.21-2.64-11.43-5.12c-1.26-0.98-2.44-2.04-3.58-3.07
			c-3.79,2.57-7.98,4.2-12.49,4.85c-0.99,0.14-2,0.23-3,0.32l-1.52,0.14l-5.6-0.58l-0.75-0.2c-0.62-0.16-1.24-0.32-1.85-0.51
			c-5.05-1.52-9.39-4.07-12.9-7.6c-4.68-4.7-7.53-10.25-8.48-16.49c-0.16-1.07-0.26-2.14-0.35-3.21c-0.04-0.46-0.08-0.93-0.13-1.39
			l-0.03-0.27l0.62-5.87c0.14-0.46,0.27-0.92,0.4-1.38c0.3-1.07,0.62-2.17,1.03-3.28c2.03-5.44,5.23-9.8,9.52-12.95
			c4.2-3.08,9.2-4.16,14.86-3.2c1.07,0.18,2.07,0.44,3.05,0.7l2.43-4.73c-0.11-0.03-0.21-0.05-0.31-0.08
			c-5.62-1.45-10.38-4.53-14.16-9.16c-3.53-4.32-5.52-9.17-5.93-14.42c-0.15-2-0.03-3.95,0.08-5.84c0.04-0.67,0.08-1.34,0.11-2.01
			c0.05-1.15,0.18-2.27,0.31-3.22c0.36-2.81,2.86-4.89,5.54-4.66c0.73,0.07,1.46,0.12,2.19,0.18c3.56,0.27,7.25,0.55,10.86,2.08
			c9.15,3.87,14.77,10.48,16.75,19.68c2.97-2.07,6.39-3.7,10.98-5.24c5.14-1.73,10.28-3.5,15.41-5.26
			c4.03-1.39,8.06-2.78,12.09-4.15c1.23-0.42,2.63-0.5,3.84-0.21c2.26,0.52,3.9,2.66,3.9,5.1c0.01,2.45-1.39,4.41-3.73,5.24
			c-1.75,0.62-3.5,1.22-5.26,1.82l-3.68,1.26c-1.3,0.44-2.59,0.88-3.88,1.35c-2.38,3.47-3.98,7.68-4.88,12.84
			c-0.79,4.54-0.86,9.11-0.23,13.92c0.76-0.03,1.51-0.07,2.26-0.15c5.07-0.57,9.73,0.45,13.83,3.01c2.43,1.52,4.48,3.69,6.25,6.62
			c4.19,6.95,5.44,14.35,3.73,22c-2.07,9.21-7.44,16.12-15.96,20.54c-4.04,2.1-8.5,3.2-13.26,3.26L389.22,228.65z M389.79,228.53
			C389.78,228.53,389.78,228.53,389.79,228.53C389.78,228.53,389.78,228.53,389.79,228.53z M385.18,222.83l3.82,0.37
			c0.26-0.04,0.49-0.07,0.72-0.07c3.94-0.04,7.62-0.93,10.93-2.65c7.04-3.65,11.47-9.35,13.17-16.93c1.4-6.25,0.36-12.31-3.08-18.03
			c-1.34-2.22-2.76-3.75-4.48-4.83c-3.09-1.93-6.49-2.66-10.37-2.22c-1.01,0.11-2.02,0.15-3.03,0.19l-1.03,0.05
			c-1.64,0.08-3.55-0.75-3.95-3.32c-0.9-5.81-0.88-11.53,0.06-16.99c1.04-6.01,2.95-10.95,5.84-15.12c0.57-0.82,1.4-1.47,2.29-1.8
			c1.4-0.52,2.8-0.99,4.21-1.47l3.67-1.26c1.73-0.59,3.46-1.18,5.18-1.79c-0.15,0.01-0.31,0.04-0.45,0.09
			c-4.03,1.37-8.05,2.75-12.07,4.14c-5.14,1.77-10.29,3.54-15.44,5.28c-4.3,1.45-7.4,2.94-10.02,4.85c-0.67,0.49-1.33,1-2,1.52
			l-4.73,3.64l-0.66-5.02c-0.03-0.23-0.06-0.42-0.08-0.62c-0.97-9.15-5.57-15.35-14.07-18.95c-2.8-1.18-5.89-1.42-9.16-1.67
			c-0.65-0.05-1.3-0.1-1.95-0.15c-0.13,0.86-0.24,1.8-0.28,2.7c-0.02,0.38-0.04,0.75-0.06,1.13c0.05-0.42,0.12-0.83,0.2-1.25
			l0.41-2.26l2.29,0.03c7.16,0.1,13.43,2.99,17.65,8.13c4.2,5.12,5.82,11.78,4.53,18.74l-0.38,2.06c1.62-1.96,3.4-3.82,5.36-5.6
			c5.05-4.59,11.19-6.61,17.12-8.57l7.88-2.64l-2.35,5.54c-3.38,7.96-4.48,16.4-3.38,25.82l0.35,3.02l-3.05-0.01
			c-1.06,0-1.97,0-2.75,0.01c0.63,0,1.28,0.05,1.94,0.13c2.53,0.32,3.66,0.81,4.56,2.38l3.92-0.49c4.02-0.51,8.57-1.08,12.97,1.36
			c2.11,1.17,3.86,2.95,5.33,5.45c4.15,7.05,4.66,15.31,1.4,22.66c-3.24,7.3-9.64,12.42-17.57,14.05
			c-9.27,1.9-17.51-0.91-23.84-8.14c-0.12-0.14-0.24-0.29-0.34-0.45l-1.09-1.6l1.1-1.64c6.58-8.82,7.49-17.92,2.76-27.8l-0.97-2.02
			l1.81-1.33c2.06-1.51,4.37-2.36,6.9-2.54c-2.95,0.14-3.99,0.67-7.16,2.52l-1.83,1.07l-1.48-1.52c-3.11-3.21-7.13-4.61-12.15-4.31
			l-4.46,0.27l1.84-4.08c1.88-4.17,4.22-7.96,7.08-11.44l-2.14,0.04c-6.82,0.1-13.19-2.71-17.49-7.77
			c-3.21-3.78-4.98-8.44-5.18-13.48c0,0.58,0.01,1.16,0.05,1.72c0.32,4.12,1.91,7.96,4.73,11.41c3.04,3.72,6.85,6.19,11.33,7.35
			c0.83,0.21,1.67,0.39,2.46,0.55l4.53,0.98l-7.63,14.84l-2.08-0.52c-0.5-0.13-1.01-0.27-1.53-0.41c-1.05-0.29-2.14-0.58-3.17-0.76
			c-4.22-0.71-7.74,0.01-10.75,2.23c-3.42,2.52-6,6.04-7.65,10.48c-0.1,0.28-0.2,0.56-0.29,0.85c1.26-3.8,3.52-7.24,6.76-10.28
			c2.96-2.77,6.71-3.88,11.16-3.29c1.37,0.18,2.68,0.54,3.83,0.85c0.47,0.13,0.92,0.25,1.37,0.36l2.28,0.55l-0.35,3.55
			c-0.08,0.81-0.15,1.56-0.22,2.3l0.26-1.24c0.09-0.54,0.18-1.07,0.26-1.61c0.25-1.72,1.4-2.85,3.15-3.11
			c4.48-0.67,8.04-0.08,11.2,1.84c3.18,1.93,4.85,4.88,5.95,7.24c2.92,6.26,3.21,13.17,0.81,19.46
			c-2.38,6.23-7.15,11.13-13.42,13.81c-7.32,3.12-15.45,2.58-22.28-1.48c-6.77-4.03-11.07-10.82-11.82-18.64
			c-0.32-3.32-0.06-6.45,0.77-9.36c-0.1,0.35-0.21,0.71-0.31,1.08c-0.11,0.4-0.23,0.81-0.35,1.21l-0.44,4.55
			c0.04,0.4,0.08,0.8,0.11,1.19c0.09,0.97,0.17,1.93,0.32,2.89c0.77,5.08,3.11,9.62,6.96,13.48c2.87,2.88,6.45,4.98,10.62,6.23
			c0.55,0.16,1.1,0.31,1.65,0.45l0.57,0.15l4.43,0.43l1.05-0.09c0.9-0.08,1.8-0.15,2.69-0.28c4.05-0.58,7.8-2.14,11.14-4.62
			l2.45-1.8l1.63,1.43c0.55,0.48,1.08,0.96,1.61,1.44c1.13,1.02,2.19,1.98,3.31,2.84c2.6,2.01,5.63,3.36,9.26,4.12
			C384.64,222.64,384.91,222.73,385.18,222.83z M376.05,212.05c4.79,4.77,10.67,6.51,17.47,5.11c6.2-1.27,11.19-5.26,13.72-10.94
			c2.55-5.74,2.14-12.2-1.11-17.72c-0.98-1.67-2.03-2.77-3.29-3.47c-2.01-1.11-4.17-1.25-6.53-1.07c0.36,2.36-0.84,4.69-3.11,5.72
			c-2.68,1.22-5.81,0.14-7.12-2.47c-0.66-1.31-1.22-2.61-1.68-3.85l-0.07-0.19c-0.08-0.22-0.17-0.46-0.24-0.65
			c-0.26-0.04-0.57-0.08-0.76-0.1c-1.56-0.2-2.95-0.06-4.22,0.42C383.21,193.01,382.19,202.82,376.05,212.05z M343.64,178.63
			c-2.09,0-3.82,0.65-5.24,1.98c-4.67,4.37-6.73,9.79-6.13,16.12c0.58,6.08,3.93,11.37,9.2,14.51c5.34,3.17,11.68,3.6,17.4,1.15
			c4.91-2.1,8.64-5.92,10.49-10.76c1.88-4.9,1.64-10.31-0.66-15.23c-1.17-2.51-2.32-3.97-3.85-4.9c-1.78-1.08-3.79-1.48-6.39-1.25
			c-0.02,0.13-0.04,0.27-0.07,0.4l-0.19,1.18c-0.46,2.96-3.02,4.94-5.99,4.63c-2.99-0.32-5.05-2.86-4.8-5.9
			c0.04-0.43,0.08-0.86,0.12-1.3c-0.79-0.21-1.6-0.4-2.36-0.5C344.63,178.67,344.13,178.63,343.64,178.63z M389.43,181.41l0.02,0.07
			c0.39,1.05,0.88,2.17,1.45,3.3c-0.14-0.49-0.32-0.89-0.52-1.3L389.43,181.41z M362.48,169.41c3.94,0.47,7.39,1.93,10.31,4.38
			c3.15-1.72,4.91-2.18,9.05-2.29c-0.52-7.14,0.17-13.81,2.1-20.17c-4.48,1.55-8.66,3.29-12.08,6.4
			C368,161.24,364.91,165.09,362.48,169.41z M391.58,173.3c0,0-0.01,0-0.01,0H391.58z M343.39,135.98
			c-0.3,4.63,1.04,8.91,3.87,12.23c2.76,3.24,6.66,5.27,10.96,5.76c0.3-4.5-0.97-8.7-3.69-12
			C351.81,138.64,347.92,136.57,343.39,135.98z"/>
	</g>
</g>
<g class="st2">
	<g class="st3">
		<g>
			<path d="M398.63,136.17c8.38,0,16.76,0.1,25.14-0.04c5.12-0.08,9.23,1.49,11.36,6.37c2.11,4.84,0.56,9-2.87,12.76
				c-16.95,18.57-33.84,37.18-50.75,55.79c-24.66,27.13-49.3,54.27-73.98,81.39c-2.35,2.58-5.01,4.87-7.27,7.52
				c-0.84,0.99-1.29,2.62-1.3,3.96c-0.07,27.12-0.05,54.24-0.05,81.36c0,13.04,0,26.07,0,39.11c0,9.73,3.41,14.57,12.51,17.74
				c13.36,4.65,26.74,9.27,40.09,13.96c5.88,2.06,7.96,7.75,4,11.54c-1.48,1.42-4.1,2.31-6.2,2.31
				c-43.42,0.13-86.83,0.1-130.25,0.09c-4.44,0-7.2-2.08-7.91-5.82c-0.66-3.46,1.49-6.61,5.66-8.07
				c13.35-4.68,26.73-9.31,40.09-13.96c9.4-3.27,12.71-7.94,12.71-17.93c0-39.69-0.02-79.39,0.05-119.08
				c0.01-2.85-0.86-4.7-2.92-6.84c-8.89-9.2-17.44-18.74-26.05-28.21c-34.53-37.97-69.05-75.97-103.57-113.94
				c-2.46-2.7-4.71-5.43-4.63-9.42c0.11-5.72,4.23-10.19,9.97-10.54c1.28-0.08,2.56-0.04,3.84-0.04L398.63,136.17z M411.53,162.17
				l14.1-15.5l-65.71,0.25c-72.5,0-144.35,0-216.29,0c0.17,0.46,0.19,0.71,0.33,0.86c10.01,11.03,99.72,109.81,128.49,141.38
				c6.91,7.58,16.85,7.43,23.83-0.24c28.36-31.16,56.68-62.36,85.01-93.55c0.59-0.64,28.66-31.32,29.59-32.51L411.53,162.17z
				 M228.64,192.75 M280.18,305.32c0,1.76,0,3.13,0,4.51c0,37.92,0.01,75.85-0.02,113.77c0,2.67,0.09,5.4-0.45,7.99
				c-2.13,10.18-8.37,16.83-18.14,20.25c-6.82,2.39-13.65,4.77-20.47,7.15c0.04,0.16,0.09,0.31,0.13,0.47c28.68,0,57.36,0,86.04,0
				c-6.03-2.62-12.12-5.01-18.37-6.88c-12.42-3.73-20.84-13.42-20.69-28.96c0.37-38.04,0.12-76.08,0.12-114.12c0-1.35,0-2.71,0-4.18
				C285.47,305.32,283.06,305.32,280.18,305.32z"/>
		</g>
		<g>
			<path d="M318.09,217.97c-0.92-2.59-2.27-5.1-4.06-7.4c-0.82-1.08-1.74-2.11-2.76-3.08c-1.43-1.38-2.97-2.58-4.58-3.58
				c-2.34-1.47-4.8-2.54-7.34-3.2h-0.01c-8-2.13-16.5-0.28-22.22,5.66c-7.61,7.9-7.83,20.44-1.16,29.96
				c1.01,1.45,2.19,2.83,3.53,4.12c1.11,1.07,2.28,2.03,3.51,2.87c9.86,6.85,22.82,6.35,30.64-1.75
				C319.64,235.33,321.04,226.22,318.09,217.97z M306.54,234.72c-4.4,4.56-11.47,5.18-17.27,1.99c-1.28-0.7-2.49-1.58-3.6-2.66
				c-1.39-1.34-2.49-2.85-3.31-4.45c-2.83-5.5-2.29-12.06,1.87-16.38c4.1-4.25,10.52-5.07,16.08-2.57c1.71,0.77,3.33,1.85,4.79,3.25
				c1.05,1.01,1.93,2.12,2.67,3.29v0.01C311.3,222.91,310.99,230.11,306.54,234.72z"/>
		</g>
		<g>
			<path d="M341.17,181.93c-0.94-1.3-2.01-2.54-3.22-3.7c-1.23-1.19-2.55-2.25-3.93-3.16c-9.81-6.54-22.52-5.95-30.22,2.04
				c-6.01,6.24-7.41,15.35-4.46,23.6h0.01c0.86,2.44,2.11,4.8,3.74,6.99c0.89,1.22,1.92,2.4,3.06,3.5c1.3,1.26,2.69,2.36,4.15,3.31
				c2.46,1.6,5.1,2.76,7.79,3.46c8.01,2.13,16.5,0.28,22.22-5.66C348.04,204.29,348.15,191.5,341.17,181.93z M333.21,205.47
				c-4.22,4.37-10.91,5.12-16.56,2.34c-1.54-0.75-2.99-1.76-4.3-3.03c-1.18-1.14-2.16-2.41-2.93-3.75
				c-3.25-5.63-2.84-12.58,1.49-17.08c4.29-4.44,11.09-5.14,16.8-2.22c1.45,0.73,2.83,1.7,4.08,2.9c1.25,1.21,2.27,2.55,3.06,3.97
				C337.95,194.21,337.5,201.03,333.21,205.47z"/>
		</g>
		<g>
			<path d="M289.27,236.71l-6.27,6.61l-11.38,12.02c-1.89,1.99-5.02,2.07-7.01,0.19c-1.03-0.97-1.55-2.28-1.55-3.6
				c0-1.22,0.45-2.45,1.36-3.4l11.55-12.19l6.39-6.74c0.81,1.6,1.92,3.11,3.31,4.45C286.78,235.12,287.99,236.01,289.27,236.71z"/>
		</g>
		<g>
			<path d="M312.35,204.78c1.31,1.27,2.76,2.27,4.3,3.03l-2.62,2.76l-3.73,3.94l-2.55,2.69c-0.73-1.17-1.62-2.28-2.67-3.29
				c-1.45-1.4-3.07-2.48-4.79-3.25l2.79-2.95l3.6-3.79l2.72-2.88C310.19,202.38,311.17,203.65,312.35,204.78z"/>
		</g>
		<g>
			<path d="M411.25,105.99c0,1.22-0.45,2.45-1.36,3.41l-68.72,72.52l-6.33,6.68c-0.79-1.43-1.81-2.76-3.06-3.97
				c-1.25-1.21-2.62-2.18-4.08-2.9l6.32-6.67l68.67-72.49c1.88-1.99,5.02-2.06,7.01-0.18C410.73,103.37,411.25,104.68,411.25,105.99
				z"/>
		</g>
		<g>
			<path d="M270.91,190.2c-1.04,0.65-96.66,4-96.66,4l-6.08-9.9l99.82-2.7c2.73-0.07,5.01,2.09,5.08,4.83
				C273.11,187.83,272.34,189.3,270.91,190.2z"/>
		</g>
		<g>
			<path d="M406.34,181.02l-38.73-1.05c-2.73-0.07-5.01,2.09-5.08,4.82c-0.04,1.41,0.52,2.71,1.45,3.64
				c0.87,0.87,2.05,1.41,3.38,1.45l31.24,0.84"/>
		</g>
	</g>
	<g class="st3">
		<g>
			<path class="st4" d="M266.89,471.54c-12.77,0-25.47,0-38.04-0.01l-9.79,0c-5.11,0-8.53-2.57-9.38-7.04
				c-0.8-4.24,1.8-8.07,6.64-9.77c9.08-3.18,18.16-6.34,27.25-9.5l12.85-4.47c8.75-3.05,11.7-7.21,11.7-16.51l0-25.04
				c0-30.82-0.01-62.69,0.05-94.04c0-2.39-0.63-3.85-2.5-5.79c-7.44-7.7-14.76-15.76-21.83-23.56l-4.26-4.69
				c-20.03-22.03-40.06-44.06-60.08-66.09c-14.5-15.95-28.99-31.9-43.49-47.85c-2.7-2.97-5.11-6-5.02-10.46
				c0.13-6.56,4.91-11.61,11.37-12.01c1-0.06,2-0.05,2.96-0.05l0.98,0.01l252.34,0c2.49,0,4.98,0.01,7.46,0.02
				c5.79,0.02,11.78,0.04,17.65-0.05c6.42-0.08,10.58,2.27,12.76,7.27c2.14,4.91,1.08,9.75-3.14,14.37
				c-13.76,15.08-27.5,30.2-41.23,45.31l-30.95,34.06c-17.51,19.27-35.02,38.55-52.55,57.8c-1.06,1.17-2.19,2.28-3.28,3.35
				c-1.34,1.32-2.73,2.69-3.95,4.12c-0.54,0.64-0.94,1.9-0.94,3c-0.06,22.56-0.06,45.5-0.06,67.68l0,13.68l0,11.73
				c0,9.13,0,18.25,0,27.38c0,9.09,3.01,13.36,11.51,16.32c4.7,1.64,9.41,3.27,14.11,4.9c8.67,3.01,17.33,6.02,25.99,9.05
				c3.63,1.27,6.2,3.88,6.87,6.97c0.55,2.55-0.3,5.13-2.33,7.07c-1.7,1.62-4.6,2.72-7.23,2.73
				C321.94,471.52,294.25,471.54,266.89,471.54z M144.3,137.66c-0.6,0-1.18,0.01-1.76,0.05c-4.94,0.31-8.46,4.04-8.56,9.08
				c-0.07,3.37,1.8,5.7,4.24,8.38c14.5,15.95,29,31.9,43.49,47.85c20.02,22.03,40.05,44.07,60.08,66.09l4.26,4.69
				c7.06,7.78,14.35,15.82,21.76,23.49c2.41,2.5,3.35,4.71,3.35,7.88c-0.06,31.34-0.05,63.21-0.05,94.03l0,25.04
				c0,10.62-3.72,15.86-13.72,19.35l-12.85,4.47c-9.08,3.16-18.17,6.31-27.24,9.49c-3.41,1.19-5.21,3.64-4.69,6.38
				c0.58,3.05,2.74,4.6,6.43,4.6l9.79,0c39.48,0.01,80.31,0.03,120.46-0.09c1.82,0,4.04-0.82,5.16-1.9
				c1.28-1.23,1.81-2.74,1.48-4.27c-0.45-2.06-2.29-3.84-4.93-4.77c-8.65-3.03-17.32-6.04-25.98-9.05c-4.7-1.63-9.41-3.27-14.11-4.9
				c-9.73-3.39-13.52-8.76-13.52-19.16c0-9.13,0-18.25,0-27.38l0-11.73l0-13.68c0-22.18,0-45.12,0.06-67.69
				c0-1.82,0.66-3.76,1.66-4.93c1.3-1.53,2.74-2.95,4.13-4.32c1.06-1.05,2.16-2.13,3.17-3.24c17.53-19.26,35.04-38.53,52.55-57.8
				l30.95-34.06c13.73-15.11,27.47-30.23,41.23-45.31c3.45-3.77,4.27-7.32,2.6-11.15c-1.68-3.86-4.76-5.54-9.96-5.46
				c-5.91,0.09-11.91,0.07-17.71,0.05c-2.48-0.01-4.97-0.02-7.45-0.02l-252.34,0l-1-0.01C144.96,137.66,144.63,137.66,144.3,137.66z
				 M327.28,460.96h-87.17l-0.84-2.92l7.45-2.6c4.79-1.67,9.58-3.34,14.36-5.02c9.42-3.3,15.2-9.74,17.16-19.14
				c0.44-2.09,0.43-4.4,0.42-6.62l0-1.05c0.02-30.7,0.02-61.4,0.02-92.1l0-27.68h11.15v5.68c0,10.9,0.02,21.81,0.04,32.71
				c0.05,26.68,0.1,54.28-0.16,81.42c-0.13,13.9,6.83,23.67,19.62,27.51c5.65,1.7,11.54,3.9,18.54,6.94L327.28,460.96z
				 M248.61,457.96h71.15c-4.02-1.58-7.71-2.87-11.29-3.95c-13.97-4.2-21.9-15.28-21.76-30.41c0.26-27.12,0.21-54.71,0.16-81.38
				c-0.02-10.91-0.04-21.81-0.04-32.72v-2.68h-5.15l0,24.68c0,30.7,0,61.4-0.02,92.1l0,1.04c0.01,2.38,0.02,4.85-0.48,7.25
				c-2.2,10.5-8.63,17.69-19.11,21.36C257.59,454.82,253.1,456.39,248.61,457.96z M284.19,296.26c-4.7,0-9.26-2.16-12.84-6.09
				c-27.96-30.67-117.4-129.14-128.5-141.38c-0.32-0.35-0.43-0.72-0.51-1.02c-0.03-0.09-0.06-0.21-0.11-0.34l-0.74-2.01h218.43
				l69.12-0.26l-17.01,18.7c-0.91,1.1-10.12,11.22-28.13,30.92l-1.48,1.62l-13.51,14.88c-23.82,26.23-47.65,52.46-71.5,78.67
				C293.69,294.01,288.99,296.26,284.19,296.26C284.19,296.26,284.19,296.26,284.19,296.26z M146.56,148.42
				c15.95,17.57,100.05,110.16,127,139.73c3.05,3.34,6.72,5.11,10.62,5.11c0,0,0,0,0,0c3.95,0,7.85-1.9,10.99-5.35
				c23.85-26.2,47.68-52.43,71.5-78.67l15-16.5c22.44-24.53,27.63-30.29,28.03-30.8l0.07-0.08l12.45-13.68l-62.3,0.24H146.56z"/>
		</g>
		<g>
			<path class="st4" d="M297.83,249.6c-5.33,0-10.83-1.67-15.69-5.05c-1.27-0.87-2.51-1.89-3.69-3.02
				c-1.37-1.32-2.62-2.78-3.72-4.34c-7.16-10.24-6.61-23.64,1.31-31.86c5.9-6.13,14.68-8.41,23.51-6.12l0.18,0.04
				c2.71,0.71,5.32,1.85,7.76,3.38c1.7,1.05,3.33,2.32,4.83,3.77c1.05,1,2.03,2.1,2.91,3.25c1.84,2.38,3.29,5.01,4.28,7.81
				c3.24,9.08,1.41,18.71-4.79,25.15C310.25,247.24,304.16,249.6,297.83,249.6z M292.85,201.34c-5.61,0-10.83,2.11-14.64,6.07
				c-6.93,7.19-7.36,19-1.01,28.06c0.98,1.4,2.1,2.71,3.34,3.9c1.06,1.02,2.18,1.93,3.32,2.71c9.44,6.56,21.52,5.9,28.71-1.55
				c5.4-5.61,6.99-14.06,4.13-22.06l0,0c-0.89-2.5-2.17-4.85-3.83-6.98c-0.79-1.04-1.67-2.02-2.61-2.92
				c-1.35-1.3-2.81-2.44-4.34-3.39c-2.13-1.34-4.4-2.34-6.75-2.98l-0.2-0.05C296.9,201.61,294.85,201.34,292.85,201.34z
				 M296.84,240.18c-2.79,0-5.65-0.71-8.29-2.16c-1.43-0.78-2.75-1.76-3.92-2.9c-1.47-1.42-2.69-3.05-3.6-4.85
				c-3.19-6.2-2.34-13.47,2.13-18.1c4.46-4.62,11.43-5.75,17.77-2.9c1.91,0.86,3.66,2.05,5.21,3.54c1.09,1.05,2.07,2.25,2.9,3.57
				l0.23,0.39c3.72,6.35,3.07,14.1-1.65,18.98l0,0C304.81,238.67,300.9,240.18,296.84,240.18z M293.87,210.73
				c-3.25,0-6.32,1.21-8.56,3.53c-3.57,3.7-4.22,9.59-1.62,14.65c0.77,1.51,1.78,2.87,3.01,4.06c0.99,0.96,2.09,1.77,3.29,2.42
				c5.31,2.93,11.67,2.22,15.47-1.71l0,0c3.85-3.99,4.28-10.44,1.03-15.69l-0.16-0.25c-0.66-1.01-1.42-1.94-2.27-2.75
				c-1.3-1.26-2.77-2.25-4.36-2.97C297.77,211.15,295.79,210.73,293.87,210.73z"/>
		</g>
		<g>
			<path class="st4" d="M324.61,220.34c-2.26,0-4.58-0.3-6.9-0.92c-2.88-0.75-5.64-1.98-8.22-3.66c-1.55-1.01-3.02-2.18-4.37-3.48
				c-1.22-1.18-2.31-2.43-3.23-3.69c-1.48-1.97-2.68-4.12-3.57-6.37h-0.02l-0.36-1c-3.24-9.08-1.41-18.71,4.79-25.15
				c8.05-8.35,21.56-9.3,32.13-2.25c1.46,0.97,2.85,2.09,4.14,3.33c1.27,1.23,2.42,2.54,3.39,3.9c7.52,10.31,7.1,23.9-0.99,32.3
				C337,217.91,331.02,220.34,324.61,220.34z M300.57,199.65l0.2,0.56c0.82,2.34,2.01,4.55,3.53,6.59c0.84,1.15,1.81,2.26,2.9,3.32
				c1.21,1.17,2.53,2.22,3.92,3.13c2.3,1.5,4.78,2.6,7.35,3.27c7.83,2.09,15.59,0.12,20.76-5.25c7.08-7.36,7.39-19.32,0.73-28.46
				l-0.01-0.01c-0.87-1.21-1.9-2.39-3.04-3.5c-1.16-1.12-2.41-2.12-3.71-2.99c-9.37-6.25-21.27-5.48-28.31,1.83
				C299.61,183.63,297.98,191.82,300.57,199.65z M323.54,210.94c-2.52,0-5.11-0.58-7.55-1.79c-1.71-0.84-3.29-1.95-4.69-3.3
				c-1.26-1.21-2.33-2.59-3.19-4.09c-3.69-6.39-3-13.97,1.71-18.86c4.65-4.81,12.11-5.82,18.56-2.52c1.59,0.8,3.09,1.86,4.44,3.16
				c1.34,1.29,2.46,2.75,3.33,4.33c3.52,6.34,2.78,13.82-1.86,18.62l0,0C331.48,209.42,327.6,210.94,323.54,210.94z M320.56,181.47
				c-3.25,0-6.33,1.2-8.58,3.52c-3.77,3.92-4.28,10.06-1.27,15.28c0.72,1.26,1.62,2.41,2.67,3.42c1.17,1.13,2.49,2.06,3.92,2.76
				c5.22,2.56,11.18,1.74,14.82-2.04l0,0c3.72-3.84,4.28-9.91,1.4-15.09c-0.73-1.32-1.67-2.53-2.79-3.62
				c-1.12-1.09-2.37-1.98-3.71-2.64C324.93,182,322.71,181.47,320.56,181.47z"/>
		</g>
		<g>
			<path class="st4" d="M268.01,258.38c-1.59,0-3.19-0.58-4.43-1.76c-1.3-1.22-2.02-2.89-2.02-4.69c0-1.67,0.63-3.24,1.77-4.44
				l19.4-20.47l0.96,1.89c0.76,1.5,1.77,2.86,3.01,4.05c0.99,0.96,2.09,1.77,3.29,2.42l1.71,0.94l-18.99,20.04
				C271.43,257.71,269.72,258.38,268.01,258.38z M282.07,232.07l-16.57,17.48c-0.61,0.64-0.95,1.48-0.95,2.37
				c0,0.97,0.38,1.86,1.08,2.51c1.38,1.31,3.58,1.25,4.89-0.13l16.38-17.3c-0.81-0.56-1.58-1.19-2.29-1.89
				C283.66,234.2,282.8,233.18,282.07,232.07z"/>
		</g>
		<g>
			<path class="st4" d="M307.52,219.63l-1.03-1.64c-0.7-1.11-1.52-2.12-2.44-3c-1.3-1.26-2.77-2.25-4.36-2.97l-1.93-0.87
				l11.95-12.62l1,1.76c0.71,1.25,1.61,2.4,2.67,3.42l0,0c1.17,1.13,2.49,2.06,3.92,2.76l1.84,0.9L307.52,219.63z M302.76,210.24
				c1.21,0.72,2.33,1.58,3.37,2.58c0.64,0.62,1.25,1.29,1.8,2l6.3-6.65c-1.05-0.66-2.03-1.44-2.93-2.31
				c-0.78-0.75-1.48-1.56-2.11-2.42L302.76,210.24z"/>
		</g>
		<g>
			<path class="st4" d="M334.52,191.13l-0.99-1.8c-0.72-1.31-1.66-2.53-2.79-3.62c-1.12-1.09-2.37-1.98-3.71-2.64l-1.81-0.91
				l7.72-8.13l68.67-72.49c1.19-1.25,2.79-1.96,4.51-2.01c1.73-0.04,3.36,0.58,4.61,1.77c1.28,1.22,2.02,2.92,2.02,4.68
				c0,1.65-0.63,3.23-1.78,4.44L334.52,191.13z M330.1,181.38c0.96,0.63,1.87,1.35,2.72,2.17c0.84,0.81,1.6,1.69,2.26,2.62
				l73.72-77.81c0.62-0.65,0.95-1.5,0.95-2.38c0-0.94-0.39-1.86-1.08-2.51c-0.67-0.63-1.52-0.96-2.47-0.95
				c-0.92,0.02-1.78,0.41-2.41,1.07L330.1,181.38z"/>
		</g>
		<g>
			<path class="st4" d="M173.43,195.73l-7.9-12.86l102.41-2.77c1.72-0.05,3.36,0.58,4.61,1.77c1.25,1.19,1.96,2.79,2.01,4.51
				c0.05,2-1.04,3.95-2.86,5.08v0c-0.45,0.28-1.38,0.86-97.4,4.23L173.43,195.73z M170.81,185.73l4.27,6.94
				c36.59-1.29,90.8-3.33,95.25-3.89c0.8-0.58,1.27-1.45,1.25-2.32c-0.02-0.92-0.41-1.78-1.08-2.42c-0.67-0.64-1.53-0.97-2.47-0.95
				L170.81,185.73z"/>
		</g>
		<g>
			<path class="st4" d="M398.54,192.23l-31.24-0.84c-1.67-0.05-3.23-0.72-4.4-1.89c-1.25-1.25-1.93-2.97-1.89-4.74
				c0.05-1.72,0.76-3.33,2.01-4.51c1.25-1.19,2.88-1.81,4.61-1.77l38.73,1.05l-0.08,3l-38.73-1.05c-0.94-0.02-1.8,0.31-2.47,0.95
				c-0.67,0.64-1.05,1.5-1.08,2.42c-0.02,0.94,0.34,1.87,1.01,2.54c0.63,0.62,1.46,0.98,2.36,1.01l31.23,0.84L398.54,192.23z"/>
		</g>
	</g>
</g>
<rect x="377.23" y="338.46" class="st5" width="38.24" height="130"/>
<g class="st2">
	<path class="st3" d="M300.54,371.99c-0.06-4.9-0.38-9.91-1.49-14.66c-7.25-30.93-36.1-50.02-67.45-44.89
		c-25.86,4.23-47.43,28.11-48.26,54.28c-0.57,18.17-0.35,36.37-0.23,54.55c0.06,8.98,6.15,14.66,15.24,14.7
		c14.46,0.06,28.91,0.02,43.37,0.02c14.09,0,28.2-0.35,42.28,0.13c9.31,0.31,16.98-6.06,16.72-16.79
		C300.32,403.55,300.72,387.77,300.54,371.99z M289.58,419.98c0,3.93-1.2,5.12-5.17,5.13c-14.21,0.02-28.43,0.01-42.64,0.01
		c-13.85,0-27.71,0-41.56,0c-5.31,0-6.15-0.81-6.15-5.97c0-16.14-0.05-32.28,0.01-48.42c0.1-25.98,20.47-47.07,46.46-48.18
		c25.82-1.1,48.84,20.66,49.02,46.48C289.67,386.02,289.6,403,289.58,419.98z"/>
	<path class="st3" d="M423.41,335.57c-7.7-0.05-15.4-0.01-23.1-0.01c-6.95,0-13.9-0.01-20.85,0v-0.08h-29.21
		c-0.01-5.92-0.05-11.83-0.13-17.75c-0.07-4.74-0.55-9.46-1.53-14.11c-8.12-38.63-31.03-64.23-67.93-77.26
		c-2.89-1.01-4.27-2.56-4.26-5.75c0.09-23.01,0-46.02,0.15-69.02c0.01-1.42,1.4-2.93,2.38-4.22c2.49-3.3,6.2-6.15,7.43-9.84
		c2.45-7.37,2.2-15.26,0.15-22.78c-0.93-3.43-2.77-6-5.17-8.02c-3.77-3.19-8.64-4.74-13.57-4.74h-55.11c-1.2,0-2.4,0.15-3.54,0.56
		h-0.01c-8.54,3.08-12.69,9.19-13.1,18.2c-0.19,4.08-0.05,8.19,0.14,12.27c0.3,6.09,3.31,10.82,8.3,14.05
		c2.16,1.4,2.77,2.85,2.76,5.23c-0.07,22.28-0.04,44.57-0.05,66.86c0,5.51-0.25,5.85-5.57,7.66c-41.08,13.97-68.16,51.57-68.2,94.87
		c-0.05,42.04-0.02,84.08-0.01,126.12c0.01,15.41,10.95,25.44,26.88,24.16c54.68-4.4,109.6-2.11,164.4,0.08
		c1.86,0.08,3.65-0.01,5.35-0.23c0,0,0,0,0.01,0c0.8,0.14,1.64,0.22,2.5,0.22c28.98,0.05,57.96,0.06,86.93,0
		c6.94-0.02,12.37-5.46,12.69-12.33c0.23-4.91,0.46-9.82,0.72-14.73c1.64-31.38,3.31-62.76,4.93-94.14
		C438.31,341.44,432.8,335.63,423.41,335.57z M312.6,257.69c-12.38,9.5-25.58,15.9-39.73,19.81c-0.54-6.02-1.05-11.68-1.56-17.37
		c8.58-4.14,17.69-8.54,27.51-13.29C302.79,249.98,307.48,253.67,312.6,257.69z M207.03,130.99c0.05-3.24-0.04-6.5,0.03-9.75
		c0.1-4.33,3.4-7.95,7.7-8.33c0.88-0.09,1.76-0.12,2.64-0.13v0.02h1.87c0.43,0.01,0.87,0.03,1.3,0.05c0.83,0.05,1.63,0.04,2.39-0.05
		h27.62c5.47,0.19,10.98,0,16.47,0.04c6.84,0.05,9.83,3.48,9.51,10.68c-0.07,1.47-0.07,2.94,0.07,4.4
		c0.48,5.22-1.13,9.04-6.05,11.78c-4.1,2.28-5.25,6.64-5.23,11.23c0.02,8.07,0,16.14,0,24.22v4.26h-47.07v-14.05
		c0-4.82-0.02-9.64,0-14.45c0.02-5.5-2.1-9.77-7.04-12.49C208.35,136.82,206.98,134.31,207.03,130.99z M197.46,240.13
		c3.03-1.12,6.06-2.25,9.1-3.37c8.26-3.04,11.63-7.7,11.71-16.56c0.08-8.55,0.02-17.1,0.03-25.64c0-1.07,0.09-2.14,0.14-3.47h46.9
		c0,6.06-0.02,12.06,0.01,18.06c0.02,4.58-0.06,9.15,0.19,13.72c0.35,6.58,4,10.91,9.97,13.32c3.54,1.42,7.17,2.64,11.32,4.14
		c-7.07,4.39-14.1,7.37-21.59,9.19c-0.87,0.21-2.23-0.49-3.03-1.17c-12.42-10.42-28.33-10.37-40.92,0.09
		c-0.85,0.7-2.48,1.3-3.4,0.98c-6.86-2.47-13.64-5.19-20.45-7.83C197.45,240.86,197.46,240.84,197.46,240.13z M261.49,271.39
		c0,10.91-8.72,19.76-19.57,19.85c-10.92,0.1-19.82-8.91-19.76-20.02c0.06-10.94,8.82-19.65,19.74-19.62
		C252.78,251.65,261.49,260.43,261.49,271.39z M184.72,247.24c0.47-0.36,1.57-0.28,2.18,0.01c8.53,4.06,17.01,8.18,25.51,12.29
		c0.01,0,0.02,0.01,0.03,0.01c-0.59,6.21-1.14,11.98-1.7,17.93c-14.05-3.81-27.23-10.26-39.76-19.81
		C175.79,253.99,180.21,250.55,184.72,247.24z M158.91,461.24c-9.54,0.21-14.56-4.65-14.57-14.12
		c-0.01-41.56-0.04-83.12,0.02-124.68c0.01-10.9,1.69-21.55,5.55-31.8c3.33-8.82,7.8-16.97,13.79-24.28
		c0.56,0.26,0.91,0.36,1.18,0.56c15.23,11.45,32.11,19.2,50.77,23.13c1.29,0.27,2.6,1.24,3.55,2.22
		c13.07,13.32,32.13,13.3,45.28-0.02c1.03-1.04,2.5-1.82,3.91-2.29c8.29-2.75,16.95-4.68,24.88-8.25
		c9.25-4.15,17.87-9.7,27.07-14.81c0.27,0.34,0.98,1.13,1.61,1.98c11.73,15.95,17.24,33.93,17.33,53.63
		c0.02,4.32,0.03,8.64,0.03,12.96c-4.07,0-8.14,0.04-12.21,0.15c-7.89,0.22-13.02,5.86-12.97,13.72c0.02,2.24,0.12,4.49,0.23,6.73
		c0.98,19.43,1.98,38.85,3,58.28c0.79,15.26,1.53,30.53,2.48,45.78c0.02,0.28,0.05,0.56,0.08,0.84
		C266.32,458.08,212.59,460.04,158.91,461.24z M422.98,448.63c-0.14,2.89-0.31,5.76-0.42,8.65c-0.14,4.06-1.13,5.08-5.21,5.09
		c-12.51,0.02-25.02,0-37.52,0c-11.26,0-22.51,0.01-33.76,0h-11.13c-2.86,0-4.2-0.3-4.87-1.65c-0.4-0.81-0.55-2-0.64-3.72
		c-0.52-10.35-1.12-20.69-1.68-31.04c-0.06-1.04,0-2.1,0-3.67c2.65,2.66,4.87,5.22,7.43,7.37c1.34,1.12,2.71,2.17,4.12,3.16
		c3.46,2.41,7.1,4.39,10.93,5.89c4.77,1.87,9.85,2.99,15.24,3.28c10.66,0.57,21.35,1.13,31.81-1.89
		c9.91-2.87,18.19-8.27,25.09-15.88c0.47-0.52,0.97-1.02,1.85-1.95C423.8,431.45,423.38,440.04,422.98,448.63z M422.21,406.21
		c-7.9,16.81-21.21,25.81-39.88,26.08c-7.85,0.11-15.87,0.06-23.54-1.42c-2.95-0.57-5.82-1.54-8.54-2.85
		c-4-1.92-7.7-4.57-10.93-7.72c-7.14-6.96-12-16.39-12.71-25.9h12.7h10.94h75.63C424.63,398.5,423.9,402.59,422.21,406.21z
		 M427.86,350.17c-0.27,6.84-0.55,13.67-0.88,20.5c-0.22,4.45-0.55,8.9-0.83,13.46h-75.91h-10.93h-13.58
		c-0.65-11.69-1.27-23-1.86-34.31c-0.16-3.09,0.95-4.22,4.16-4.24c3.77-0.02,7.52-0.01,11.29-0.01c3.64,0.01,7.29,0.01,10.93-0.02
		c0.93,0,1.86-0.01,2.8-0.02c0.16,0,0.31-0.03,0.47-0.04h19.93c0.32,0.04,0.65,0.06,0.99,0.07c0.86,0.02,1.72,0,2.57,0
		c15.51,0.01,31.01-0.01,46.52,0.02C427.26,345.57,428.02,346.4,427.86,350.17z"/>
</g>
<path class="st2" d="M360.98,467.61c-10.01-4.98-19.99-10.02-30.01-14.96c-1.29-0.64-1.73-1.36-1.72-2.8
	c0.06-14.34,0.04-28.68,0.04-43.02v-6.79c0.58-0.21,1.04-0.42,1.53-0.54c32.76-8.3,52.47-40.43,44.97-73.41
	c-5.1-22.43-10.28-44.84-15.35-67.27c-0.54-2.37-1.08-4.6-3.18-6.1h-24.9c-0.64,0.66-1.65,1.21-1.85,1.98
	c-0.36,1.38-0.62,2.99-0.24,4.31c0.49,1.73,2.11,2.46,3.97,2.45c5.82-0.02,11.64-0.01,17.75-0.01
	c5.26,23.23,10.53,46.45,15.83,69.83c-4.23-1.73-8.18-3.49-12.23-4.96c-6.03-2.17-12.18-3.79-18.69-3.74
	c-4.59,0.04-8.85,1.13-12.96,2.73c-2.54,0.99-5.03,2.17-7.49,3.42c-1.4,0.71-2.8,1.44-4.19,2.16c-4.4,2.3-8.78,4.63-13.23,6.82
	c-7.42,3.66-14.8,3.37-21.75-1.19c-3.76-2.47-7.29-5.29-10.83-8.07c-0.54-0.42-0.97-1.53-0.83-2.19
	c4.81-21.29,9.71-42.56,14.59-63.83c0.06-0.28,0.17-0.55,0.3-1c5.63,0,11.3-0.05,16.97,0.03c0.33,0.01,0.66,0.01,0.98-0.01
	l13.68,0.28c0,0-6.84-11.26-10.08-16.16c-11.97-18.13-17.71-37.85-17.08-59.62c0.43-14.8,0.07-29.62,0.09-44.43
	c0-3.63-0.6-7.34,2.25-10.48c0.81-0.89,0.9-2.64,0.93-4.01c0.1-4.85,0.16-9.71-0.05-14.55c-0.07-1.7-0.93-3.38-1.42-5.07
	c-0.58-1.99-1.38-3.97-1.66-6c-0.29-2.13-0.02-4.34-0.1-6.5c-0.24-6.63-4.57-10.84-11.27-10.88c-9.2-0.05-18.39-0.02-27.58-0.01
	c-8.37,0.01-12.48,4.09-12.53,12.36c-0.03,4.38,0.77,8.89-2.44,12.73c-0.63,0.76-0.62,2.18-0.63,3.3
	c-0.06,4.98-0.18,9.96,0.05,14.93c0.09,1.81,1.08,3.57,1.65,5.36c0.47,1.5,1.32,3.01,1.32,4.52c0.09,18.64,0.31,37.29-0.07,55.93
	c-0.15,7.2-1.3,14.47-2.76,21.54c-2.85,13.75-10.33,25.44-17.96,36.89c-12.89,19.32-18.43,40.45-18.24,63.61
	c0.36,46.48,0.27,92.96-0.01,139.43c-0.06,10.34,3.06,17.84,13.05,21.68h64.87c0.26,0.03,0.53,0.04,0.81,0.04h85.85
	c0.36,0,0.73,0.02,1.09-0.01c2.34-0.18,4.02-1.98,4.04-4.31C364.26,469.75,362.87,468.55,360.98,467.61z M271.23,343.26
	c4.26,2.71,8.81,4.75,13.84,5.56c6.84,1.1,13.14-0.82,19.15-3.74c2.71-1.32,5.37-2.74,8.04-4.16c3.29-1.76,6.59-3.52,9.96-5.1
	c0.58-0.27,1.16-0.54,1.75-0.78c3.13-1.35,6.4-2.42,9.7-3.21c5.95-1.44,11.74,0.32,17.26,2.31c5.58,2.01,10.94,4.63,16.35,7.1
	c0.57,0.26,1.17,1.29,1.13,1.93c-1.41,24.51-20.1,44.93-44.37,48.72c-0.3,0.05-0.59,0.09-0.89,0.13c-3.66,0.51-7.3,0.61-10.87,0.34
	c-23.51-1.78-43.86-19.74-47.72-44.01c-0.52-3.24-0.67-6.55-1.04-10.37C266.48,340.02,268.81,341.72,271.23,343.26z M255.58,348.82
	c3.16,18.25,11.82,32.17,25.98,41.64v16.65h-44.68V304.78h24.52c-1.18,5.11-2.36,10.22-3.56,15.33
	C255.63,329.59,253.9,339.11,255.58,348.82z M245.51,95.63h27.71v7.38h-27.71V95.63z M242.24,115.35h34.18v9.13h-34.18V115.35z
	 M273.37,136.46v35.4h-27.86v-35.4H273.37z M206.46,457.01c-0.01-48.27,0.18-96.54-0.09-144.81c-0.11-20.09,5.69-38.06,16.49-54.77
	c4.91-7.59,9.58-15.39,13.58-23.48c6.68-13.5,9.01-28.05,8.73-43.05c-0.04-2.27-0.01-4.54-0.01-7.03h28.32
	c0,1.3,0.05,2.64-0.01,3.98c-0.95,22.95,5.35,43.75,18.08,62.81c0.46,0.68,0.91,1.37,1.37,2.06h-17.82
	c-1.75,1.32-2.56,3.11-3.05,5.24c-2.89,12.76-5.79,25.52-8.71,38.28h-35.03v119.42h61.78v-20.34c1.42,0.68,2.88,1.34,4.39,1.95
	c2.74,1.12,5.63,1.85,8.59,2.81v2.14c0,15.79-0.04,31.59,0.05,47.39c0.01,1.77-0.63,2.51-2.09,3.24
	c-8.04,3.97-16.04,7.99-24.07,11.99c-20.86,0-41.73,0.01-62.59,0C207.96,464.84,206.46,463.39,206.46,457.01z M291.72,467.53
	c0.87-0.52,1.42-0.89,2.01-1.19c0.99-0.5,1.99-1,2.98-1.5c3.86-1.95,7.73-3.92,11.63-5.78c2.47-1.17,3.53-2.85,3.51-5.63
	c-0.09-16.52-0.04-33.04-0.04-49.56v-2.56h8.74v2.42c0,16.59,0.04,33.18-0.03,49.78c-0.02,2.68,0.97,4.33,3.38,5.48
	c0.03,0.02,0.07,0.03,0.11,0.05c4.88,2.32,9.68,4.81,14.51,7.24c0.62,0.31,1.22,0.66,2.28,1.25H291.72z"/>
<g>
	<g>
		<g>
			<path class="st6" d="M288.7,204.8c-0.03,2.89-2.51,5.25-5.49,5.22c-2.97-0.03-5.43-2.47-5.39-5.34c0.04-2.89,2.52-5.24,5.5-5.22
				C286.31,199.49,288.73,201.89,288.7,204.8z"/>
		</g>
		<g>
			<path class="st6" d="M222.2,210.2c-0.05,2.93-2.55,5.4-5.38,5.32c-2.83-0.08-5.28-2.68-5.23-5.53c0.05-2.85,2.62-5.34,5.44-5.28
				C219.99,204.77,222.25,207.16,222.2,210.2z"/>
		</g>
		<g>
			<path class="st6" d="M351.21,220.71c-3.01,0.04-5.33-2.21-5.37-5.21c-0.03-2.98,2.28-5.4,5.2-5.45c2.92-0.05,5.32,2.31,5.37,5.28
				C356.45,218.36,354.21,220.67,351.21,220.71z"/>
		</g>
		<g>
			<path class="st6" d="M344.64,403.79c-1.19-1.04-3.38-2.04-3.76-3.51c-0.47-1.82,0.1-4.29,1.07-6c0.76-1.33,2.76-2.03,4.31-2.83
				c11.91-6.15,22.68-13.89,32.33-23.19c0.84-0.81,1.74-1.56,2.66-2.28c2.53-1.97,5.02-1.74,7.25,0.42c2.2,2.13,2.19,5.11-0.17,7.51
				c-2.95,2.99-5.86,6.16-9.29,8.52c-9.97,6.87-20.18,13.4-30.34,20C347.77,403.03,346.54,403.17,344.64,403.79z"/>
		</g>
		<g>
			<path class="st6" d="M399.59,346.21c4.76,0.07,7.42,3.92,5.58,7.4c-1.45,2.74-3.45,5.29-5.65,7.48
				c-2.04,2.04-4.74,1.96-6.94-0.06c-2.04-1.87-2.44-4.3-0.93-6.66c1.43-2.25,3.03-4.45,4.84-6.4
				C397.42,346.96,398.99,346.54,399.59,346.21z"/>
		</g>
		<g>
			<g>
				<path class="st6" d="M448.92,308.13c4.9-19.64,5.17-39.63,4.55-59.65c-0.36-11.57-8.13-18.96-19.72-19.51
					c-2.23-0.11-3.05-0.77-3.74-3.01c-1.12-3.63-2.73-7.22-4.73-10.46c-3.55-5.76-9.06-9.31-15.68-12
					c3.59-3.54,7.09-6.64,10.17-10.11c8.54-9.62,17.55-18.92,25.15-29.25c7.46-10.15,5.88-21.93-3.04-29.81
					c-13.54-11.96-28.29-22.35-44.07-31.16c-8.76-4.89-17.94-3.73-25.38,2.9c-2.67,2.38-5.2,5.21-6.9,8.33
					c-7.24,13.21-14.14,26.61-21.17,39.94c-0.68,1.29-1.37,2.57-2.37,4.44c-0.73-1.01-1.09-1.64-1.57-2.15
					c-19.37-20.59-42.78-28.72-70.18-24.47l0-0.01c-0.03,0.01-0.06,0.01-0.09,0.02c-1.17,0.18-2.35,0.38-3.54,0.61
					c-1.77,0.34-3.23,0.83-4.36,1.45c-23.28,7.2-34.7,21.12-34.7,21.12l0.01,0.02c-0.46,0.3-0.91,0.65-1.34,1.1
					c-1.6,1.7-3.35,3.42-4.37,5.47c-1.97,3.96-4.98,4.62-9.08,4.58c-21.67-0.18-37.24,11.54-43.33,32.33
					c-0.67,2.27-1.55,3.39-4.21,3.49c-13.85,0.52-24.75,9.14-28.35,22.57c-0.81,3.03-1.98,4.06-5.08,4.15
					c-10.06,0.29-18.52,8.2-18.56,18.31c-0.05,14.37-0.03,28.83,1.46,43.1c2.93,28.1,13.36,53.62,29.93,76.46
					c3.84,5.3,6.79,9.97,3.84,16.65c-0.95,2.16-0.81,4.82-1.14,7.25c-2.18,16.21-2.94,32.44,0.44,48.56
					c1.87,8.89,5.2,17.08,14.58,20.88c2.11,0,4.22,0,6.33,0c10.31-3.69,18.91-9.94,26.62-18c7.67,7.79,16.09,7.79,24.83,2.39
					c2.97-1.84,6.27-3.68,8.33-6.35c4.5-5.85,9.43-5.73,16.04-4c18.71,4.9,37.84,6.19,57.05,3.56c9.23-1.26,18.36-3.27,27.49-5.16
					c1.88-0.39,2.89,0.03,4.24,1.22c4.02,3.54,7.95,7.33,12.45,10.17c9.67,6.12,16.49,5.47,25.64-1.82c7.67,8,16.16,15,27.21,18
					c1.87,0,3.75,0,5.62,0c4.66-1.98,8.57-4.91,10.6-9.64c1.65-3.84,3.25-7.81,4.05-11.88c3.86-19.72,2.35-39.38-1.59-58.9
					c-0.7-3.47-0.47-5.97,1.77-8.88C433.5,352.19,443.19,331.1,448.92,308.13z M356.39,154.3c5.98-11.37,12.06-22.68,18.19-33.96
					c0.94-1.72,2.22-3.31,3.56-4.76c4.41-4.76,9.25-6.11,14.79-2.75c10.07,6.12,19.8,12.82,29.5,19.53
					c4.31,2.99,8.38,6.39,12.2,9.99c4.55,4.28,5.29,8.84,2.22,14.26c-2.17,3.83-4.79,7.53-7.79,10.75
					c-9.81,10.53-19.89,20.81-29.87,31.17c-0.38,0.39-0.87,0.67-1.57,1.2c-3.23-10.53-8.29-19.57-16.95-26.19
					c-8.73-6.67-18.59-8.96-29.82-7.26C352.77,162.06,354.4,158.09,356.39,154.3z M157.49,215.2c4.45-1.36,9.35-1.47,14.07-1.66
					c4.41-0.18,6.2-1.3,6.99-5.61c0.25-1.38,0.41-2.78,0.66-4.15c1.46-7.84,4.72-14.66,11.3-19.54c8.74-6.48,18.76-7.32,29.11-6.34
					c2.58,0.24,4.62-0.23,6.15-2.35c2.94-4.08,5.91-8.13,8.77-12.27c12.23-13.13,36.47-20.18,37.44-20.46
					c13.89-2.36,27.27-0.52,40.13,5.76c11.69,5.7,20.81,14.2,27.49,25.32c1.92,3.19,4.31,4.28,8.14,3.94
					c5.07-0.44,10.38-0.76,15.3,0.25c12.97,2.68,22.53,13.67,24.34,26.85c1.1,7.99,2.52,9.08,10.47,7.97
					c9.21-1.28,20.24,6.9,21.3,15.81c-90.64,0-181.29,0-272.14,0C148.25,222.28,151.28,217.11,157.49,215.2z M212.42,435.72
					c-1.33,0.7-3.19,0.75-4.75,0.58c-4.39-0.48-5.28-2.56-2.67-6.04c1.86-2.48,3.49-6.16,5.94-6.88c2.26-0.67,5.48,1.87,8.26,3.02
					c1.36,0.56,2.7,1.17,5.19,2.24C219.92,431.32,216.27,433.71,212.42,435.72z M362.03,434.85c-2.27,0.63-5.01,1.69-6.94,0.95
					c-4.24-1.63-8.1-4.26-12.11-6.49c0.13-0.41,0.26-0.82,0.4-1.24c3.54-1.5,7.04-3.11,10.65-4.42c0.88-0.32,2.56-0.02,3.12,0.64
					c2.05,2.38,3.91,4.96,5.54,7.65C363.07,432.59,362.51,434.71,362.03,434.85z M408.35,367.08c-3.08,3.86-3.67,7.36-2.52,12.19
					c4.72,19.76,5.96,39.74,1.8,59.79c-0.56,2.68-1.83,5.3-3.17,7.72c-1.47,2.64-3.95,3.83-6.84,2.27
					c-3.37-1.81-6.85-3.61-9.79-6.01c-8.67-7.11-15.4-15.96-21.9-25.29c4.66-2.99,9.18-5.84,13.66-8.77
					c2.39-1.57,4.12-3.57,3.13-6.71c-1.16-3.67-4.84-4.86-8.54-2.67c-4.73,2.8-9.29,5.89-14.06,8.6
					c-16.43,9.34-34.08,15.45-52.72,18.13c-37.65,5.41-73.06-1.35-105.86-20.91c-2.01-1.2-3.96-2.49-5.98-3.68
					c-3.7-2.17-6.83-1.69-8.56,1.25c-1.67,2.84-0.7,5.7,2.8,7.91c3.55,2.24,7.14,4.4,10.91,6.72c-7.46,10.65-15.1,20.7-25.5,28.22
					c-8.82,6.37-13.23,5.11-15.77-5.38c-1.77-7.31-2.53-14.97-2.78-22.51c-0.47-13.95,1.01-27.79,4.65-41.33
					c0.84-3.14-0.1-5.64-2.08-8.08c-10.22-12.64-18.27-26.55-24.29-41.65c-7.59-19.03-10.94-38.84-11.26-59.23
					c-0.09-5.62-0.03-11.24-0.01-16.87c0.02-7.37,3.85-11.2,11.26-11.21c42.88-0.01,85.76-0.01,128.64-0.01
					c55.65,0,111.3,0,166.95,0c8.89,0,12.31,3.43,12.37,12.22c0.09,14.99,0.06,29.97-2.67,44.79
					C435.41,322.71,424.94,346.31,408.35,367.08z"/>
			</g>
			<g>
				<path class="st6" d="M248.25,187.57c-2.79-0.09-5.48,2.42-5.59,5.21c-0.11,2.82,2.35,5.36,5.28,5.43c3,0.07,5.47-2.21,5.57-5.12
					C253.61,190.35,251.05,187.66,248.25,187.57z"/>
			</g>
			<g>
				<path class="st6" d="M270.26,161.98c-2.98-0.02-5.3,2.28-5.32,5.28c-0.02,2.93,2.36,5.41,5.23,5.44
					c2.87,0.03,5.31-2.42,5.35-5.35C275.55,164.4,273.21,162,270.26,161.98z"/>
			</g>
			<g>
				<path class="st6" d="M307.76,167.23c-2.74,0.02-5.4,2.71-5.39,5.44c0.02,2.79,2.62,5.33,5.45,5.31
					c2.93-0.02,5.39-2.48,5.36-5.37C313.15,169.81,310.53,167.21,307.76,167.23z"/>
			</g>
			<g>
				<path class="st6" d="M322.94,193.96c-2.87,0.01-5.26,2.48-5.26,5.44c0.01,2.98,2.38,5.41,5.29,5.41
					c2.84-0.01,5.3-2.53,5.29-5.43C328.24,196.43,325.8,193.95,322.94,193.96z"/>
			</g>
		</g>
	</g>
	<g>
		<g>
			<path class="st6" d="M283.27,211.52c-0.02,0-0.05,0-0.07,0c-1.84-0.02-3.65-0.79-4.95-2.12c-1.27-1.3-1.95-2.98-1.93-4.74
				c0.05-3.7,3.16-6.7,6.95-6.7c0.02,0,0.04,0,0.06,0c1.88,0.02,3.63,0.76,4.94,2.09c1.26,1.29,1.95,2.98,1.93,4.76v0
				C290.16,208.52,287.05,211.52,283.27,211.52z M283.27,200.97c-2.15,0-3.92,1.67-3.95,3.74c-0.01,0.95,0.37,1.88,1.07,2.6
				c0.75,0.76,1.78,1.21,2.83,1.22c0.01,0,0.03,0,0.04,0c2.11,0,3.91-1.7,3.94-3.74c0.01-0.97-0.37-1.9-1.07-2.62
				c-0.75-0.76-1.75-1.18-2.82-1.19C283.3,200.97,283.29,200.97,283.27,200.97z"/>
		</g>
		<g>
			<path class="st6" d="M216.95,217.02c-0.06,0-0.12,0-0.17,0c-3.63-0.1-6.75-3.4-6.69-7.06c0.03-1.76,0.82-3.51,2.16-4.8
				c1.33-1.28,3.08-2,4.82-1.95c3.78,0.08,6.69,3.16,6.63,7.02v0c-0.03,1.83-0.82,3.62-2.18,4.91
				C220.25,216.35,218.63,217.02,216.95,217.02z M216.94,206.2c-0.92,0-1.87,0.4-2.61,1.12c-0.77,0.74-1.22,1.72-1.24,2.69
				c-0.04,2.04,1.76,3.95,3.77,4.01c0.95,0.02,1.85-0.35,2.59-1.05c0.78-0.74,1.23-1.76,1.25-2.79c0.04-2.22-1.55-3.92-3.69-3.97
				C216.98,206.2,216.96,206.2,216.94,206.2z"/>
		</g>
		<g>
			<path class="st6" d="M351.12,222.22c-1.83,0-3.52-0.67-4.78-1.9c-1.27-1.24-1.99-2.95-2.01-4.79c-0.04-3.78,2.96-6.9,6.68-6.96
				c1.8-0.02,3.51,0.65,4.8,1.91c1.32,1.28,2.06,3,2.09,4.85c0.03,1.86-0.64,3.58-1.88,4.86c-1.24,1.28-2.95,2-4.8,2.03l0,0
				C351.19,222.22,351.16,222.22,351.12,222.22z M351.13,211.56c-0.02,0-0.04,0-0.06,0c-2.08,0.03-3.75,1.8-3.73,3.93
				c0.01,1.04,0.4,1.99,1.1,2.68c0.69,0.68,1.65,1.05,2.68,1.05c0.02,0,0.04,0,0.06,0l0,0c1.05-0.01,2-0.41,2.69-1.11
				c0.68-0.71,1.05-1.68,1.04-2.73c-0.01-1.05-0.43-2.02-1.17-2.74C353.03,211.94,352.1,211.56,351.13,211.56z"/>
		</g>
		<g>
			<path class="st6" d="M344.29,405.48l-0.64-0.56c-0.29-0.25-0.69-0.53-1.12-0.83c-1.26-0.88-2.69-1.87-3.1-3.44
				c-0.61-2.37,0.17-5.28,1.22-7.11c0.84-1.47,2.5-2.26,3.97-2.96c0.33-0.15,0.65-0.31,0.95-0.46c11.7-6.05,22.46-13.76,31.97-22.93
				c0.79-0.76,1.67-1.51,2.78-2.38c3.06-2.38,6.42-2.19,9.22,0.52c1.34,1.31,2.06,2.9,2.08,4.6c0.02,1.8-0.75,3.55-2.23,5.04
				c-0.43,0.44-0.86,0.88-1.29,1.32c-2.54,2.6-5.17,5.28-8.21,7.38c-8.28,5.7-16.85,11.25-25.13,16.62l-5.24,3.4
				c-0.8,0.52-1.68,0.76-2.7,1.03c-0.5,0.14-1.07,0.29-1.71,0.5L344.29,405.48z M384.7,366.14c-0.82,0-1.65,0.34-2.53,1.03
				c-1.02,0.8-1.83,1.49-2.54,2.17c-9.72,9.37-20.72,17.26-32.68,23.44c-0.33,0.17-0.68,0.34-1.04,0.51
				c-1.07,0.51-2.29,1.09-2.66,1.74c-0.87,1.52-1.26,3.58-0.92,4.88c0.13,0.49,1.15,1.2,1.9,1.72c0.24,0.16,0.48,0.33,0.71,0.5
				c0.39-0.11,0.75-0.21,1.08-0.3c0.84-0.23,1.45-0.39,1.85-0.65l5.24-3.4c8.27-5.36,16.82-10.9,25.06-16.58
				c2.81-1.93,5.33-4.51,7.77-7.01c0.44-0.45,0.87-0.89,1.31-1.33c0.9-0.91,1.37-1.92,1.36-2.9c-0.01-0.88-0.41-1.74-1.17-2.47
				C386.53,366.59,385.63,366.14,384.7,366.14z"/>
		</g>
		<g>
			<path class="st6" d="M396.17,364.08c-1.58,0-3.2-0.65-4.6-1.94c-2.62-2.41-3.07-5.61-1.19-8.57c1.66-2.61,3.3-4.77,5.01-6.62
				c0.92-0.99,2.17-1.5,3-1.85c0.2-0.08,0.37-0.15,0.49-0.21l0.34-0.19l0.39,0.01c2.96,0.05,5.5,1.38,6.79,3.56
				c1.1,1.86,1.13,4.06,0.08,6.04c-1.43,2.7-3.47,5.41-5.92,7.84C399.29,363.44,397.74,364.08,396.17,364.08z M399.89,347.73
				c-0.11,0.05-0.24,0.1-0.37,0.15c-0.62,0.26-1.47,0.61-1.94,1.12c-1.59,1.71-3.12,3.73-4.68,6.18c-1.37,2.15-0.38,3.77,0.68,4.75
				c1.64,1.51,3.42,1.55,4.87,0.1c2.23-2.23,4.1-4.69,5.38-7.12c0.56-1.05,0.55-2.15-0.02-3.11
				C403.11,348.6,401.66,347.83,399.89,347.73z"/>
		</g>
		<g>
			<g>
				<path class="st6" d="M404.5,461.77h-6.13l-0.19-0.05c-11.72-3.18-20.51-10.83-26.96-17.44c-9.29,7.01-16.53,7.26-26.3,1.08
					c-3.77-2.38-7.14-5.4-10.4-8.32c-0.74-0.67-1.49-1.33-2.23-1.99c-1.11-0.98-1.66-1.14-2.95-0.87l-3.58,0.75
					c-7.83,1.64-15.94,3.33-24.01,4.43c-19.15,2.62-38.54,1.41-57.63-3.59c-6.52-1.71-10.55-1.64-14.47,3.46
					c-2,2.6-4.92,4.39-7.75,6.12l-0.98,0.6c-9.48,5.86-18.08,5.34-25.58-1.54c-8.14,8.24-16.7,13.91-26.15,17.29l-0.25,0.09h-6.88
					l-0.27-0.11c-10.48-4.24-13.71-13.48-15.49-21.96c-2.97-14.17-3.12-29.3-0.46-49.07c0.09-0.7,0.15-1.42,0.2-2.14
					c0.14-1.85,0.28-3.76,1.05-5.51c2.57-5.83,0.21-9.79-3.68-15.16c-17.17-23.68-27.33-49.64-30.2-77.18
					c-1.45-13.95-1.52-27.84-1.46-43.26c0.04-10.78,8.83-19.48,20.01-19.81c2.4-0.07,3.02-0.58,3.68-3.04
					c3.77-14.06,15.17-23.13,29.74-23.68c1.76-0.07,2.27-0.49,2.83-2.41c6.22-21.25,22.35-33.41,44.29-33.41c0.16,0,0.33,0,0.49,0
					c3.88,0.05,6.13-0.54,7.73-3.75c1.02-2.04,2.6-3.7,4.13-5.31l0.49-0.52c0.39-0.42,0.84-0.8,1.35-1.15
					c1.21-1.43,12.66-14.44,35.19-21.45c1.25-0.67,2.82-1.18,4.66-1.54c1.2-0.23,2.4-0.43,3.59-0.62l1.57-0.34l0.02,0.1
					c27.18-3.79,50.73,4.67,70.01,25.15c0.1,0.11,0.2,0.22,0.29,0.33c0.45-0.84,0.84-1.57,1.23-2.3c1.9-3.61,3.8-7.23,5.69-10.84
					c5.02-9.57,10.2-19.47,15.49-29.12c1.63-2.97,4.06-5.91,7.22-8.73c8-7.12,17.88-8.25,27.11-3.09
					c15.95,8.9,30.86,19.45,44.33,31.34c9.67,8.54,10.98,21.33,3.26,31.82c-5.77,7.85-12.43,15.19-18.88,22.29
					c-2.13,2.35-4.26,4.69-6.36,7.06c-2.14,2.41-4.43,4.6-6.86,6.92c-0.59,0.56-1.18,1.13-1.78,1.7
					c6.71,3.05,11.29,6.81,14.31,11.71c2.04,3.31,3.73,7.05,4.88,10.8c0.53,1.72,0.87,1.88,2.38,1.95
					c12.47,0.59,20.77,8.82,21.15,20.96c0.59,19.26,0.45,39.86-4.59,60.06l0,0c-5.94,23.8-16.09,45.13-30.16,63.39
					c-1.8,2.34-2.18,4.27-1.49,7.67c4.58,22.72,5.09,41.62,1.59,59.48c-0.84,4.28-2.51,8.37-4.14,12.18
					c-1.97,4.6-5.7,8.01-11.39,10.43L404.5,461.77z M398.77,458.77h5.11c4.79-2.09,7.91-4.95,9.53-8.73
					c1.57-3.67,3.18-7.58,3.96-11.58c3.42-17.46,2.92-35.99-1.59-58.31c-0.71-3.53-0.63-6.6,2.06-10.09
					c13.82-17.94,23.79-38.89,29.63-62.29l0,0c4.95-19.84,5.09-40.19,4.5-59.24c-0.33-10.62-7.34-17.54-18.29-18.06
					c-2.85-0.14-4.23-1.24-5.11-4.07c-1.08-3.52-2.66-7.02-4.57-10.11c-3.01-4.89-7.63-8.41-14.97-11.4l-2.11-0.86l1.62-1.6
					c1.15-1.13,2.29-2.22,3.41-3.3c2.38-2.28,4.63-4.43,6.69-6.75c2.11-2.37,4.24-4.73,6.38-7.08c6.39-7.05,13-14.33,18.68-22.06
					c6.85-9.31,5.74-20.22-2.83-27.79c-13.31-11.75-28.05-22.17-43.81-30.97c-8.17-4.56-16.57-3.6-23.66,2.71
					c-2.91,2.59-5.12,5.26-6.58,7.93c-5.27,9.62-10.45,19.51-15.46,29.07c-1.9,3.62-3.79,7.24-5.7,10.85
					c-0.44,0.84-0.89,1.68-1.43,2.68l-2.08,3.89l-1.41-1.95c-0.27-0.37-0.49-0.7-0.69-0.98c-0.31-0.45-0.53-0.77-0.76-1.02
					c-18.91-20.09-42.08-28.17-68.86-24.02l-0.14,0.02c-1.14,0.18-2.28,0.37-3.44,0.59c-1.6,0.31-2.92,0.74-3.92,1.29l-0.28,0.12
					c-19.06,5.9-30.11,16.49-33.13,19.7l0.26,0.3l-1.44,0.97c-0.43,0.28-0.77,0.56-1.07,0.88l-0.5,0.53
					c-1.38,1.45-2.81,2.94-3.62,4.58c-2.52,5.05-6.71,5.45-10.44,5.41c-21.1-0.18-35.93,10.93-41.88,31.25
					c-0.67,2.29-1.81,4.42-5.59,4.56c-13.21,0.5-23.54,8.72-26.96,21.46c-1,3.72-2.76,5.15-6.49,5.26
					c-9.56,0.28-17.07,7.67-17.1,16.82c-0.06,15.33,0.01,29.14,1.45,42.94c2.81,27.01,12.79,52.49,29.65,75.73
					c3.32,4.58,7.46,10.29,4,18.13c-0.56,1.28-0.68,2.85-0.8,4.52c-0.06,0.76-0.11,1.55-0.22,2.32
					c-2.61,19.41-2.47,34.23,0.43,48.05c1.6,7.63,4.45,15.92,13.41,19.68h5.77c9.31-3.38,17.75-9.12,25.8-17.54l1.07-1.12l1.08,1.1
					c6.74,6.85,14.26,7.56,22.97,2.17l0.99-0.61c2.59-1.58,5.27-3.22,6.93-5.39c4.88-6.34,10.35-6.43,17.61-4.54
					c18.71,4.9,37.71,6.09,56.47,3.52c7.97-1.09,16.02-2.77,23.8-4.4l3.59-0.75c2.54-0.52,4,0.21,5.54,1.56
					c0.75,0.66,1.5,1.33,2.25,2c3.17,2.84,6.45,5.78,10.01,8.02c9.06,5.73,15.09,5.29,23.91-1.73l1.07-0.85l0.95,0.99
					C378.67,447.73,387.28,455.59,398.77,458.77z M400.13,451.25c-1.05,0-2.14-0.28-3.22-0.87l-0.84-0.45
					c-3.14-1.68-6.38-3.42-9.18-5.72c-8.94-7.33-15.94-16.63-22.18-25.59l-0.89-1.28l5.35-3.42c3.25-2.07,6.44-4.11,9.6-6.18
					c2.45-1.6,3.15-3.01,2.52-5.01c-0.39-1.24-1.14-2.1-2.16-2.49c-1.21-0.46-2.69-0.23-4.19,0.66c-2.03,1.2-4.07,2.48-6.04,3.72
					c-2.61,1.64-5.31,3.34-8.05,4.89c-16.66,9.47-34.58,15.63-53.25,18.31c-38.21,5.49-74.16-1.61-106.84-21.11
					c-0.95-0.57-1.88-1.15-2.82-1.74c-1.04-0.66-2.09-1.31-3.15-1.93c-2.06-1.21-4.87-2.07-6.51,0.71
					c-1.26,2.14-0.48,4.11,2.31,5.88c2.45,1.55,4.93,3.06,7.47,4.62c1.13,0.69,2.27,1.39,3.43,2.1l1.36,0.83l-0.91,1.3
					c-7.09,10.13-14.93,20.67-25.85,28.57c-5.14,3.72-8.78,4.88-11.79,3.77c-2.91-1.08-4.92-4.26-6.31-10.01
					c-1.61-6.64-2.53-14.1-2.82-22.81c-0.48-14.34,1.1-28.39,4.7-41.77c0.64-2.38,0.1-4.4-1.79-6.75
					c-10.15-12.54-18.4-26.68-24.52-42.04c-7.31-18.31-11.02-37.86-11.37-59.77c-0.07-4.36-0.05-8.78-0.03-13.06l0.02-3.83
					c0.03-8.19,4.56-12.7,12.76-12.7c32.36-0.01,64.72-0.01,97.08-0.01l198.5,0c9.66,0,13.81,4.1,13.87,13.71
					c0.1,16.13-0.04,30.65-2.69,45.07c-4.9,26.62-15.72,50.56-32.16,71.15l0,0c-2.71,3.4-3.32,6.36-2.23,10.91
					c5.17,21.63,5.76,41.4,1.81,60.45c-0.63,3.05-2.11,5.96-3.33,8.15C404.42,449.95,402.37,451.25,400.13,451.25z M368.06,418.19
					c6.71,9.55,12.89,17.28,20.72,23.7c2.58,2.11,5.69,3.78,8.7,5.4l0.85,0.46c2.47,1.33,3.99-0.18,4.82-1.68
					c1.12-2,2.47-4.64,3.02-7.3c3.86-18.61,3.27-37.95-1.79-59.14c-1.3-5.45-0.49-9.35,2.8-13.48h0
					c16.13-20.2,26.75-43.69,31.56-69.83c2.6-14.15,2.74-28.53,2.64-44.51c-0.05-8.02-2.79-10.73-10.87-10.73l-198.5,0
					c-32.36,0-64.72,0-97.08,0.01c-6.55,0-9.74,3.18-9.76,9.71l-0.02,3.84c-0.02,4.26-0.04,8.67,0.03,13
					c0.34,21.53,3.99,40.73,11.15,58.7c6.01,15.07,14.11,28.95,24.07,41.26c2.51,3.1,3.26,6.09,2.36,9.42
					c-3.52,13.09-5.07,26.85-4.6,40.89c0.28,8.51,1.18,15.77,2.74,22.21c1.12,4.63,2.57,7.22,4.43,7.9c1.92,0.71,4.86-0.4,9-3.39
					c10.08-7.29,17.53-17.05,24.24-26.56c-0.69-0.42-1.38-0.84-2.06-1.26c-2.55-1.56-5.04-3.08-7.5-4.64
					c-4.17-2.63-5.4-6.35-3.29-9.93c2.16-3.67,6.23-4.36,10.61-1.78c1.09,0.64,2.16,1.31,3.23,1.98c0.92,0.57,1.83,1.15,2.76,1.7
					c32.08,19.13,67.36,26.1,104.88,20.72c18.3-2.63,35.86-8.67,52.19-17.95c2.68-1.52,5.35-3.2,7.93-4.83
					c1.99-1.25,4.04-2.54,6.1-3.76c2.3-1.36,4.71-1.68,6.79-0.88c1.88,0.72,3.28,2.28,3.95,4.39c1.56,4.95-2.43,7.56-3.74,8.42
					c-3.18,2.08-6.38,4.12-9.63,6.2L368.06,418.19z M209.14,437.88c-0.58,0-1.14-0.04-1.62-0.09c-2.76-0.3-4.5-1.24-5.18-2.8
					c-0.67-1.55-0.18-3.44,1.47-5.63c0.47-0.62,0.93-1.34,1.41-2.09c1.46-2.28,2.98-4.64,5.3-5.33c2.17-0.64,4.52,0.62,6.8,1.85
					c0.87,0.47,1.69,0.91,2.46,1.23c0.89,0.37,1.77,0.75,2.97,1.27l4.92,2.14l-2.5,1.5c-1.3,0.78-2.53,1.54-3.72,2.27
					c-2.86,1.76-5.56,3.41-8.33,4.86l0,0C211.89,437.69,210.44,437.88,209.14,437.88z M211.76,424.76c-0.14,0-0.27,0.02-0.39,0.05
					c-1.25,0.37-2.52,2.34-3.63,4.07c-0.49,0.77-1,1.56-1.53,2.27c-1.06,1.41-1.26,2.3-1.11,2.64c0.15,0.34,0.96,0.81,2.75,1.01
					c1.63,0.18,3.04,0.03,3.89-0.41v0c2.68-1.4,5.33-3.03,8.15-4.76c0.42-0.26,0.84-0.51,1.27-0.78c-0.97-0.43-1.74-0.76-2.51-1.08
					c-0.91-0.38-1.84-0.87-2.74-1.36C214.43,425.64,212.8,424.76,211.76,424.76z M356.61,437.55c-0.71,0-1.41-0.1-2.07-0.35
					c-3.13-1.2-6.05-2.93-8.87-4.59c-1.14-0.67-2.28-1.34-3.43-1.98l-1.08-0.6l0.98-3.06l0.63-0.27c0.94-0.4,1.89-0.81,2.83-1.22
					c2.56-1.11,5.21-2.26,7.9-3.23c1.36-0.49,3.74-0.13,4.77,1.07c2.09,2.43,4,5.07,5.69,7.85c0.81,1.33-0.04,3.5-0.07,3.59
					c-0.13,0.32-0.51,1.28-1.46,1.55h0c-0.35,0.1-0.71,0.21-1.08,0.31C359.83,437.06,358.18,437.55,356.61,437.55z M345.27,428.89
					c0.64,0.37,1.29,0.75,1.93,1.13c2.84,1.68,5.53,3.26,8.42,4.38c1.15,0.44,3.13-0.14,4.87-0.66c0.22-0.07,0.43-0.13,0.65-0.19
					c0.1-0.3,0.18-0.73,0.18-0.96c-1.58-2.59-3.36-5.05-5.31-7.31c-0.22-0.17-1.15-0.32-1.47-0.2c-2.6,0.94-5.21,2.07-7.73,3.17
					C346.29,428.45,345.78,428.67,345.27,428.89z M361.62,433.4C361.62,433.4,361.62,433.4,361.62,433.4
					C361.62,433.4,361.62,433.4,361.62,433.4L361.62,433.4z M361.3,432.5L361.3,432.5L361.3,432.5z M420.85,230.24H145.2l0.34-1.78
					c1.51-7.86,5.38-12.8,11.51-14.68l0.44,1.43l-0.44-1.43c4.34-1.33,9.01-1.51,13.53-1.69l0.92-0.04
					c3.91-0.16,4.95-0.97,5.57-4.38c0.12-0.65,0.22-1.31,0.31-1.97c0.11-0.73,0.22-1.46,0.35-2.19c1.7-9.1,5.59-15.8,11.88-20.47
					c10.05-7.45,21.39-7.45,30.15-6.62c2.39,0.22,3.73-0.26,4.8-1.74l2.17-3.01c2.18-3.01,4.44-6.13,6.58-9.24l0.14-0.17
					c12.5-13.42,37.09-20.58,38.13-20.87l0.16-0.04c14.25-2.43,28.06-0.44,41.04,5.89c11.79,5.76,21.25,14.47,28.12,25.89
					c1.58,2.64,3.4,3.51,6.72,3.22c4.89-0.43,10.55-0.79,15.74,0.28c13.33,2.76,23.59,14.06,25.52,28.11
					c0.53,3.88,1.12,5.67,2.09,6.41c0.97,0.74,2.84,0.81,6.69,0.28c4.86-0.67,10.54,1.06,15.18,4.65c4.43,3.42,7.28,7.96,7.82,12.47
					L420.85,230.24z M148.89,227.24h268.45c-0.87-3.16-3.11-6.28-6.34-8.77c-4.02-3.1-8.86-4.62-12.94-4.05
					c-4.16,0.58-6.95,0.62-8.91-0.86c-1.96-1.49-2.68-4.2-3.25-8.4c-1.76-12.8-11.06-23.08-23.16-25.59
					c-4.79-0.99-9.97-0.66-14.87-0.23c-4.43,0.39-7.38-1.05-9.55-4.67c-6.56-10.92-15.6-19.25-26.86-24.74
					c-12.38-6.04-25.55-7.94-39.14-5.64c-1.8,0.52-24.86,7.4-36.61,19.93c-2.15,3.1-4.39,6.2-6.56,9.2l-2.17,3
					c-2.23,3.09-5.36,3.18-7.51,2.97c-12.22-1.16-20.88,0.71-28.08,6.05c-5.66,4.2-9.17,10.28-10.72,18.61
					c-0.13,0.69-0.23,1.38-0.33,2.08c-0.1,0.69-0.2,1.39-0.33,2.07c-1,5.48-3.84,6.66-8.4,6.84l-0.92,0.04
					c-4.32,0.17-8.79,0.34-12.76,1.56C153.34,218.05,150.37,221.52,148.89,227.24z M396.8,202.21l-0.63-2.04
					c-3.53-11.48-8.75-19.57-16.43-25.44c-8.31-6.35-17.69-8.63-28.69-6.97l-2.75,0.42l1.17-2.53c0.62-1.34,1.21-2.66,1.79-3.96
					c1.25-2.81,2.44-5.47,3.81-8.09h0c5.35-10.17,11.13-20.97,18.2-33.98c0.87-1.61,2.11-3.26,3.77-5.06
					c5.17-5.58,10.78-6.59,16.67-3.01c9.83,5.97,19.21,12.4,29.57,19.58c4.06,2.81,8.22,6.22,12.37,10.13
					c5.1,4.8,5.91,10.06,2.49,16.09c-2.36,4.16-5.05,7.87-8,11.03c-7.32,7.85-14.91,15.69-22.24,23.27
					c-2.55,2.64-5.1,5.27-7.65,7.92c-0.35,0.36-0.73,0.63-1.13,0.91c-0.19,0.13-0.39,0.27-0.62,0.45L396.8,202.21z M357.83,164.23
					c8.81,0,16.63,2.68,23.74,8.12c7.73,5.91,13.1,13.84,16.8,24.86c2.46-2.55,4.92-5.09,7.38-7.64c7.33-7.57,14.9-15.4,22.2-23.23
					c2.79-2.99,5.34-6.52,7.58-10.47c2.71-4.78,2.11-8.61-1.94-12.43c-4.04-3.81-8.09-7.12-12.03-9.84
					c-10.32-7.15-19.66-13.55-29.42-19.48c-4.63-2.81-8.73-2.02-12.91,2.49c-1.49,1.61-2.58,3.07-3.34,4.46
					c-7.06,12.99-12.84,23.78-18.18,33.94l0,0c-1.33,2.53-2.5,5.14-3.73,7.91c-0.23,0.51-0.46,1.03-0.69,1.54
					C354.84,164.31,356.35,164.23,357.83,164.23z"/>
			</g>
			<g>
				<path class="st6" d="M248.08,199.71c-0.06,0-0.11,0-0.17,0c-1.83-0.04-3.62-0.85-4.91-2.23c-1.25-1.33-1.91-3.02-1.84-4.76
					c0.14-3.59,3.52-6.72,7.13-6.65c1.75,0.05,3.5,0.88,4.8,2.28c1.27,1.36,1.97,3.1,1.92,4.79
					C254.9,196.8,251.8,199.71,248.08,199.71z M248.11,189.07c-1.93,0-3.87,1.84-3.95,3.77c-0.04,0.93,0.33,1.84,1.03,2.59
					c0.74,0.79,1.76,1.26,2.79,1.28c2.18,0.04,3.97-1.6,4.04-3.68c0.03-0.89-0.37-1.85-1.11-2.63c-0.77-0.82-1.75-1.3-2.71-1.33h0
					C248.18,189.07,248.14,189.07,248.11,189.07z"/>
			</g>
			<g>
				<path class="st6" d="M270.22,174.2c-0.02,0-0.04,0-0.06,0c-3.66-0.04-6.74-3.22-6.72-6.95c0.01-1.86,0.72-3.58,2.01-4.85
					c1.27-1.26,2.96-1.96,4.82-1.93c1.82,0.01,3.53,0.74,4.8,2.03c1.28,1.3,1.97,3.03,1.95,4.86
					C276.98,171.09,273.87,174.2,270.22,174.2z M270.22,163.48c-1.02,0-1.97,0.38-2.66,1.06c-0.71,0.7-1.11,1.67-1.11,2.73
					c-0.01,2.11,1.7,3.91,3.74,3.93c0.01,0,0.02,0,0.03,0c2.04,0,3.77-1.76,3.8-3.87c0.01-1.03-0.37-2-1.09-2.72
					c-0.71-0.72-1.66-1.13-2.68-1.13l0,0C270.24,163.48,270.23,163.48,270.22,163.48z"/>
			</g>
			<g>
				<path class="st6" d="M307.79,179.47c-1.74,0-3.5-0.75-4.82-2.06c-1.32-1.3-2.08-3.03-2.09-4.74c-0.02-3.54,3.32-6.91,6.87-6.94
					l0,0c0.02,0,0.03,0,0.05,0c3.57,0,6.85,3.26,6.88,6.86c0.02,1.78-0.68,3.48-1.97,4.79c-1.29,1.31-3.07,2.08-4.88,2.09
					C307.82,179.47,307.8,179.47,307.79,179.47z M307.78,168.73c-1.91,0.02-3.91,2.03-3.9,3.93c0,0.92,0.44,1.88,1.2,2.62
					c0.78,0.77,1.76,1.18,2.74,1.19c1.02-0.01,2.03-0.44,2.76-1.19c0.72-0.74,1.12-1.68,1.11-2.66c-0.02-1.97-1.94-3.89-3.88-3.89
					C307.79,168.73,307.78,168.73,307.78,168.73L307.78,168.73z"/>
			</g>
			<g>
				<path class="st6" d="M322.95,206.3c-1.81,0-3.51-0.72-4.79-2.03c-1.28-1.3-1.98-3.03-1.99-4.87c-0.01-3.75,3.09-6.93,6.75-6.94
					l0,0c0.01,0,0.01,0,0.02,0c3.67,0,6.78,3.16,6.8,6.9c0.01,1.8-0.74,3.59-2.05,4.91c-1.3,1.3-2.98,2.03-4.73,2.03
					C322.96,206.3,322.96,206.3,322.95,206.3z M322.94,195.46L322.94,195.46c-2.04,0.01-3.77,1.81-3.76,3.94
					c0,1.05,0.4,2.03,1.13,2.78c0.71,0.73,1.65,1.13,2.65,1.13c0,0,0,0,0.01,0c0.94,0,1.89-0.42,2.61-1.14
					c0.75-0.76,1.18-1.77,1.18-2.78C326.74,197.29,324.96,195.46,322.94,195.46C322.95,195.46,322.94,195.46,322.94,195.46z"/>
			</g>
		</g>
	</g>
</g>
<rect x="276.46" y="303.82" class="st8" width="15.43" height="149.22"/>
<rect x="241.11" y="449.25" class="st8" width="81.64" height="11.71"/>
<rect x="266.61" y="441.46" class="st8" width="33.43" height="11.57"/>
<path class="st5" d="M401.02,286.11c-1.33,3.82-3.08,7.49-6.95,9.18c-2.59,1.13-5.57,1.92-8.38,1.94
	c-28.25,0.14-56.5,0.08-84.75,0.08c-0.89,0-1.78,0-3.01,0c0,1.08,0,2.02,0,2.95c0,27.65,0.01,55.29,0,82.94
	c0,7.49-3.69,12.88-10.04,14.78c-8.38,2.51-17.11-3.56-17.68-12.29c-0.06-0.97-0.04-1.95-0.04-2.92c0-27.5,0-54.99,0-82.49
	c0-0.89,0-1.78,0-2.97c-1.01,0-1.88,0-2.74,0c-27.2,0-54.4,0.01-81.6,0c-6.91,0-12.13-3.34-14.16-9
	c-3.4-9.49,3.18-18.67,13.56-18.77c8.02-0.08,16.04-0.02,24.05-0.02c19.33,0,38.67,0,58,0c0.88,0,1.77,0,2.93,0
	c0-1.05,0-1.92,0-2.79c-0.05-27.65-0.07-55.29-0.19-82.94c-0.03-6.32,2.12-11.22,7.94-14.15c0.97-0.49,1.99-0.89,2.99-1.33
	c1.95,0,3.9,0,5.85,0c0.93,0.41,1.88,0.78,2.79,1.23c5.83,2.87,8.14,7.68,8.12,14.03c-0.06,27.79-0.03,55.58-0.03,83.37
	c0,0.94,0,1.88,0,2.94c1.26,0,2.15,0,3.05,0c28.39-0.12,56.79-0.23,85.18-0.37c5.02-0.02,9.32,1.54,12.32,5.67
	c1.2,1.65,1.88,3.68,2.79,5.54C401.02,282.51,401.02,284.31,401.02,286.11z"/>
</svg>
