<?xml version="1.0" encoding="UTF-8"?>
<svg id="Capa_1" fill="#ffffff" data-name="Capa 1" xmlns="http://www.w3.org/2000/svg" viewBox="0 0 566.93 566.93">
  <defs>
    <style>
      .cls-1 {
        stroke-width: 0px;
      }
    </style>
  </defs>
  <path class="cls-1" d="m405.81,286.15c-1.33,3.82-3.08,7.49-6.95,9.18-2.59,1.13-5.57,1.92-8.38,1.94-28.25.14-56.5.08-84.75.08h-3.01v2.95c0,27.65,0,55.29,0,82.94,0,7.49-3.69,12.88-10.04,14.78-8.38,2.51-17.11-3.56-17.68-12.29-.06-.97-.04-1.95-.04-2.92,0-27.5,0-54.99,0-82.49,0-.89,0-1.78,0-2.97h-2.74c-27.2,0-54.4,0-81.6,0-6.91,0-12.13-3.34-14.16-9-3.4-9.49,3.18-18.67,13.56-18.77,8.02-.08,16.04-.02,24.05-.02,19.33,0,38.67,0,58,0,.88,0,1.77,0,2.93,0,0-1.05,0-1.92,0-2.79-.05-27.65-.07-55.29-.19-82.94-.03-6.32,2.12-11.22,7.94-14.15.97-.49,1.99-.89,2.99-1.33,1.95,0,3.9,0,5.85,0,.93.41,1.88.78,2.79,1.23,5.83,2.87,8.14,7.68,8.12,14.03-.06,27.79-.03,55.58-.03,83.37v2.94c1.26,0,2.15,0,3.05,0,28.39-.12,56.79-.23,85.18-.37,5.02-.02,9.32,1.54,12.32,5.67,1.2,1.65,1.88,3.68,2.79,5.54v5.4Z"/>
</svg>