<?xml version="1.0" encoding="utf-8"?>
<!-- Generator: Adobe Illustrator 28.0.0, SVG Export Plug-In . SVG Version: 6.00 Build 0)  -->
<svg version="1.1" fill="#ffffff" id="Capa_1" xmlns="http://www.w3.org/2000/svg" xmlns:xlink="http://www.w3.org/1999/xlink" x="0px" y="0px"
	 viewBox="0 0 566.93 566.93" style="enable-background:new 0 0 566.93 566.93;" xml:space="preserve">
<style type="text/css">
	.st0{display:none;fill:#141414;}
	.st1{display:none;fill:#EA911B;}
	.st2{display:none;}
	.st3{display:inline;fill:#FFFFFF;}
	.st4{display:inline;}
</style>
<circle class="st0" cx="284.53" cy="283.46" r="275.33"/>
<circle class="st1" cx="284.53" cy="283.46" r="275.33"/>
<g id="Botanas" class="st2">
	<path class="st3" d="M70.84,302.32c3-8.76,8.17-15.47,17.62-17.71c2.79-0.66,5.78-0.69,8.68-0.7
		c60.98-0.04,121.97-0.05,182.95,0.04c3.14,0,5.55-0.82,7.87-2.88c4.45-3.97,9.08-7.73,13.78-11.69
		c-9.17-14.9-18.19-29.57-27.23-44.24c-14.15-22.96-28.6-45.75-42.33-68.96c-5.39-9.11-15.8-7.96-20.57-0.02
		c-21.25,35.4-43.15,70.41-64.78,105.59c-2.25,3.66-4.88,6.63-9.58,6c-6.21-0.84-9.04-7.41-5.61-13.12
		c6.24-10.36,12.66-20.61,19.01-30.91c15.91-25.8,31.75-51.63,47.75-77.38c9.43-15.17,28.57-18.47,41.22-7.02
		c2.93,2.65,5.11,6.2,7.32,9.54c3.43,5.19,6.58,10.56,9.61,15.46c6.44-2.54,12.28-5.64,18.51-7.17c23.88-5.9,47.9,4.66,60.13,26.09
		c1.36,2.38,2.71,3.13,5.44,3.21c13.87,0.39,26,5.32,36.23,14.78c0.82,0.75,1.62,1.52,2.44,2.27c0.1,0.09,0.24,0.12,0.71,0.33
		c9.89-8.27,19.84-16.74,29.94-25.01c8.19-6.7,18.27-7.07,26.08-0.89c2.33,1.85,4.37,4.35,5.86,6.94
		c17.45,30.37,19.56,61.95,7.1,94.59c-0.48,1.26-0.97,2.52-1.72,4.45c9.91,0,19.31-0.09,28.7,0.02c10.29,0.13,19.5,6.87,21.63,16.89
		c1.02,4.82,0.67,10.27-0.4,15.15c-6.25,28.52-22.1,51.25-43.52,70.46c-13.55,12.15-28.68,21.99-45,29.96
		c-2.89,1.41-4.09,2.96-3.99,6.29c0.18,5.96,0.22,12-0.51,17.91c-1.27,10.32-9.96,17.92-20.33,17.93
		c-65.99,0.07-131.99,0.08-197.98,0c-10.93-0.01-19.66-8.04-20.69-18.99c-0.53-5.66-0.45-11.4-0.3-17.1
		c0.08-2.93-0.93-4.45-3.56-5.72c-20.7-10.04-39.45-22.87-55.34-39.61c-17.3-18.22-29.62-39.14-34.42-64.1c-0.1-0.52-0.46-1-0.7-1.5
		C70.84,308.45,70.84,305.39,70.84,302.32z M387.97,421.71c-2.02,0-3.66,0-5.29,0c-58.75,0-117.5,0-176.25,0
		c-1.53,0-3.09,0.1-4.58-0.14c-3.91-0.63-6.89-3.85-7.24-7.59c-0.33-3.53,2.05-7.38,5.56-8.42c1.68-0.5,3.56-0.45,5.36-0.45
		c61.81-0.02,123.62-0.01,185.43-0.06c1.89,0,3.95-0.2,5.63-0.97c15.98-7.4,30.89-16.52,44.18-28.13
		c20.07-17.54,34.98-38.32,40.5-64.95c1.64-7.88-0.48-10.47-8.61-10.47c-24.64-0.01-49.28,0-73.92,0c-100.79,0-201.58,0-302.37,0.01
		c-7.49,0-9.82,2.94-8.34,10.12c4.51,21.95,15.64,40.24,31.05,56.12c16,16.48,35.03,28.63,55.82,38.11c4.65,2.12,6.8,5.34,6.7,10.39
		c-0.12,6.26-0.04,12.53-0.02,18.79c0.02,7.03,0.88,7.88,7.97,7.88c63.48,0,126.96,0,190.44,0c0.97,0,1.95-0.02,2.92-0.01
		c3.04,0.03,4.87-1.63,5-4.48C388.14,432.35,387.97,427.23,387.97,421.71z M265.92,179.55c16.16,26.21,32.36,52.48,48.73,79.03
		c17.63-14.75,34.78-29.11,52.2-43.68c-1.15-1.09-2.1-2.08-3.13-2.96c-14.51-12.29-35.5-11.72-49.84,1.35
		c-4.72,4.3-9.68,4.51-13.18,0.56c-3.34-3.76-2.88-8.9,1.92-12.71c5.28-4.2,11.06-7.76,16.66-11.63
		C308.74,171.58,282.49,166.27,265.92,179.55z M439.82,238.81c1.22-12.3-3.88-31.24-11.88-44.76c-2.74-4.63-4.21-4.94-8.38-1.47
		c-11.42,9.51-22.8,19.07-34.2,28.62c-4.4,3.69-8.79,7.38-13.75,11.55C394.89,234.82,417.25,236.81,439.82,238.81z M370.95,249.44
		c0.25,0.92,0.25,1.22,0.4,1.4c8.79,10.57,17.56,21.16,26.43,31.66c0.67,0.8,2.11,1.32,3.2,1.34c8.33,0.11,16.67,0.11,25-0.01
		c1.03-0.01,2.52-0.66,2.98-1.48c4.69-8.22,7.98-16.98,9.7-26.88C416.03,253.46,393.68,251.47,370.95,249.44z M340.64,258.6
		c-10.26,8.61-19.77,16.59-29.91,25.1c9.85,0,18.55,0,27.6,0C339.07,275.56,339.81,267.59,340.64,258.6z M377.03,283.74
		c-6.74-8.05-12.9-15.41-19.78-23.63c-0.73,8.63-1.36,16.03-2.01,23.63C362.52,283.74,369.28,283.74,377.03,283.74z"/>
	<path class="st3" d="M253.77,255.03c-0.17,4.48-4,8.09-8.49,7.98c-4.46-0.1-8.17-3.94-8.11-8.39c0.06-4.6,4.16-8.46,8.72-8.21
		C250.35,246.65,253.94,250.58,253.77,255.03z"/>
	<path class="st3" d="M213.71,205.18c-0.02-4.71,3.36-8.16,8.05-8.22c4.75-0.06,8.63,3.74,8.51,8.34c-0.11,4.34-4.11,8.23-8.42,8.2
		C217.44,213.47,213.74,209.69,213.71,205.18z"/>
	<path class="st3" d="M190.14,254.74c-0.01-4.61,3.53-8.27,8.07-8.34c4.44-0.07,8.3,3.64,8.43,8.09c0.14,4.6-3.77,8.56-8.4,8.52
		C193.69,262.98,190.15,259.35,190.14,254.74z"/>
	<path class="st3" d="M389.98,389.1c-4.5-0.05-8.07-2.76-8.88-6.32c-0.9-3.97,0.45-7.2,3.98-9.24c5.05-2.93,10.3-5.51,15.27-8.54
		c11.95-7.3,22.69-16.09,31.82-26.77c2.29-2.68,4.97-4.53,8.7-3.71c6.76,1.49,8.79,8.72,4.07,14.34
		c-8.57,10.2-18.49,18.92-29.61,26.19c-6.74,4.4-13.83,8.26-20.83,12.24C392.86,388.23,390.95,388.73,389.98,389.1z"/>
</g>
<g>
	<path d="M451.01,262.62c8.94,0.13,16.96,6.88,18.81,16.92c0.89,4.83,0.58,10.29-0.34,15.17c-5.43,28.56-19.22,51.33-37.85,70.57
		c-11.78,12.17-24.94,22.02-39.13,30.01c-2.52,1.42-3.56,2.97-3.47,6.3c0.16,5.97,0.19,12.02-0.44,17.94
		c-1.11,10.34-8.66,17.95-17.68,17.96c-57.39,0.07-114.77,0.08-172.16,0c-9.5-0.01-17.1-8.05-18-19.02
		c-0.47-5.67-0.39-11.42-0.26-17.13c0.07-2.94-0.81-4.46-3.1-5.73c-18-10.05-34.3-22.9-48.12-39.67
		c-15.04-18.25-25.76-39.21-29.93-64.2c-0.09-0.53-0.4-1-0.61-1.5c0-3.07,0-6.14,0-9.21c2.61-8.78,7.1-15.49,15.32-17.73
		c2.43-0.66,5.03-0.7,7.55-0.7c53.03-0.04,106.06-0.05,159.09,0.04L451.01,262.62z M374.48,400.6c-1.76,0-3.18,0-4.6,0
		c-51.09,0-102.17,0-153.26,0c-1.33,0-2.68,0.1-3.99-0.15c-3.4-0.63-5.99-3.85-6.29-7.6c-0.28-3.54,1.78-7.39,4.83-8.43
		c1.46-0.5,3.1-0.45,4.66-0.45c53.75-0.02,107.5-0.01,161.25-0.06c1.64,0,3.44-0.2,4.89-0.97c13.89-7.41,26.86-16.55,38.42-28.18
		c17.45-17.56,30.41-38.38,35.22-65.05c1.42-7.9-0.41-10.49-7.49-10.49c-21.43-0.01-42.85,0-64.28,0c-87.65,0-175.29,0-262.94,0.01
		c-6.51,0-8.54,2.94-7.25,10.13c3.92,21.98,13.6,40.31,27,56.2c13.91,16.51,30.46,28.67,48.54,38.17c4.05,2.13,5.91,5.35,5.83,10.41
		c-0.1,6.27-0.03,12.55-0.02,18.82c0.02,7.04,0.76,7.89,6.93,7.89c55.2,0,110.4,0,165.61,0c0.85,0,1.69-0.02,2.54-0.01
		c2.64,0.03,4.23-1.63,4.35-4.49C374.62,411.27,374.48,406.14,374.48,400.6z"/>
	<path d="M376.23,367.95c-3.91-0.05-7.01-2.76-7.72-6.33c-0.79-3.97,0.39-7.21,3.46-9.26c4.39-2.93,8.96-5.52,13.28-8.56
		c10.39-7.31,19.73-16.11,27.67-26.81c1.99-2.68,4.32-4.54,7.57-3.72c5.88,1.49,7.65,8.74,3.54,14.36
		c-7.45,10.21-16.08,18.95-25.75,26.23c-5.86,4.41-12.03,8.27-18.11,12.26C378.73,367.07,377.07,367.57,376.23,367.95z"/>
	<path d="M242.91,143.92c2.89,0.17,5.1,1.57,6.29,4.5c1.31,3.22,0.74,6.2-1.43,8.76c-3.49,4.12-4.59,8.94-2.99,14.2
		c0.66,2.18,2.01,4.26,3.45,5.97c9.59,11.4,9.98,28.25,0.83,39.95c-2.2,2.81-4.78,4.46-8.22,3.37c-5.25-1.66-6.82-8.3-3.01-12.93
		c3.44-4.18,4.57-8.95,2.97-14.21c-0.66-2.18-2.01-4.26-3.45-5.98c-9.54-11.33-10-28-0.99-39.75
		C238.08,145.56,240.03,143.82,242.91,143.92z"/>
	<path d="M305.8,208.21c0.16,7.91-2.8,18.41-9.3,27.02c-3.24,4.3-8.4,4.21-11.6,0.14c-3.12-3.97-3.6-10.76-0.39-14.91
		c6.16-7.98,5.84-21.16-0.57-29.87c-11.52-15.65-10.99-41.56,0.49-56.63c4.76-6.25,12.07-4.23,14.08,3.94
		c0.99,3.99,0.22,7.53-1.8,10.69c-6.31,9.87-6.14,19.51,0.42,28.87C302.38,184.96,305.32,193.77,305.8,208.21z"/>
	<path d="M339.83,143.95c1.7,0.08,3.93,1.44,5.16,4.35c1.35,3.2,0.85,6.21-1.31,8.77c-3.56,4.2-4.71,9.08-3.02,14.42
		c0.71,2.24,2.17,4.34,3.66,6.13c9.42,11.36,9.62,28.58,0.35,39.96c-2.55,3.12-5.34,4.12-8.32,2.96c-4.78-1.86-6.61-8.3-3.01-12.28
		c5.21-5.75,5.02-15.19-0.57-21.52c-9.54-10.81-9.3-28.27-0.18-39.44C334.22,145.32,336.07,143.88,339.83,143.95z"/>
</g>
<g class="st2">
	<path class="st4" d="M498.61,344.07c-1.65,4.64-2.78,9.54-5.04,13.86c-8.87,16.98-23.16,26.38-42.25,26.43
		c-99.42,0.26-198.84,0.12-298.25,0.09c-1.45,0-3.43,0.12-4.23-0.72c-1.63-1.68-3.46-3.9-3.66-6.04c-0.26-2.82,1.87-4.97,4.98-5.37
		c1.73-0.22,3.5-0.2,5.25-0.2c82.56-0.01,165.11-0.01,247.67-0.01c1.6,0,3.19,0,5.62,0c-1.15-1.4-1.8-2.28-2.54-3.08
		c-8.98-9.74-13.48-21.2-13.58-34.47c-0.5-70.97-50.61-131.39-120.16-144.96c-80.91-15.79-160.48,39.26-173.66,120.46
		c-1.62,10.01-2.48,20.45-1.55,30.48c1.36,14.67,10.44,24.39,24.25,29.48c5.97,2.2,8.04,4.71,6.68,8.62
		c-1.45,4.16-4.91,5.14-10.84,3.09c-19.88-6.88-33.09-25.46-33.14-46.58C84,259.6,137.58,193.43,211.23,178.07
		c1.59-0.33,3.48-1.96,4.17-3.47c10.87-23.6,39.29-30.6,59.81-14.71c1.06,0.82,3.21,1.15,4.46,0.69
		c24.61-9.14,46.5-5.39,65.42,13.33c0.87,0.86,2.21,1.61,3.4,1.75c36.89,4.32,68.54,19.56,95.13,45.43
		c0.87,0.84,1.78,1.68,2.46,2.67c1.96,2.86,1.66,5.7-0.83,8.01c-2.37,2.19-5.18,2.16-7.79,0.37c-1.32-0.9-2.37-2.19-3.53-3.31
		c-20.39-19.61-44.4-32.42-73.04-38.75c1.06,0.83,1.33,1.07,1.64,1.26c0.34,0.21,0.71,0.38,1.07,0.56
		c9.74,4.75,13.46,13.3,15.09,23.37c1.55,9.59,4.92,11.79,14.24,8.81c15.92-5.1,33.59,6.63,33.33,24.76
		c-0.06,4.16,0.97,6.35,4.03,8.87c9.67,7.98,14.91,18.56,16.5,30.25c8.76,1.67,17.25,3.29,25.97,4.96
		c-0.79-2.44-1.45-5.72-2.86-8.64c-4.98-10.27-10.36-20.35-15.25-30.66c-0.96-2.02-1.25-5.21-0.27-7.02c0.85-1.58,3.92-2.66,6-2.64
		c1.56,0.01,3.57,1.81,4.59,3.34c11.35,17.13,18.96,35.83,23.15,55.96c0.56,2.68,1.98,5.18,3.02,7.75
		c2.49,6.17,4.99,12.34,7.49,18.51C498.61,334.36,498.61,339.22,498.61,344.07z M386.83,261.07c12.02,23.46,17.72,48.16,18.21,74.34
		c0.34,18.43,11.97,32.39,29.28,35.69c7.15,1.36,14.8,1.09,22.11,0.41c17.61-1.62,32.19-20.58,29.83-38.01
		c-3-22.17-21.42-35.42-43.44-31.23c-4.96,0.94-7.94-1.56-8.15-6.67c-0.13-3.08-0.24-6.2-0.81-9.22
		C429.88,265.59,405.92,252.54,386.83,261.07z M345.39,210.37c1.16-15.29-6.15-28.79-19.55-36.17c-13.9-7.65-28.27-8.05-42.69-1.49
		c-5.41,2.46-10.12,2.14-14.47-2.02c-0.87-0.84-1.84-1.59-2.83-2.28c-14.18-9.92-31.23-2.7-35.99,6.86
		C272.81,172.05,311.2,183.52,345.39,210.37z M413.57,248.12c-0.11-6.76-4.74-12.16-10.8-12.53c-3-0.18-6.15,0.39-9.09,1.17
		c-13.07,3.43-24.55-3.78-26.92-17.09c-0.52-2.91-0.91-5.86-1.74-8.68c-1.04-3.56-3.14-6.35-6.75-7.63
		c-0.48,4.62-0.64,9.05-1.49,13.35c-0.48,2.41-0.01,3.78,1.58,5.6c6.11,6.98,12.12,14.06,17.8,21.39c4.36,5.62,4.13,5.87,10.82,4.02
		C395.77,245.3,404.52,245.75,413.57,248.12z"/>
	<path class="st4" d="M229.67,209.95c0.02,3.32-2.58,5.9-5.84,5.8c-3.12-0.09-5.48-2.56-5.49-5.73c-0.01-3.24,2.7-5.97,5.82-5.86
		C227.15,204.26,229.66,206.9,229.67,209.95z"/>
	<path class="st4" d="M359.1,337.41c0.08,2.96-2.46,5.66-5.47,5.83c-3.33,0.18-5.96-2.24-6.05-5.56c-0.08-3.22,2.17-5.63,5.38-5.78
		C356.24,331.75,359.02,334.25,359.1,337.41z"/>
	<path class="st4" d="M146.27,343.13c0.06,3.07-2.36,5.64-5.42,5.79c-3.38,0.16-5.9-2.19-5.96-5.56c-0.05-3.26,2.14-5.62,5.34-5.76
		C143.55,337.44,146.21,339.88,146.27,343.13z"/>
	<path class="st4" d="M302.51,349.41c0.05,3.17-2.7,5.96-5.83,5.9c-3.01-0.05-5.5-2.61-5.55-5.7c-0.05-3.25,2.18-5.67,5.36-5.81
		C299.78,343.65,302.46,346.14,302.51,349.41z"/>
	<path class="st4" d="M450.85,355.85c-1.47-1.18-3.87-2.22-4.61-3.97c-0.75-1.75-0.65-4.9,0.48-6.23
		c3.98-4.69,8.43-9.02,12.98-13.17c2.34-2.13,5.24-1.86,7.68,0.32c2.46,2.2,3.03,5.3,1.05,7.58c-4.29,4.95-9.12,9.43-13.84,14
		C453.9,355.04,452.66,355.16,450.85,355.85z"/>
	<path class="st4" d="M433.06,322.19c4.45,0.09,7.71,4.76,5.27,8.4c-2.24,3.36-5.32,6.43-8.66,8.7c-3.68,2.5-8.8-1.08-8.66-5.54
		C421.14,329.88,429.24,322.11,433.06,322.19z"/>
	<g class="st4">
		<path d="M167.36,315.01c-0.67-1.5-0.66-3.28,0.18-4.83l33.57-61.85c1.44-2.65,4.75-3.63,7.39-2.19c2.64,1.44,3.63,4.75,2.19,7.39
			l-33.57,61.85c-1.44,2.65-4.75,3.63-7.39,2.19C168.64,316.98,167.83,316.07,167.36,315.01z"/>
	</g>
	<g class="st4">
		<path d="M215.51,318.29c-0.67-1.5-0.66-3.28,0.18-4.83l33.57-61.85c1.44-2.65,4.75-3.63,7.39-2.19c2.64,1.44,3.63,4.75,2.19,7.39
			l-33.57,61.85c-1.44,2.65-4.75,3.63-7.39,2.19C216.79,320.26,215.98,319.34,215.51,318.29z"/>
	</g>
	<g class="st4">
		<path d="M263.44,318.29c-0.67-1.5-0.66-3.28,0.18-4.83l33.57-61.85c1.44-2.65,4.75-3.63,7.39-2.19c2.64,1.44,3.63,4.75,2.19,7.39
			l-33.57,61.85c-1.44,2.65-4.75,3.63-7.39,2.19C264.72,320.26,263.91,319.34,263.44,318.29z"/>
	</g>
</g>
<g class="st2">
	<path class="st4" d="M476.04,319.57c-0.62,2.41-1.22,4.84-1.88,7.24c-4.2,15.24-13.76,26.42-26.7,34.95
		c-14.9,9.81-31.57,14.95-48.94,18.08c-14.85,2.68-29.88,4.48-44.58,7.77c-16.81,3.76-32.3,11.33-47.72,18.86
		c-15.95,7.79-31.72,16.17-49.18,20.1c-50.91,11.46-94.81-0.49-129.23-40.76c-16.25-19.01-23.95-41.72-23.88-66.9
		c0.04-14.17,0.06-28.34,0-42.51c-0.18-40.54,18.66-69.33,54.29-87.6c19.25-9.87,39.99-14.79,61.34-17.53
		c20.99-2.69,42.03-2.75,63.07-1.3c21.25,1.47,42.26,4.73,63.02,9.52c4.81,1.11,7.48,4.89,6.51,8.88c-1.06,4.37-4.51,6.36-9.45,5.52
		c-14.88-2.53-29.68-5.76-44.66-7.35c-16.21-1.72-32.59-2.55-48.89-2.56c-20.35-0.02-40.53,2.53-60.14,8.37
		c-19.16,5.7-36.79,14.14-50.62,29.09c-11.59,12.53-17.51,27.52-19.32,44.4c-5.43,50.57,31.65,93.26,79.95,103.92
		c28.76,6.35,55.91,1.25,82.1-11.17c12.66-6,25.28-12.1,38.02-17.92c21.41-9.77,44.03-14.9,67.36-17.53
		c16.89-1.9,33.23-6.2,48.28-14.47c6.84-3.76,13.1-8.36,17.8-14.68c10.85-14.62,13.02-32.42-1.09-47.96
		c-10.1-11.12-22.48-19.03-35.58-25.98c-3.62-1.92-7.39-3.57-11.07-5.4c-4.69-2.34-6.36-6.36-4.36-10.35
		c1.94-3.87,6.05-5.08,10.59-2.98c16.64,7.72,32.55,16.62,45.92,29.42c8.98,8.59,16.14,18.32,18.55,30.89
		c0.04,0.2,0.31,0.35,0.47,0.52C476.04,281.29,476.04,300.43,476.04,319.57z M461.37,306.74c-2.88,2.57-5.26,4.94-7.88,7
		c-18.7,14.68-40.7,21.03-63.7,23.79c-23.82,2.86-46.85,8.02-68.61,18.28c-11.58,5.46-23.1,11.06-34.69,16.5
		c-25.97,12.19-53.03,17.94-81.73,13.41c-34.55-5.45-62.28-22.07-82.54-50.79c-0.62-0.88-1.23-1.77-1.85-2.66
		c-0.49,1.43-0.51,2.53-0.29,3.58c4.64,22.98,16.16,41.95,34.6,56.24c32.19,24.95,68.26,30.32,106.51,17.76
		c16.31-5.36,31.71-13.57,47.35-20.85c20.24-9.42,41.03-16.93,63.23-20.22c12.41-1.84,24.87-3.65,37.07-6.46
		c13.75-3.17,26.68-8.64,37.53-18.09C457.6,334.43,462.28,321.98,461.37,306.74z"/>
	<path class="st4" d="M265.67,212.76c-31.92,0.49-55.74,2.16-78.51,10.8c-8.19,3.11-15.83,7.19-22.56,12.87
		c-13.81,11.66-18.01,26.99-16.74,44.29c0.98,13.32,6.13,24.98,14.63,35.24c3.04,3.68,2.77,7.93-0.39,10.69
		c-3.12,2.73-7.62,2.28-10.67-1.06c-18.51-20.28-24.01-54.45-12.63-79.2c7.65-16.64,21.24-26.98,37.46-34.23
		c16.5-7.37,34.01-10.71,51.89-12.55c17.77-1.83,35.56-1.98,53.32-0.56c48.19,3.85,94.38,15.01,137.07,38.51
		c7.58,4.17,14.52,9.23,19.85,16.17c8.38,10.91,7.65,22.55-2.05,32.35c-7.22,7.29-16.27,11.64-25.66,15.32
		c-12.33,4.83-25.15,7.59-38.27,9.26c-24.45,3.1-47.36,11.15-69.59,21.56c-15.62,7.31-31.34,14.5-47.38,20.84
		c-12.15,4.81-25.19,5.59-38.24,4.91c-0.84-0.04-1.69-0.15-2.51-0.34c-4.21-0.95-6.47-3.99-6.09-8.11c0.36-3.78,3.7-6.84,7.87-6.42
		c20.55,2.03,39.02-4.58,57.22-13c17.74-8.21,35.53-16.41,53.68-23.62c16.56-6.58,34.16-9.37,51.82-11.69
		c14.61-1.92,28.5-6.55,41.04-14.47c11.82-7.48,12.19-13.29,1.71-22.56c-8.56-7.56-19.02-11.96-29.21-16.65
		c-26.85-12.35-55.13-20.06-84.34-24.02C291.61,214.81,274.71,213.65,265.67,212.76z"/>
	<path class="st4" d="M209.2,330.08c-9.54-0.14-18.36-2.23-25.89-8.18c-10.65-8.41-10.6-21.94,0.01-30.4
		c13.55-10.79,38.02-10.83,51.61-0.09c10.79,8.53,10.79,22.18-0.05,30.62C227.29,327.95,218.47,329.95,209.2,330.08z M209.19,298
		c-5.66,0.23-11.1,1.15-15.86,4.36c-4.3,2.9-4.28,5.7-0.11,8.7c7.87,5.67,24.16,5.65,31.99-0.05c4.12-3,4.08-5.83-0.23-8.7
		C220.19,299.13,214.75,298.24,209.19,298z"/>
	<g class="st4">
		<path d="M289.98,314.66c-1.85,0-3.69-0.83-4.91-2.41l-61.73-80.17c-2.09-2.71-1.58-6.6,1.13-8.68c2.71-2.08,6.6-1.58,8.68,1.13
			l61.73,80.17c2.09,2.71,1.58,6.6-1.13,8.68C292.63,314.24,291.3,314.66,289.98,314.66z"/>
	</g>
	<g class="st4">
		<path d="M326.16,298.14c-1.86,0-3.7-0.84-4.92-2.43l-48.57-63.44c-2.08-2.71-1.56-6.6,1.15-8.68c2.71-2.08,6.6-1.56,8.68,1.15
			l48.57,63.44c2.08,2.71,1.56,6.6-1.15,8.68C328.79,297.73,327.47,298.14,326.16,298.14z"/>
	</g>
	<g class="st4">
		<path d="M365.1,289.58c-1.9,0-3.77-0.87-4.99-2.51l-38.94-52.77c-2.03-2.75-1.45-6.63,1.31-8.66c2.75-2.03,6.63-1.45,8.66,1.31
			l38.94,52.77c2.03,2.75,1.45,6.63-1.31,8.66C367.66,289.18,366.37,289.58,365.1,289.58z"/>
	</g>
	<g class="st4">
		<path d="M395.66,279.4c-1.84,0-3.66-0.82-4.88-2.38l-20.25-25.91c-2.1-2.69-1.63-6.58,1.07-8.69c2.7-2.1,6.58-1.63,8.69,1.07
			l20.25,25.91c2.1,2.69,1.63,6.58-1.07,8.69C398.34,278.97,396.99,279.4,395.66,279.4z"/>
	</g>
</g>
<g class="st2">
	<g class="st4">
		<path d="M341.29,174.54h11.57l10.46,1.39l7.18,2.89c0,0,2.35,1.46,3.8,0.97c1.45-0.49,6.51-1.07,6.51-1.07l2.88,1.07l4.7-0.18
			c0,0,12.66-7.29,26.14,12.05c1.37,1.97,32.16,48.39,35.19,58.27c0.3,0.98,0.53,2.62,0.53,3.64c0.02,50.04,0.02,100.08,0.01,150.13
			c0,4.25-1.48,5.59-6.22,5.59c-101.85,0.01-203.71,0-305.56,0.04c-2.77,0-4.79-0.75-6.26-2.75c0-50.43,0-100.85,0-151.28
			c0-3.38,2-6.53,5.18-7.68c0.02-0.01,0.04-0.01,0.06-0.02c62.15-21.88,140.16-50.12,202.33-71.94 M141.7,311.79
			c7.69,0.98,13.01,5.67,18.91,9.62c6.44,4.31,14.79,4.15,21.34-0.07c2.16-1.4,4.15-3.01,6.25-4.48c9.6-6.74,22.07-7.31,32.3-1.36
			c2.75,1.6,5.19,3.6,7.8,5.37c7.38,5.01,16.15,4.9,23.35-0.27c1.52-1.09,3.01-2.23,4.52-3.32c10.73-7.75,24.4-7.88,35.34-0.33
			c1.71,1.18,3.34,2.44,5.03,3.64c7.47,5.3,16.02,5.34,23.57,0.1c1.7-1.18,3.34-2.44,5.03-3.63c10-7.05,22.37-7.57,33.06-1.28
			c2.39,1.41,4.54,3.15,6.79,4.75c7.59,5.42,16.55,5.39,24.09-0.07c1.52-1.1,3-2.23,4.52-3.32c9.76-7.02,22.31-7.67,32.79-1.57
			c2.92,1.7,5.49,3.85,8.35,5.64c1.77,1.11,3.78,1.93,6,3.04c0-22.98,0-45.29,0-67.82c-1.63,0-3.07,0-4.51,0
			c-66.15,0-132.3,0-198.46-0.01c-1.44,0-2.9-0.06-4.33-0.21c-2.57-0.28-3.84-1.76-3.91-3.89c-0.07-2.02,1.15-3.5,3.44-3.99
			c1.28-0.28,2.66-0.29,3.99-0.29c66.05-0.01,132.1-0.01,198.15-0.01c1.28,0,2.56,0,4.11,0c-4.88-13.05-17.61-31.79-26.95-42.25
			c0.66-3.65-0.69-11.73,0.19-16.05c0.66-3.24-9.17-11.43-24.07-12.59c-6.25-0.49-19.19,1.71-31.72-2.59
			c-7.03-2.41-10.9-1.27-17.28,0c-7.89,1.57-14.37,14.03-15.85,15.85c-54.65,19.18-105.33,37.79-160.27,57.07
			c15.63,0.56,31.05,0.55,46.47,0.58c1.33,0,2.71,0.06,3.97,0.4c2.27,0.61,3.26,2.12,3.05,4.19c-0.19,1.96-1.41,3.19-3.62,3.52
			c-1.32,0.2-2.67,0.26-4.01,0.26c-21.22,0.02-42.44,0.01-63.67,0.01c-1.2,0-2.41,0-3.76,0C141.7,275.01,141.7,293.24,141.7,311.79z
			 M440.82,360.85c-6.71-0.91-11.77-4.32-16.67-8.02c-8.25-6.25-16.98-6.28-25.5-0.18c-1.52,1.09-3,2.24-4.55,3.29
			c-10.42,7.05-23.37,7.16-33.84,0.27c-2.07-1.36-3.97-2.91-6-4.32c-7.08-4.91-15.69-5-22.87-0.21c-1.81,1.21-3.5,2.55-5.26,3.82
			c-9.87,7.12-22.43,7.75-33.03,1.54c-2.48-1.45-4.73-3.23-7.04-4.9c-7.36-5.3-16.48-5.32-23.84-0.04
			c-1.68,1.21-3.31,2.48-5.02,3.65c-10.45,7.16-23.21,7.42-33.84,0.65c-2.34-1.49-4.44-3.27-6.74-4.81
			c-6.83-4.56-15.24-4.59-22.11-0.08c-2.07,1.36-3.98,2.89-6.01,4.31c-9.79,6.82-22.16,7.35-32.53,1.25c-3-1.76-5.65-3.97-8.59-5.82
			c-1.66-1.05-3.59-1.77-5.65-2.77c0,17.85,0,35.07,0,52.39c99.78,0,199.38,0,299.09,0C440.82,387.53,440.82,374.38,440.82,360.85z
			 M440.86,332.51c-7.39-1.02-12.67-5.23-18.23-9.17c-7.04-4.99-15.67-4.82-22.84,0.1c-1.71,1.17-3.34,2.44-5.04,3.63
			c-10.42,7.34-22.9,7.79-33.82,1.12c-2.54-1.55-4.79-3.47-7.26-5.1c-6.73-4.44-14.79-4.52-21.61-0.22
			c-2.01,1.27-3.86,2.73-5.77,4.13c-9.84,7.17-22.38,7.87-33.03,1.7c-2.66-1.54-5.04-3.47-7.55-5.22
			c-7.14-4.99-15.96-5.02-23.12-0.05c-1.87,1.3-3.63,2.7-5.51,3.98c-10.42,7.12-23.25,7.32-33.86,0.49
			c-2.42-1.56-4.58-3.42-6.99-4.97c-6.63-4.28-14.72-4.3-21.36-0.07c-2.17,1.38-4.16,2.99-6.25,4.47c-9.64,6.8-22.01,7.43-32.28,1.5
			c-2.93-1.69-5.49-3.85-8.35-5.64c-1.86-1.16-3.95-2.04-6.41-3.29c0,6.73-0.04,12.72,0.06,18.71c0.01,0.61,0.73,1.66,1.29,1.76
			c6.72,1.18,11.53,5.06,16.58,8.68c7.11,5.11,15.78,5.17,23.08,0.26c1.89-1.27,3.65-2.68,5.5-3.99c9.58-6.79,22.03-7.43,32.3-1.52
			c2.67,1.53,5.06,3.44,7.56,5.2c7.53,5.29,16.37,5.26,23.83-0.1c1.6-1.15,3.16-2.35,4.78-3.48c10.82-7.55,24.26-7.55,35.09,0
			c1.78,1.24,3.49,2.57,5.28,3.8c7.1,4.91,15.65,4.95,22.84,0.1c1.89-1.27,3.68-2.65,5.51-3.98c7.44-5.39,16.11-7.02,25.02-4.45
			c5.1,1.47,9.9,4.51,14.04,7.65c7.26,5.5,18.31,5.7,25.12,0.03c1.27-1.06,2.68-2,4.04-2.98c9.91-7.13,22.39-7.79,33.05-1.59
			c2.92,1.7,5.48,3.87,8.33,5.66c1.73,1.08,3.71,1.84,6,2.95C440.86,345.47,440.86,339.12,440.86,332.51z M389.65,189.72"/>
		<path d="M138.47,412.03c-3.77,0-6.53-1.26-8.43-3.86l-0.52-0.71V255.29c0-4.61,2.8-8.72,6.97-10.22l0.2-0.07
			c29.55-10.41,63.48-22.53,96.29-34.26c33.48-11.97,68.03-24.31,98.78-35.14c2.14-1.8,4.52-3.21,7.11-3.72l1.51-0.31
			c5.6-1.15,10.02-2.05,17.17,0.4c0.87,0.3,1.75,0.57,2.63,0.8l4.16,0.64l1.12,0.45c5.97,0.89,11.72,0.71,16.29,0.57
			c2.67-0.08,4.98-0.16,6.86-0.01c2.85,0.22,5.55,0.69,8.05,1.33c3.05,0.36,6.64,1.51,10.46,4.23c2.93,1.72,5.16,3.63,6.51,5.42
			c0.54,0.72,0.95,1.43,1.21,2.12c0.64,0.81,1.28,1.67,1.92,2.59c0.31,0.45,32.32,48.46,35.56,59.02c0.37,1.21,0.65,3.12,0.65,4.44
			c0.02,50.04,0.02,100.08,0.01,150.12c0,7.35-4.77,8.29-8.93,8.29l-62.68,0c-80.96,0-161.92,0-242.88,0.04
			C138.48,412.03,138.47,412.03,138.47,412.03z M134.92,405.57c0.69,0.65,1.69,1.05,3.54,1.05c0,0,0.01,0,0.01,0
			c80.96-0.04,161.92-0.04,242.88-0.04l62.68,0c3.52,0,3.52-0.38,3.52-2.88c0-50.04,0.01-100.08-0.01-150.12
			c0-0.77-0.2-2.16-0.41-2.85c-2.38-7.77-24.38-41.73-32.18-53.55c0.02,0.43,0.04,0.86,0.06,1.28c0.11,2.36,0.23,4.61,0.09,6.44
			c9.5,10.89,21.82,29.27,26.65,42.18l1.36,3.65H413.1c-58.71,0-117.42,0-176.13,0.01c-1.23,0-2.42,0.02-3.42,0.23
			c-1.34,0.29-1.32,0.86-1.3,1.25c0.02,0.56,0.04,1.14,1.5,1.3c1.24,0.13,2.56,0.2,4.04,0.2c66.15,0.01,132.3,0.01,198.46,0.01h7.21
			v74.9l-3.91-1.96c-0.69-0.35-1.36-0.66-2.01-0.97c-1.48-0.7-2.88-1.36-4.22-2.2c-1.35-0.84-2.62-1.75-3.85-2.64
			c-1.5-1.07-2.92-2.08-4.42-2.96c-9.5-5.53-20.94-4.98-29.85,1.43c-0.8,0.58-1.6,1.16-2.39,1.75c-0.71,0.52-1.42,1.05-2.13,1.56
			c-8.5,6.16-18.68,6.19-27.24,0.08c-0.67-0.48-1.34-0.97-2-1.46c-1.55-1.15-3.02-2.24-4.59-3.16c-9.72-5.72-20.98-5.29-30.13,1.16
			c-0.77,0.54-1.52,1.09-2.27,1.65c-0.92,0.67-1.84,1.35-2.78,2c-8.52,5.91-18.24,5.86-26.68-0.12c-0.74-0.53-1.48-1.07-2.21-1.6
			c-0.92-0.68-1.85-1.36-2.79-2.01c-10.03-6.92-22.38-6.81-32.22,0.3c-0.7,0.51-1.4,1.03-2.1,1.54c-0.81,0.6-1.61,1.2-2.43,1.79
			c-8.2,5.87-18.08,5.98-26.45,0.3c-0.97-0.66-1.92-1.35-2.86-2.03c-1.62-1.18-3.15-2.29-4.78-3.24
			c-9.31-5.43-20.57-4.95-29.38,1.24c-0.8,0.56-1.58,1.14-2.36,1.72c-1.27,0.94-2.58,1.92-3.97,2.82
			c-7.55,4.86-17.09,4.88-24.31,0.05c-1.05-0.7-2.09-1.43-3.12-2.16c-4.6-3.24-8.95-6.3-14.63-7.02l-2.36-0.3v-60.45h16.26
			c17.97,0,35.92,0,53.87-0.01c1.4,0,2.58-0.08,3.61-0.23c1.23-0.18,1.28-0.64,1.33-1.11c0.06-0.64,0.05-1.02-1.06-1.32
			c-1-0.27-2.21-0.31-3.27-0.31l-2.82-0.01c-14.27-0.02-29.02-0.04-43.74-0.57l-14.31-0.51l13.51-4.74
			c27.52-9.66,54.4-19.3,80.39-28.63c25.6-9.18,52.06-18.68,79.06-28.15c0.2-0.31,0.45-0.7,0.68-1.05c0.58-0.9,1.29-2.01,2.11-3.21
			c-28.42,10.03-59.55,21.16-89.83,31.98c-32.82,11.73-66.75,23.86-96.43,34.31c-2.07,0.74-3.43,2.81-3.43,5.15V405.57z
			 M274.04,308.62c6.55,0,13.11,2.03,19.01,6.1c0.99,0.68,1.96,1.39,2.93,2.1c0.71,0.52,1.42,1.04,2.13,1.55
			c6.56,4.65,13.83,4.68,20.47,0.08c0.9-0.63,1.78-1.27,2.66-1.92c0.78-0.57,1.56-1.15,2.36-1.71c10.93-7.71,24.39-8.23,35.99-1.4
			c1.82,1.07,3.46,2.29,5.06,3.47c0.64,0.47,1.28,0.94,1.92,1.4c6.68,4.76,14.31,4.74,20.93-0.06c0.7-0.51,1.39-1.02,2.08-1.53
			c0.81-0.6,1.63-1.2,2.45-1.8c10.67-7.67,24.36-8.33,35.73-1.71c1.73,1.01,3.31,2.14,4.85,3.24c1.22,0.87,2.37,1.7,3.58,2.45
			c0.58,0.36,1.19,0.69,1.86,1.03v-60.81h-1.8c-66.15,0-132.3,0-198.46-0.01c-1.67,0-3.18-0.08-4.62-0.23
			c-3.77-0.4-6.2-2.89-6.33-6.48c-0.12-3.39,2.01-5.96,5.57-6.73c1.52-0.33,3.02-0.35,4.56-0.35c58.71-0.01,117.42-0.01,176.13-0.01
			h22.09c-5.51-12.36-16.52-28.32-24.93-37.74l-0.88-0.99l0.24-1.3c0.25-1.4,0.12-4.03,0-6.58c-0.15-3.14-0.31-6.37,0.09-8.92
			c-1.84-2.19-3.63-3.86-5.33-5.13c-2.37-1.38-5.46-2.73-9.15-3.67c-3.27-0.2-5.32,0.88-5.51,0.99l-0.56,0.31l-0.66,0.04l-5.23,0.2
			l-2.78-1.03c-2.17,0.26-4.65,0.64-5.31,0.86c-2.27,0.78-4.86-0.5-5.88-1.1l-5.26-2.12c-1.62-0.26-3.27-0.6-4.92-1.03l-6.42-0.85
			h-11.39v-0.33l-0.98,0.2l0.38,1.09c-2.04,0.71-4.09,1.44-6.16,2.17c-3.24,3.01-6,7.32-7.47,9.62c-0.64,1.01-1.07,1.67-1.43,2.12
			l-0.48,0.59l-0.72,0.25c-27.26,9.57-53.99,19.16-79.84,28.43c-21.62,7.76-43.86,15.73-66.57,23.76c9.74,0.16,19.43,0.18,28.9,0.19
			l2.82,0.01c1.41,0,3.06,0.06,4.67,0.49c3.45,0.93,5.38,3.64,5.04,7.07c-0.32,3.21-2.53,5.42-5.91,5.93
			c-1.3,0.19-2.74,0.29-4.41,0.29c-17.95,0.01-35.92,0.01-53.87,0.01H144.4v50.39c5.83,1.31,10.32,4.48,14.69,7.55
			c1,0.7,2,1.41,3.02,2.09c5.43,3.63,12.64,3.59,18.37-0.1c1.24-0.8,2.43-1.68,3.68-2.61c0.82-0.61,1.64-1.22,2.48-1.81
			c10.56-7.41,24.05-7.98,35.21-1.48c1.87,1.09,3.58,2.33,5.24,3.54c0.9,0.65,1.8,1.31,2.72,1.93c6.42,4.35,13.99,4.27,20.26-0.22
			c0.79-0.57,1.58-1.15,2.36-1.73c0.71-0.53,1.43-1.06,2.15-1.58C260.55,310.78,267.29,308.62,274.04,308.62z M443.52,403.57h-304.5
			v-59.4l3.88,1.87c0.63,0.31,1.26,0.59,1.86,0.86c1.42,0.64,2.76,1.24,4.05,2.06c1.39,0.87,2.71,1.82,3.99,2.73
			c1.54,1.1,2.98,2.13,4.53,3.04c9.36,5.51,20.71,5.07,29.61-1.13c0.82-0.57,1.62-1.16,2.42-1.76c1.17-0.86,2.38-1.76,3.65-2.59
			c7.76-5.1,17.38-5.07,25.09,0.09c1.09,0.73,2.13,1.51,3.18,2.28c1.2,0.89,2.33,1.73,3.52,2.49c9.72,6.19,21.26,5.97,30.86-0.6
			c1.02-0.7,2.01-1.43,2.99-2.16c0.65-0.49,1.31-0.97,1.98-1.45c8.32-5.97,18.67-5.96,27,0.04c0.58,0.42,1.15,0.84,1.73,1.27
			c1.72,1.27,3.35,2.47,5.1,3.49c9.58,5.61,21.11,5.08,30.08-1.4c0.61-0.44,1.22-0.9,1.83-1.35c1.15-0.86,2.31-1.72,3.51-2.52
			c8.04-5.36,17.97-5.28,25.91,0.23c0.9,0.62,1.77,1.27,2.65,1.93c1.08,0.8,2.16,1.61,3.29,2.35c9.53,6.26,21.34,6.17,30.84-0.25
			c0.95-0.64,1.87-1.32,2.79-2c0.57-0.42,1.13-0.84,1.7-1.24c9.55-6.84,19.47-6.76,28.71,0.22c4.59,3.47,9.22,6.66,15.4,7.5
			l2.34,0.32V403.57z M144.43,398.16h293.68v-35.05c-6.3-1.4-11.15-4.76-15.59-8.13c-7.25-5.49-14.75-5.54-22.29-0.14
			c-0.55,0.39-1.1,0.8-1.64,1.2c-0.98,0.72-1.96,1.45-2.97,2.13c-11.34,7.67-25.46,7.78-36.84,0.29c-1.24-0.82-2.41-1.69-3.55-2.53
			c-0.83-0.62-1.66-1.23-2.51-1.82c-6.17-4.28-13.58-4.35-19.82-0.18c-1.12,0.75-2.2,1.56-3.28,2.36c-0.63,0.47-1.26,0.94-1.9,1.4
			c-10.74,7.74-24.52,8.39-35.98,1.68c-1.99-1.17-3.82-2.51-5.58-3.81c-0.56-0.41-1.12-0.82-1.68-1.23
			c-6.39-4.6-14.32-4.61-20.69-0.04c-0.64,0.46-1.28,0.93-1.91,1.4c-1.04,0.77-2.08,1.54-3.16,2.28
			c-11.44,7.83-25.21,8.1-36.83,0.69c-1.36-0.86-2.62-1.8-3.84-2.71c-0.97-0.72-1.94-1.45-2.95-2.12
			c-5.97-3.99-13.12-4.01-19.12-0.07c-1.15,0.75-2.25,1.56-3.41,2.42c-0.84,0.62-1.68,1.24-2.54,1.84
			c-10.66,7.43-24.24,7.95-35.45,1.36c-1.75-1.03-3.36-2.18-4.93-3.3c-1.27-0.91-2.47-1.77-3.73-2.55
			c-0.47-0.29-0.97-0.56-1.51-0.83V398.16z M443.56,356.94l-3.88-1.88c-0.72-0.35-1.41-0.66-2.07-0.96
			c-1.48-0.67-2.87-1.3-4.19-2.13c-1.36-0.85-2.64-1.77-3.88-2.67c-1.48-1.07-2.89-2.08-4.38-2.95c-9.74-5.65-20.99-5.12-30.11,1.45
			l-1.03,0.73c-1.02,0.72-1.98,1.4-2.86,2.13c-7.62,6.35-20.13,6.38-28.49,0.05c-4.89-3.71-9.19-6.06-13.15-7.21
			c-8-2.31-15.84-0.91-22.68,4.04l-1.67,1.23c-1.29,0.95-2.58,1.9-3.91,2.8c-8.15,5.49-17.82,5.45-25.89-0.12
			c-0.95-0.65-1.87-1.33-2.8-2.01c-0.82-0.61-1.65-1.21-2.49-1.8c-9.87-6.88-22.13-6.89-32-0.01c-0.93,0.65-1.83,1.32-2.74,1.98
			c-0.67,0.49-1.34,0.99-2.01,1.47c-8.4,6.03-18.48,6.08-26.96,0.12c-0.73-0.51-1.45-1.03-2.16-1.55c-1.76-1.28-3.41-2.49-5.2-3.51
			c-9.34-5.37-20.6-4.84-29.39,1.39c-0.74,0.52-1.46,1.07-2.19,1.61c-1.11,0.82-2.21,1.65-3.37,2.42
			c-8.33,5.6-18.11,5.49-26.17-0.31l-1.43-1.04c-4.4-3.2-8.56-6.22-14.03-7.18c-1.99-0.35-3.5-2.6-3.53-4.38
			c-0.08-4.66-0.07-9.36-0.06-14.32l0-8.82l3.92,1.98c0.78,0.39,1.51,0.75,2.22,1.09c1.55,0.75,3.02,1.46,4.41,2.32
			c1.34,0.84,2.61,1.75,3.84,2.63c1.5,1.08,2.92,2.09,4.43,2.96c9.31,5.37,20.56,4.84,29.37-1.37c0.76-0.54,1.5-1.09,2.24-1.64
			c1.31-0.97,2.67-1.98,4.12-2.91c7.5-4.77,16.81-4.75,24.28,0.08c1.28,0.83,2.48,1.72,3.64,2.59c1.14,0.85,2.22,1.65,3.35,2.38
			c9.75,6.27,21.29,6.11,30.87-0.45c0.96-0.66,1.89-1.35,2.83-2.04c0.88-0.65,1.76-1.31,2.67-1.93c8.09-5.62,18.13-5.6,26.21,0.05
			c0.8,0.56,1.58,1.13,2.37,1.71c1.68,1.23,3.28,2.4,4.98,3.39c9.75,5.65,21,5.07,30.09-1.54c0.51-0.37,1.01-0.74,1.51-1.12
			c1.4-1.04,2.85-2.13,4.41-3.11c7.74-4.88,16.91-4.79,24.54,0.24c1.13,0.74,2.22,1.55,3.3,2.35c1.32,0.98,2.57,1.9,3.89,2.7
			c10,6.11,21.25,5.74,30.85-1.02c0.73-0.51,1.44-1.04,2.16-1.56c0.96-0.7,1.92-1.41,2.91-2.08c8.15-5.61,18.1-5.64,25.94-0.08
			l1.51,1.08c4.86,3.48,9.46,6.77,15.52,7.61l2.33,0.32V356.94z M205.37,337.05c5.59,0,11.21,1.46,16.34,4.41
			c2.03,1.17,3.89,2.52,5.68,3.83c0.69,0.5,1.39,1.01,2.09,1.5c6.61,4.64,14.16,4.61,20.7-0.09c0.66-0.47,1.31-0.95,1.95-1.43
			c0.95-0.7,1.89-1.39,2.86-2.07c11.77-8.21,26.4-8.21,38.18,0.01c0.88,0.61,1.74,1.24,2.6,1.87c0.88,0.65,1.77,1.3,2.67,1.92
			c6.16,4.26,13.56,4.29,19.79,0.08c1.27-0.86,2.5-1.77,3.73-2.67l1.71-1.26c8.24-5.97,17.7-7.64,27.36-4.86
			c4.61,1.33,9.49,3.98,14.92,8.09c6.43,4.87,15.99,4.92,21.75,0.11c1.04-0.87,2.14-1.65,3.2-2.4l0.99-0.7
			c10.74-7.73,24.53-8.39,35.99-1.73c1.72,1,3.3,2.14,4.82,3.24c1.22,0.88,2.38,1.71,3.59,2.47c0.57,0.36,1.19,0.68,1.86,1.01
			v-13.63c-6.21-1.42-10.97-4.83-15.59-8.14l-1.49-1.07c-6.03-4.27-13.41-4.22-19.75,0.12c-0.94,0.64-1.85,1.32-2.77,1.99
			c-0.74,0.55-1.49,1.09-2.24,1.63c-11.28,7.94-25.03,8.4-36.79,1.22c-1.52-0.93-2.93-1.97-4.28-2.97
			c-1.01-0.74-2.01-1.49-3.06-2.18c-5.81-3.83-12.79-3.9-18.68-0.19c-1.38,0.87-2.68,1.84-4.07,2.87c-0.52,0.39-1.04,0.77-1.56,1.15
			c-10.71,7.8-24.49,8.51-35.98,1.85c-1.96-1.13-3.74-2.44-5.47-3.7c-0.75-0.55-1.51-1.1-2.27-1.64
			c-6.18-4.32-13.85-4.33-20.03-0.04c-0.86,0.6-1.69,1.21-2.53,1.84c-0.99,0.73-1.98,1.46-2.99,2.16
			c-11.27,7.71-25.39,7.91-36.85,0.53c-1.29-0.83-2.49-1.73-3.65-2.6c-1.14-0.85-2.21-1.65-3.34-2.38
			c-5.77-3.72-12.67-3.74-18.45-0.06c-1.29,0.82-2.51,1.72-3.8,2.68c-0.78,0.58-1.56,1.16-2.35,1.72
			c-10.56,7.45-24.04,8.07-35.2,1.64c-1.74-1-3.33-2.14-4.87-3.25c-1.21-0.87-2.36-1.69-3.56-2.44c-0.7-0.44-1.46-0.84-2.28-1.25
			v0.1c-0.01,4.7-0.01,9.15,0.05,13.55c6.22,1.33,10.86,4.69,15.34,7.95l1.41,1.02c6.15,4.42,13.62,4.5,19.99,0.21
			c1.08-0.73,2.12-1.5,3.16-2.27c0.76-0.56,1.52-1.13,2.29-1.68C192.2,339.09,198.77,337.05,205.37,337.05z M144.32,338.58
			C144.32,338.58,144.32,338.58,144.32,338.58C144.32,338.58,144.32,338.58,144.32,338.58z"/>
	</g>
	<g class="st4">
		<path d="M315.19,274.13c2.42,0.04,4.27,1.93,4.26,4.34c-0.01,2.39-1.9,4.32-4.28,4.35c-2.48,0.03-4.48-2.02-4.41-4.51
			C310.83,275.91,312.77,274.09,315.19,274.13z"/>
		<path d="M315.1,285.52c-1.9,0-3.68-0.75-5.02-2.11c-1.35-1.37-2.09-3.26-2.03-5.19c0.12-3.88,3.22-6.83,7.18-6.8
			c3.89,0.06,6.93,3.16,6.92,7.05c-0.01,3.9-3.06,7-6.95,7.05C315.17,285.52,315.13,285.52,315.1,285.52z M315.11,276.83
			c-0.93,0-1.62,0.65-1.65,1.56c-0.01,0.46,0.16,0.9,0.48,1.23c0.32,0.32,0.78,0.52,1.19,0.49c0.9-0.01,1.61-0.74,1.61-1.65
			c0-0.93-0.67-1.61-1.6-1.63h0C315.13,276.83,315.12,276.83,315.11,276.83z"/>
	</g>
	<g class="st4">
		<path d="M389.48,274.09c-2.27,0.06-4.41-1.93-4.52-4.2c-0.12-2.29,1.82-4.37,4.17-4.49c2.55-0.13,4.55,1.75,4.57,4.27
			C393.71,272.08,391.84,274.04,389.48,274.09z"/>
		<path d="M389.38,276.8c-3.7,0-6.94-3.07-7.13-6.77c-0.09-1.8,0.55-3.57,1.81-4.96c1.27-1.41,3.07-2.27,4.93-2.36
			c2-0.11,3.84,0.57,5.24,1.89c1.38,1.31,2.15,3.11,2.17,5.06c0.03,3.91-2.98,7.04-6.85,7.14h0
			C389.49,276.8,389.43,276.8,389.38,276.8z M389.37,268.1c-0.04,0-0.07,0-0.11,0c-0.43,0.02-0.86,0.24-1.18,0.59
			c-0.29,0.32-0.44,0.7-0.42,1.06c0.04,0.79,0.94,1.64,1.73,1.64c0.01,0,0.02,0,0.03,0c0.89-0.02,1.58-0.77,1.58-1.69
			c0-0.48-0.17-0.88-0.47-1.17C390.22,268.25,389.83,268.1,389.37,268.1z"/>
	</g>
	<g class="st4">
		<path d="M275.81,295.94c2.36,0.01,4.33,1.95,4.37,4.29c0.03,2.47-2.03,4.47-4.53,4.4c-2.41-0.07-4.2-1.97-4.16-4.42
			C271.53,297.78,273.39,295.94,275.81,295.94z"/>
		<path d="M275.77,307.34c-0.07,0-0.14,0-0.2,0c-3.86-0.11-6.85-3.26-6.79-7.17c0.06-3.89,3.14-6.93,7.01-6.93c0.01,0,0.01,0,0.02,0
			h0c3.84,0.01,7.01,3.13,7.06,6.96c0.03,1.93-0.72,3.74-2.1,5.1C279.45,306.6,277.64,307.34,275.77,307.34z M275.79,298.65
			c-0.93,0-1.59,0.66-1.6,1.61c-0.02,0.98,0.6,1.65,1.54,1.68c0.54-0.01,0.92-0.16,1.26-0.49c0.18-0.18,0.49-0.58,0.49-1.17
			C277.46,299.4,276.69,298.65,275.79,298.65C275.8,298.65,275.8,298.65,275.79,298.65z"/>
	</g>
	<g class="st4">
		<path d="M354.39,300.23c0.04-2.33,2.04-4.28,4.39-4.29c2.54-0.01,4.41,1.96,4.31,4.55c-0.09,2.43-1.99,4.21-4.44,4.14
			C356.3,304.57,354.36,302.57,354.39,300.23z"/>
		<path d="M358.79,307.34c-0.07,0-0.14,0-0.2,0c-3.86-0.11-6.95-3.31-6.89-7.14l0,0c0.06-3.82,3.24-6.94,7.09-6.95
			c0.01,0,0.01,0,0.02,0c1.95,0,3.74,0.74,5.04,2.1c1.33,1.38,2.03,3.24,1.96,5.25C365.66,304.41,362.6,307.34,358.79,307.34z
			 M357.1,300.28c-0.01,0.86,0.75,1.63,1.64,1.65c0.99-0.03,1.63-0.59,1.66-1.54c0.02-0.53-0.13-0.98-0.44-1.3
			c-0.28-0.29-0.68-0.45-1.16-0.45c0,0-0.01,0-0.01,0C357.92,298.65,357.11,299.43,357.1,300.28L357.1,300.28z"/>
	</g>
	<g class="st4">
		<path d="M254.07,274.09c-2.39,0.07-4.34-1.77-4.42-4.18c-0.09-2.48,1.63-4.39,4.05-4.5c2.52-0.12,4.62,1.81,4.66,4.26
			C258.39,271.92,256.36,274.02,254.07,274.09z"/>
		<path d="M253.94,276.79c-3.8,0-6.85-2.94-6.99-6.79c-0.14-3.98,2.7-7.12,6.62-7.3c1.9-0.1,3.87,0.61,5.28,1.94
			c1.4,1.31,2.18,3.08,2.21,4.99c0.05,3.71-3.17,7.06-6.91,7.17C254.08,276.79,254.01,276.79,253.94,276.79z M253.92,268.1
			c-0.03,0-0.06,0-0.09,0c-0.94,0.05-1.51,0.7-1.47,1.71c0.03,0.93,0.67,1.55,1.64,1.58l0,0c0.8-0.02,1.67-0.9,1.66-1.68
			c-0.01-0.43-0.18-0.83-0.51-1.13C254.82,268.27,254.38,268.1,253.92,268.1z"/>
	</g>
	<g class="st4">
		<path d="M214.69,287.1c0.06,2.24-1.97,4.36-4.27,4.44c-2.39,0.08-4.38-1.75-4.48-4.13c-0.11-2.53,1.8-4.55,4.31-4.56
			C212.58,282.85,214.62,284.8,214.69,287.1z"/>
		<path d="M210.27,294.25c-3.73,0-6.86-2.96-7.03-6.72c-0.09-1.97,0.6-3.83,1.93-5.23c1.32-1.39,3.13-2.15,5.08-2.16
			c0,0,0.01,0,0.01,0c3.77,0,7.04,3.15,7.14,6.88l0,0c0.1,3.71-3.11,7.08-6.87,7.21C210.43,294.25,210.35,294.25,210.27,294.25z
			 M210.26,285.56C210.25,285.56,210.25,285.56,210.26,285.56c-0.59,0-0.97,0.26-1.18,0.48c-0.31,0.32-0.46,0.77-0.44,1.25
			c0.04,0.88,0.75,1.55,1.63,1.55c0.02,0,0.04,0,0.06,0c0.81-0.03,1.68-0.9,1.66-1.66l0,0
			C211.96,286.34,211.12,285.56,210.26,285.56z"/>
	</g>
	<g class="st4">
		<path d="M411.17,300.08c0.15-2.42,2.39-4.34,4.82-4.13c2.35,0.2,4.06,2.26,3.88,4.68c-0.17,2.41-2.15,4.13-4.57,3.99
			C413,304.5,411.03,302.33,411.17,300.08z"/>
		<path d="M415.58,307.34c-0.14,0-0.29-0.01-0.43-0.01c-1.83-0.1-3.61-0.99-4.88-2.42c-1.25-1.4-1.9-3.22-1.79-4.98l0,0
			c0.11-1.87,1.02-3.66,2.47-4.92c1.47-1.27,3.39-1.91,5.28-1.74c3.84,0.33,6.63,3.66,6.35,7.57
			C422.31,304.56,419.27,307.34,415.58,307.34z M413.87,300.25c-0.02,0.33,0.14,0.73,0.44,1.06c0.32,0.36,0.75,0.6,1.15,0.62
			c0.9,0.04,1.65-0.56,1.72-1.48c0.07-0.95-0.54-1.72-1.42-1.8c-0.44-0.03-0.91,0.12-1.28,0.45
			C414.12,299.41,413.9,299.83,413.87,300.25L413.87,300.25z"/>
	</g>
	<g class="st4">
		<path d="M192.83,370.28c-0.06,2.35-2.05,4.24-4.44,4.23c-2.51-0.01-4.45-2.06-4.31-4.56c0.13-2.34,2.24-4.29,4.5-4.19
			C190.84,365.88,192.89,368.06,192.83,370.28z"/>
		<path d="M188.41,377.22c-0.01,0-0.02,0-0.03,0c-1.97-0.01-3.78-0.79-5.11-2.2c-1.33-1.41-1.99-3.26-1.88-5.21
			c0.22-3.82,3.56-6.91,7.33-6.73c3.73,0.17,6.93,3.58,6.83,7.28l0,0C195.44,374.15,192.24,377.22,188.41,377.22z M188.4,368.48
			c-0.77,0-1.57,0.81-1.62,1.64c-0.03,0.46,0.12,0.88,0.42,1.2c0.3,0.32,0.73,0.5,1.19,0.5c0,0,0.01,0,0.01,0
			c0.93,0,1.7-0.72,1.73-1.6c0.02-0.76-0.89-1.7-1.68-1.74C188.44,368.48,188.42,368.48,188.4,368.48z"/>
	</g>
	<g class="st4">
		<path d="M332.53,383.22c0.04,2.44-1.76,4.32-4.18,4.39c-2.42,0.06-4.39-1.73-4.5-4.1c-0.11-2.39,1.99-4.63,4.36-4.63
			C330.51,378.87,332.5,380.87,332.53,383.22z"/>
		<path d="M328.23,390.31c-3.81,0-6.9-2.9-7.07-6.68c-0.09-1.88,0.65-3.79,2.01-5.22c1.35-1.42,3.19-2.23,5.04-2.24
			c0,0,0.01,0,0.01,0c3.75,0,6.96,3.21,7.03,7.01v0c0.06,3.9-2.93,7.03-6.81,7.13C328.36,390.31,328.29,390.31,328.23,390.31z
			 M328.21,381.57C328.21,381.57,328.21,381.57,328.21,381.57c-0.38,0-0.8,0.21-1.13,0.56c-0.35,0.37-0.54,0.83-0.53,1.24
			c0.04,0.88,0.76,1.52,1.68,1.52c0.02,0,0.03,0,0.05,0c0.94-0.02,1.56-0.68,1.54-1.64l0,0
			C329.82,382.39,329.03,381.57,328.21,381.57z"/>
	</g>
	<g class="st4">
		<path d="M297.63,370.17c0.01,2.4-1.86,4.28-4.28,4.33c-2.46,0.04-4.34-1.73-4.4-4.16c-0.07-2.49,1.95-4.6,4.37-4.57
			C295.59,365.81,297.62,367.87,297.63,370.17z"/>
		<path d="M293.26,377.2c-3.9,0-6.9-2.89-7.01-6.79c-0.05-1.95,0.7-3.86,2.07-5.25c1.33-1.35,3.08-2.09,4.94-2.09
			c0.03,0,0.07,0,0.1,0c3.77,0.05,6.96,3.3,6.98,7.09l0,0c0.02,3.88-3.03,6.98-6.94,7.04C293.35,377.2,293.3,377.2,293.26,377.2z
			 M293.26,368.48c-0.53,0-0.91,0.3-1.09,0.48c-0.35,0.35-0.53,0.82-0.52,1.3c0.03,0.93,0.66,1.53,1.61,1.53c0.01,0,0.03,0,0.04,0
			c0.95-0.02,1.63-0.69,1.63-1.61l0,0c0-0.82-0.85-1.69-1.65-1.7C293.27,368.48,293.27,368.48,293.26,368.48z"/>
	</g>
	<g class="st4">
		<path d="M424.3,370.1c0.05,2.41-1.78,4.33-4.19,4.4c-2.52,0.07-4.61-1.92-4.58-4.36c0.03-2.24,2.17-4.36,4.4-4.37
			C422.22,365.75,424.25,367.77,424.3,370.1z"/>
		<path d="M419.99,377.21c-1.9,0-3.74-0.75-5.09-2.08c-1.37-1.35-2.1-3.14-2.07-5.03c0.06-3.73,3.37-7.01,7.09-7.04
			c0.01,0,0.03,0,0.04,0c3.74,0,6.96,3.19,7.05,6.98c0.08,3.91-2.91,7.05-6.82,7.16C420.12,377.21,420.05,377.21,419.99,377.21z
			 M419.96,368.47C419.96,368.47,419.95,368.47,419.96,368.47c-0.77,0.01-1.71,0.95-1.72,1.71c-0.01,0.55,0.29,0.92,0.47,1.1
			c0.35,0.35,0.83,0.52,1.33,0.52c0.92-0.03,1.58-0.71,1.56-1.64l0,0C421.58,369.31,420.77,368.47,419.96,368.47z"/>
	</g>
	<g class="st4">
		<path d="M384.96,383.24c2.33-0.03,4.29,1.91,4.35,4.31c0.06,2.44-1.72,4.36-4.13,4.44c-2.49,0.09-4.62-1.93-4.6-4.35
			C380.6,385.41,382.73,383.27,384.96,383.24z"/>
		<path d="M385.04,394.7c-1.86,0-3.69-0.74-5.03-2.05c-1.39-1.35-2.14-3.14-2.12-5.03c0.03-3.72,3.32-7.03,7.04-7.08
			c0.03,0,0.07,0,0.1,0c3.77,0,6.9,3.1,6.99,6.95c0.1,3.91-2.86,7.07-6.74,7.21C385.2,394.7,385.11,394.7,385.04,394.7z
			 M385.02,385.95c-0.01,0-0.01,0-0.02,0h0c-0.76,0.01-1.7,0.96-1.71,1.72c-0.01,0.55,0.3,0.93,0.49,1.11
			c0.35,0.34,0.81,0.51,1.31,0.51c0.92-0.03,1.54-0.72,1.52-1.67C386.58,386.71,385.86,385.95,385.02,385.95z"/>
	</g>
	<g class="st4">
		<path d="M240.86,387.6c2.21,0.01,4.36,2.14,4.4,4.37c0.05,2.41-2.08,4.45-4.56,4.39c-2.39-0.06-4.2-1.98-4.15-4.41
			C236.59,389.56,238.54,387.59,240.86,387.6z"/>
		<path d="M240.81,399.07c-0.06,0-0.13,0-0.19,0c-3.88-0.1-6.86-3.25-6.79-7.16c0.07-3.87,3.2-7,6.99-7c0.01,0,0.03,0,0.04,0h0
			c3.7,0.02,7.02,3.3,7.09,7.02c0.03,1.86-0.73,3.7-2.08,5.05C244.52,398.31,242.69,399.07,240.81,399.07z M240.83,390.31
			c-0.83,0-1.57,0.79-1.58,1.69c-0.02,0.95,0.61,1.63,1.52,1.66c0.46,0.04,0.95-0.18,1.3-0.53c0.18-0.18,0.49-0.57,0.48-1.11
			C242.54,391.26,241.59,390.31,240.83,390.31C240.84,390.31,240.83,390.31,240.83,390.31z"/>
	</g>
	<g class="st4">
		<path d="M324.34,189.65c0.45-1.5,0.83-3.03,1.37-4.5c1.75-4.71,4.52-8.73,8.58-11.71c3.82-2.81,8.2-3.49,12.8-2.71
			c1.69,0.29,3.34,0.82,4.91,1.21c1.68-3.27,3.36-6.54,5.04-9.8c-1.14-0.25-2.41-0.48-3.65-0.8c-5.16-1.33-9.39-4.15-12.75-8.26
			c-3.07-3.76-4.95-8.08-5.33-12.91c-0.19-2.49,0.1-5.02,0.2-7.53c0.04-1,0.16-2,0.29-2.99c0.17-1.32,1.32-2.43,2.62-2.31
			c4.13,0.38,8.33,0.4,12.24,2.05c9.37,3.97,14.63,11.02,15.71,21.16c0.03,0.27,0.07,0.54,0.12,0.93c1.07-0.82,2.05-1.61,3.07-2.35
			c3.27-2.37,6.93-3.94,10.75-5.22c9.19-3.09,18.33-6.3,27.51-9.41c0.73-0.25,1.62-0.31,2.37-0.14c1.11,0.25,1.8,1.38,1.8,2.47
			c0,1.27-0.65,2.24-1.92,2.69c-2.51,0.89-5.04,1.74-7.56,2.61c-1.83,0.63-3.67,1.24-5.49,1.91c-0.39,0.14-0.77,0.46-1.01,0.8
			c-2.94,4.24-4.53,8.99-5.4,14.04c-0.93,5.38-0.89,10.73-0.05,16.11c0.12,0.75,0.42,1.08,1.14,1.04c1.3-0.06,2.61-0.08,3.9-0.23
			c4.33-0.48,8.38,0.29,12.1,2.62c2.3,1.43,3.99,3.44,5.37,5.72c3.75,6.22,4.99,12.92,3.4,20.01c-1.9,8.5-6.84,14.73-14.56,18.74
			c-3.8,1.97-7.87,2.91-12.16,2.96c-0.21,0-0.41,0.06-0.62,0.1c-1.51-0.15-3.02-0.29-4.53-0.44c-0.26-0.08-0.51-0.19-0.77-0.25
			c-3.79-0.79-7.29-2.25-10.36-4.62c-1.74-1.35-3.33-2.89-5.05-4.39c-0.15,0.11-0.42,0.3-0.69,0.5c-3.69,2.75-7.82,4.48-12.37,5.13
			c-1.37,0.2-2.76,0.28-4.14,0.41c-1.63-0.16-3.27-0.32-4.9-0.47c-0.84-0.23-1.69-0.43-2.52-0.68c-4.48-1.35-8.45-3.59-11.76-6.92
			c-4.16-4.17-6.83-9.13-7.72-14.99c-0.22-1.48-0.32-2.99-0.47-4.48C324.01,193.03,324.18,191.34,324.34,189.65z M350.44,177.21
			c-1.53-0.37-3.21-0.93-4.92-1.15c-3.32-0.44-6.43,0.22-8.95,2.58c-5.31,4.97-7.66,11.16-6.98,18.35
			c1.39,14.69,16.75,23.69,30.34,17.89c11.65-4.97,16.59-18.16,11.23-29.63c-1.12-2.4-2.54-4.64-4.9-6.07
			c-2.93-1.78-6.1-1.96-9.4-1.47c-0.57,0.08-0.79,0.29-0.87,0.82c-0.14,0.96-0.31,1.92-0.46,2.88c-0.24,1.54-1.49,2.52-3.03,2.35
			c-1.51-0.16-2.53-1.42-2.4-2.99C350.19,179.66,350.31,178.55,350.44,177.21z M375.62,181.67c5.2,10.87,4.11,21.02-3.03,30.58
			c0.06,0.09,0.13,0.19,0.21,0.28c5.69,6.5,12.86,9,21.26,7.27c14.91-3.07,22.11-19.59,14.39-32.69c-1.07-1.82-2.41-3.4-4.31-4.46
			c-3.72-2.06-7.64-1.51-11.62-1c0.33,0.72,0.66,1.37,0.93,2.04c0.56,1.41-0.04,2.91-1.38,3.52c-1.35,0.61-2.91,0.12-3.58-1.22
			c-0.58-1.16-1.11-2.36-1.56-3.58c-0.85-2.3-0.81-2.37-3.26-2.69C380.76,179.35,378.05,179.89,375.62,181.67z M384.81,174.19
			c-1.09-9.34-0.16-18.38,3.58-27.19c-6.6,2.22-13.14,4-18.34,8.73c-5.06,4.6-9.04,9.93-11.89,16.27
			c5.63-0.34,10.42,1.18,14.26,5.13C377.11,174.38,377.96,174.18,384.81,174.19z M341.03,133.1c-2.49,13.76,7.6,23.89,19.56,23.68
			C362.92,144.09,354.22,133.29,341.03,133.1z"/>
		<path d="M389.22,228.65l-5.98-0.77c-4.36-0.91-8.21-2.64-11.43-5.12c-1.26-0.98-2.44-2.04-3.58-3.07
			c-3.79,2.57-7.98,4.2-12.49,4.85c-0.99,0.14-2,0.23-3,0.32l-1.52,0.14l-5.6-0.58l-0.75-0.2c-0.62-0.16-1.24-0.32-1.85-0.51
			c-5.05-1.52-9.39-4.07-12.9-7.6c-4.68-4.7-7.53-10.25-8.48-16.49c-0.16-1.07-0.26-2.14-0.35-3.21c-0.04-0.46-0.08-0.93-0.13-1.39
			l-0.03-0.27l0.62-5.87c0.14-0.46,0.27-0.92,0.4-1.38c0.3-1.07,0.62-2.17,1.03-3.28c2.03-5.44,5.23-9.8,9.52-12.95
			c4.2-3.08,9.2-4.16,14.86-3.2c1.07,0.18,2.07,0.44,3.05,0.7l2.43-4.73c-0.11-0.03-0.21-0.05-0.31-0.08
			c-5.62-1.45-10.38-4.53-14.16-9.16c-3.53-4.32-5.52-9.17-5.93-14.42c-0.15-2-0.03-3.95,0.08-5.84c0.04-0.67,0.08-1.34,0.11-2.01
			c0.05-1.15,0.18-2.27,0.31-3.22c0.36-2.81,2.86-4.89,5.54-4.66c0.73,0.07,1.46,0.12,2.19,0.18c3.56,0.27,7.25,0.55,10.86,2.08
			c9.15,3.87,14.77,10.48,16.75,19.68c2.97-2.07,6.39-3.7,10.98-5.24c5.14-1.73,10.28-3.5,15.41-5.26
			c4.03-1.39,8.06-2.78,12.09-4.15c1.23-0.42,2.63-0.5,3.84-0.21c2.26,0.52,3.9,2.66,3.9,5.1c0.01,2.45-1.39,4.41-3.73,5.24
			c-1.75,0.62-3.5,1.22-5.26,1.82l-3.68,1.26c-1.3,0.44-2.59,0.88-3.88,1.35c-2.38,3.47-3.98,7.68-4.88,12.84
			c-0.79,4.54-0.86,9.11-0.23,13.92c0.76-0.03,1.51-0.07,2.26-0.15c5.07-0.57,9.73,0.45,13.83,3.01c2.43,1.52,4.48,3.69,6.25,6.62
			c4.19,6.95,5.44,14.35,3.73,22c-2.07,9.21-7.44,16.12-15.96,20.54c-4.04,2.1-8.5,3.2-13.26,3.26L389.22,228.65z M389.79,228.53
			C389.78,228.53,389.78,228.53,389.79,228.53C389.78,228.53,389.78,228.53,389.79,228.53z M385.18,222.83l3.82,0.37
			c0.26-0.04,0.49-0.07,0.72-0.07c3.94-0.04,7.62-0.93,10.93-2.65c7.04-3.65,11.47-9.35,13.17-16.93c1.4-6.25,0.36-12.31-3.08-18.03
			c-1.34-2.22-2.76-3.75-4.48-4.83c-3.09-1.93-6.49-2.66-10.37-2.22c-1.01,0.11-2.02,0.15-3.03,0.19l-1.03,0.05
			c-1.64,0.08-3.55-0.75-3.95-3.32c-0.9-5.81-0.88-11.53,0.06-16.99c1.04-6.01,2.95-10.95,5.84-15.12c0.57-0.82,1.4-1.47,2.29-1.8
			c1.4-0.52,2.8-0.99,4.21-1.47l3.67-1.26c1.73-0.59,3.46-1.18,5.18-1.79c-0.15,0.01-0.31,0.04-0.45,0.09
			c-4.03,1.37-8.05,2.75-12.07,4.14c-5.14,1.77-10.29,3.54-15.44,5.28c-4.3,1.45-7.4,2.94-10.02,4.85c-0.67,0.49-1.33,1-2,1.52
			l-4.73,3.64l-0.66-5.02c-0.03-0.23-0.06-0.42-0.08-0.62c-0.97-9.15-5.57-15.35-14.07-18.95c-2.8-1.18-5.89-1.42-9.16-1.67
			c-0.65-0.05-1.3-0.1-1.95-0.15c-0.13,0.86-0.24,1.8-0.28,2.7c-0.02,0.38-0.04,0.75-0.06,1.13c0.05-0.42,0.12-0.83,0.2-1.25
			l0.41-2.26l2.29,0.03c7.16,0.1,13.43,2.99,17.65,8.13c4.2,5.12,5.82,11.78,4.53,18.74l-0.38,2.06c1.62-1.96,3.4-3.82,5.36-5.6
			c5.05-4.59,11.19-6.61,17.12-8.57l7.88-2.64l-2.35,5.54c-3.38,7.96-4.48,16.4-3.38,25.82l0.35,3.02l-3.05-0.01
			c-1.06,0-1.97,0-2.75,0.01c0.63,0,1.28,0.05,1.94,0.13c2.53,0.32,3.66,0.81,4.56,2.38l3.92-0.49c4.02-0.51,8.57-1.08,12.97,1.36
			c2.11,1.17,3.86,2.95,5.33,5.45c4.15,7.05,4.66,15.31,1.4,22.66c-3.24,7.3-9.64,12.42-17.57,14.05
			c-9.27,1.9-17.51-0.91-23.84-8.14c-0.12-0.14-0.24-0.29-0.34-0.45l-1.09-1.6l1.1-1.64c6.58-8.82,7.49-17.92,2.76-27.8l-0.97-2.02
			l1.81-1.33c2.06-1.51,4.37-2.36,6.9-2.54c-2.95,0.14-3.99,0.67-7.16,2.52l-1.83,1.07l-1.48-1.52c-3.11-3.21-7.13-4.61-12.15-4.31
			l-4.46,0.27l1.84-4.08c1.88-4.17,4.22-7.96,7.08-11.44l-2.14,0.04c-6.82,0.1-13.19-2.71-17.49-7.77
			c-3.21-3.78-4.98-8.44-5.18-13.48c0,0.58,0.01,1.16,0.05,1.72c0.32,4.12,1.91,7.96,4.73,11.41c3.04,3.72,6.85,6.19,11.33,7.35
			c0.83,0.21,1.67,0.39,2.46,0.55l4.53,0.98l-7.63,14.84l-2.08-0.52c-0.5-0.13-1.01-0.27-1.53-0.41c-1.05-0.29-2.14-0.58-3.17-0.76
			c-4.22-0.71-7.74,0.01-10.75,2.23c-3.42,2.52-6,6.04-7.65,10.48c-0.1,0.28-0.2,0.56-0.29,0.85c1.26-3.8,3.52-7.24,6.76-10.28
			c2.96-2.77,6.71-3.88,11.16-3.29c1.37,0.18,2.68,0.54,3.83,0.85c0.47,0.13,0.92,0.25,1.37,0.36l2.28,0.55l-0.35,3.55
			c-0.08,0.81-0.15,1.56-0.22,2.3l0.26-1.24c0.09-0.54,0.18-1.07,0.26-1.61c0.25-1.72,1.4-2.85,3.15-3.11
			c4.48-0.67,8.04-0.08,11.2,1.84c3.18,1.93,4.85,4.88,5.95,7.24c2.92,6.26,3.21,13.17,0.81,19.46
			c-2.38,6.23-7.15,11.13-13.42,13.81c-7.32,3.12-15.45,2.58-22.28-1.48c-6.77-4.03-11.07-10.82-11.82-18.64
			c-0.32-3.32-0.06-6.45,0.77-9.36c-0.1,0.35-0.21,0.71-0.31,1.08c-0.11,0.4-0.23,0.81-0.35,1.21l-0.44,4.55
			c0.04,0.4,0.08,0.8,0.11,1.19c0.09,0.97,0.17,1.93,0.32,2.89c0.77,5.08,3.11,9.62,6.96,13.48c2.87,2.88,6.45,4.98,10.62,6.23
			c0.55,0.16,1.1,0.31,1.65,0.45l0.57,0.15l4.43,0.43l1.05-0.09c0.9-0.08,1.8-0.15,2.69-0.28c4.05-0.58,7.8-2.14,11.14-4.62
			l2.45-1.8l1.63,1.43c0.55,0.48,1.08,0.96,1.61,1.44c1.13,1.02,2.19,1.98,3.31,2.84c2.6,2.01,5.63,3.36,9.26,4.12
			C384.64,222.64,384.91,222.73,385.18,222.83z M376.05,212.05c4.79,4.77,10.67,6.51,17.47,5.11c6.2-1.27,11.19-5.26,13.72-10.94
			c2.55-5.74,2.14-12.2-1.11-17.72c-0.98-1.67-2.03-2.77-3.29-3.47c-2.01-1.11-4.17-1.25-6.53-1.07c0.36,2.36-0.84,4.69-3.11,5.72
			c-2.68,1.22-5.81,0.14-7.12-2.47c-0.66-1.31-1.22-2.61-1.68-3.85l-0.07-0.19c-0.08-0.22-0.17-0.46-0.24-0.65
			c-0.26-0.04-0.57-0.08-0.76-0.1c-1.56-0.2-2.95-0.06-4.22,0.42C383.21,193.01,382.19,202.82,376.05,212.05z M343.64,178.63
			c-2.09,0-3.82,0.65-5.24,1.98c-4.67,4.37-6.73,9.79-6.13,16.12c0.58,6.08,3.93,11.37,9.2,14.51c5.34,3.17,11.68,3.6,17.4,1.15
			c4.91-2.1,8.64-5.92,10.49-10.76c1.88-4.9,1.64-10.31-0.66-15.23c-1.17-2.51-2.32-3.97-3.85-4.9c-1.78-1.08-3.79-1.48-6.39-1.25
			c-0.02,0.13-0.04,0.27-0.07,0.4l-0.19,1.18c-0.46,2.96-3.02,4.94-5.99,4.63c-2.99-0.32-5.05-2.86-4.8-5.9
			c0.04-0.43,0.08-0.86,0.12-1.3c-0.79-0.21-1.6-0.4-2.36-0.5C344.63,178.67,344.13,178.63,343.64,178.63z M389.43,181.41l0.02,0.07
			c0.39,1.05,0.88,2.17,1.45,3.3c-0.14-0.49-0.32-0.89-0.52-1.3L389.43,181.41z M362.48,169.41c3.94,0.47,7.39,1.93,10.31,4.38
			c3.15-1.72,4.91-2.18,9.05-2.29c-0.52-7.14,0.17-13.81,2.1-20.17c-4.48,1.55-8.66,3.29-12.08,6.4
			C368,161.24,364.91,165.09,362.48,169.41z M391.58,173.3c0,0-0.01,0-0.01,0H391.58z M343.39,135.98
			c-0.3,4.63,1.04,8.91,3.87,12.23c2.76,3.24,6.66,5.27,10.96,5.76c0.3-4.5-0.97-8.7-3.69-12
			C351.81,138.64,347.92,136.57,343.39,135.98z"/>
	</g>
</g>
</svg>
