<?xml version="1.0" encoding="utf-8"?>
<!-- Generator: Adobe Illustrator 28.1.0, SVG Export Plug-In . SVG Version: 6.00 Build 0)  -->
<svg version="1.1" id="Capa_1" xmlns="http://www.w3.org/2000/svg" xmlns:xlink="http://www.w3.org/1999/xlink" x="0px" y="0px"
	 viewBox="0 0 375.18 616.39" style="enable-background:new 0 0 375.18 616.39;" xml:space="preserve">
<path d="M275.15,291.52c-2.84,0.12-5.34-0.13-7.58-0.78l-24.28,0.13c-3.85,0-6.32,0-8.79,0c-44.07,0-88.13-0.03-132.2,0.02
	c-17.73,0.02-26.95,14.15-22.94,35c13.25,68.84,26.51,137.68,39.8,206.51c2.54,13.16,8.64,19.84,19.81,19.96
	c33.78,0.38,67.57,0.45,101.35,0.21c10.71-0.08,17.46-7.25,19.6-19.47c5.62-32.11,11.08-64.27,16.63-96.4
	c3.5-20.24,7.03-40.46,10.68-61.36l6.46-38.32c0.03-1.16,2.04-10.81,2.39-12.78C299.34,305.89,290.53,290.86,275.15,291.52z
	 M234.67,533.76c-29.96-0.02-59.92-0.04-89.87-0.06c-10.64-0.01-11.55-1.18-11.64-16.21l0,0l0,0c9.46,1.38,18.88,2.47,28.29,3.24
	c9.4,0.77,18.79,1.23,28.15,1.35c18.73,0.25,37.41-0.81,56.09-3.32c0.1,3.2,0.08,5.71-0.12,7.7
	C244.91,532.74,242.31,533.77,234.67,533.76z M281.25,319.17c-2.25,13.86-4.66,27.69-7.33,41.45c-0.33,1.69-2.55,2.98-4.06,4.14
	c-0.6,0.46-1.64,0.08-2.48,0.08c-53.06,0-106.12,0-159.17-0.01c-1.66,0-3.32-0.16-5.41-0.27c-2.95-15.3-6.05-30.45-8.72-45.72
	c-1.01-5.79,1.33-8.98,6.61-8.97c58.09,0.07,116.18,0.06,174.27,0.03C280.31,309.89,282.19,313.42,281.25,319.17z"/>
</svg>
