<?xml version="1.0" encoding="UTF-8"?>
<svg id="Capa_1" data-name="Capa 1" xmlns="http://www.w3.org/2000/svg" viewBox="0 0 375.18 616.39">
  <defs>
    <style>
      .cls-1 {
        stroke-width: 0px;
      }
    </style>
  </defs>
  <path class="cls-1" d="M210.68,40.75c.06,39.15.9,78.33-.17,117.45-.5,18.36,5.18,33.05,16.37,46.82,7.54,9.29,14.28,19.27,20.91,29.24,6.01,9.03,8.6,19.27,8.6,30.13,0,94.85.07,189.69-.16,284.54-.01,5.52-1.62,11.36-3.83,16.48-2.96,6.87-8.79,10.26-16.67,10.23-31.32-.13-62.65-.05-93.98-.06-12.39,0-19.73-6.07-21.92-18.36-.58-3.23-.8-6.56-.8-9.85-.04-92.06.22-184.12-.25-276.18-.1-18.58,5.51-34.34,16.36-48.81,6.88-9.18,13.7-18.42,20.55-27.62,6.12-8.22,8.96-17.29,8.9-27.68-.25-40.03-.1-80.05-.09-120.08,0-2.08.14-4.17.21-6.25,15.32,0,30.64,0,45.96,0ZM143.98,544.85c1-11.39,2.29-22.77,2.93-34.19,1.35-23.97,3.22-47.95,3.33-71.94.26-55.15-.47-110.31-.59-165.47-.01-6.16.59-12.54,2.25-18.44,4.78-17,15-31.19,24.8-45.54.92-1.34,1.77-2.72,2.66-4.08-14,12.2-26.89,25.17-35.36,41.85-3.84,7.56-6.24,15.47-6.46,23.92-.79,31.49-1.98,62.98-2.05,94.47-.14,59.86,1.67,119.66,8.49,179.41Z"/>
</svg>